<?xml version="1.0" encoding="UTF-8" standalone="no"?>
<svg
   xmlns:dc="http://purl.org/dc/elements/1.1/"
   xmlns:cc="http://creativecommons.org/ns#"
   xmlns:rdf="http://www.w3.org/1999/02/22-rdf-syntax-ns#"
   xmlns:svg="http://www.w3.org/2000/svg"
   xmlns="http://www.w3.org/2000/svg"
   xmlns:xlink="http://www.w3.org/1999/xlink"
   xmlns:sodipodi="http://sodipodi.sourceforge.net/DTD/sodipodi-0.dtd"
   xmlns:inkscape="http://www.inkscape.org/namespaces/inkscape"
   sodipodi:docname="bg6.svg"
   inkscape:version="1.0 (4035a4fb49, 2020-05-01)"
   id="svg8"
   version="1.1"
   viewBox="0 0 508.00009 338.66681"
   height="338.66681mm"
   width="508.00009mm">
  <defs
     id="defs2">
    <linearGradient
       id="linearGradient855"
       inkscape:collect="always">
      <stop
         id="stop851"
         offset="0"
         style="stop-color:#11002b;stop-opacity:1" />
      <stop
         id="stop853"
         offset="1"
         style="stop-color:#11002b;stop-opacity:1" />
    </linearGradient>
    <linearGradient
       id="linearGradient845"
       inkscape:collect="always">
      <stop
         id="stop841"
         offset="0"
         style="stop-color:#000000;stop-opacity:1" />
      <stop
         id="stop843"
         offset="1"
         style="stop-color:#220055;stop-opacity:1" />
    </linearGradient>
    <linearGradient
       gradientUnits="userSpaceOnUse"
       y2="241.99535"
       x2="94.319389"
       y1="-76.474373"
       x1="98.942345"
       id="linearGradient849"
       xlink:href="#linearGradient845"
       inkscape:collect="always" />
    <radialGradient
       gradientUnits="userSpaceOnUse"
       gradientTransform="matrix(1,0,0,0.17774967,0,735.97581)"
       r="960"
       fy="895.07513"
       fx="457.14258"
       cy="895.07513"
       cx="457.14258"
       id="radialGradient857"
       xlink:href="#linearGradient855"
       inkscape:collect="always" />
    <clipPath
       id="clipPath1066"
       clipPathUnits="userSpaceOnUse">
      <path
         d="m -866.98235,-381.88404 2.3e-4,1593.30344 2942.08472,6e-4 V -381.884 Z M 525.0745,807.91956 c 3.55965,-0.97073 8.01439,-1.66023 14.79725,-2.27067 3.56123,-0.32051 7.28693,-0.40558 10.76824,0.41295 10.38428,-1.42637 20.49032,-2.84706 31.10815,-3.55761 2.3213,-0.15544 6.18429,-1.5545 8.70433,-1.67391 0.18701,-0.009 0.36631,-0.0106 0.53716,-0.004 1.19607,0.0447 1.96928,0.48727 1.92241,1.67551 3.25327,-0.68374 6.5683,-1.32567 6.66171,-1.06077 11.07994,31.40893 18.05654,64.11775 27.08477,96.17672 -4.94459,1.03728 -9.85477,2.27223 -14.78649,3.38479 0.0788,0.22417 0.15162,0.44871 0.23052,0.67284 0.002,0.007 0.0103,0.0121 0.0131,0.0189 0.81098,-0.17698 1.62317,-0.34714 2.43342,-0.52764 0.80508,-0.17939 -2.11159,1.26549 -2.43342,0.52764 -14.78974,3.22719 -29.70432,5.82344 -44.88669,6.22492 -5.17495,0.13685 -10.09384,-0.022 -14.77963,-0.41915 -0.79133,0.0699 -1.58557,0.13056 -2.38031,0.1915 -7.4931,3.51066 -16.90465,7.7886 -24.28502,6.66698 -12.56002,-1.90877 -24.18037,-7.80569 -36.27052,-11.70764 -34.90349,-11.2647 -22.75525,-20.91288 1.88444,-30.0486 -10.02275,-21.57847 -0.73169,-47.17909 29.45242,-58.87646 -4.03824,-0.29908 -8.15316,0.30804 -12.78045,2.31326 -1.54344,0.83129 -3.23173,1.72266 -5.17341,2.70215 1.80412,-1.09596 3.52058,-1.98588 5.17341,-2.70215 7.62106,-4.10464 11.07198,-6.5014 17.00478,-8.11921 z m -16.38154,85.57774 c -3.38285,0.81971 21.59379,13.38391 31.32154,13.16697 0.63815,-0.0142 1.27675,-0.0482 1.91622,-0.0748 -0.56196,-0.25618 -1.12202,-0.51755 -1.68165,-0.7815 -12.3253,-2.42678 -22.56148,-6.75965 -30.62057,-12.31809 -0.19042,-0.0185 -0.37438,-0.0356 -0.5189,-0.0346 -0.16961,10e-4 -0.30752,0.0156 -0.41664,0.0421 z m 381.21306,33.5776 c 2.25126,-0.51841 4.31824,-0.21793 6.0678,1.49623 5.20172,5.09646 9.97245,10.59103 14.39815,16.37859 14.64297,-1.43681 29.27422,-3.02249 43.93122,-4.30122 0.43331,-2.3233 1.28326,-3.24738 2.92283,-0.25366 2.13166,-0.17957 4.26447,-0.35382 6.39748,-0.51739 4.97185,-0.38128 12.99876,-5.27062 14.94422,-0.67934 40.47118,95.51219 50.84648,88.59739 3.9755,101.79709 -0.25897,0.4338 -0.90954,0.5554 -1.77451,0.5106 -2.17772,0.6179 -4.30959,1.216 -6.72472,1.9337 -5.59319,1.0887 -11.18493,2.1784 -16.77813,3.2672 -5.61449,1.0928 -10.95844,1.7798 -16.04953,2.1353 -10.15579,6.543 -23.27644,11.7682 -39.54717,14.7579 -44.20125,8.1217 -72.11796,12.6369 -89.2529,-55.8866 -2.51849,-10.07148 2.96096,-19.17341 10.65589,-26.94361 -0.99513,-2.05744 -1.70188,-3.53785 -2.76051,-5.71692 -3.45527,-7.11232 10.04773,-12.29823 15.95408,-17.55548 7.95532,-7.08112 26.55538,-15.94862 35.01786,-20.38317 5.9154,-2.04664 12.86929,-8.71412 18.62251,-10.03893 z m -16.01539,14.72257 c -0.88616,0.27619 -3.49172,1.66181 -3.09112,2.5909 0.0127,0.0296 0.0251,0.0555 0.0379,0.0851 1.06719,-0.83653 2.13887,-1.66841 3.19096,-2.52371 0.26171,-0.21274 0.15766,-0.24431 -0.13772,-0.15226 z m 29.79141,105.41123 c 5.23126,3.9809 17.89205,12.6221 18.00136,1.208 -3.6416,-0.4522 -7.09293,-1.1111 -10.34367,-1.961 -2.55237,0.2562 -5.1047,0.5068 -7.65769,0.753 z"
         style="fill:#ff0000;fill-opacity:1;fill-rule:nonzero;stroke:none"
         id="path1068" />
    </clipPath>
  </defs>
  <sodipodi:namedview
     inkscape:window-maximized="1"
     inkscape:window-y="-6"
     inkscape:window-x="-6"
     inkscape:window-height="1018"
     inkscape:window-width="1920"
     inkscape:snap-global="false"
     showborder="false"
     showgrid="false"
     inkscape:document-rotation="0"
     inkscape:current-layer="layer1"
     inkscape:document-units="mm"
     inkscape:cy="575.58045"
     inkscape:cx="899.90669"
     inkscape:zoom="0.49497475"
     inkscape:pageshadow="2"
     inkscape:pageopacity="0"
     borderopacity="1.0"
     bordercolor="#666666"
     pagecolor="#414141"
     id="base" />
  <metadata
     id="metadata5">
    <rdf:RDF>
      <cc:Work
         rdf:about="">
        <dc:format>image/svg+xml</dc:format>
        <dc:type
           rdf:resource="http://purl.org/dc/dcmitype/StillImage" />
        <dc:title></dc:title>
      </cc:Work>
    </rdf:RDF>
  </metadata>
  <g
     transform="translate(133.04769,56.69643)"
     id="layer1"
     inkscape:groupmode="layer"
     inkscape:label="Layer 1">
    <rect
       y="-56.69643"
       x="-133.04761"
       height="338.66666"
       width="508"
       id="rect833"
       style="opacity:1;fill:url(#linearGradient849);fill-opacity:1;stroke:none;stroke-width:4.99999;stroke-linejoin:bevel;paint-order:stroke fill markers" />
    <path
       transform="scale(0.26458333)"
       d="m 333.60938,-175.28711 a 5.0507619,5.0507619 0 0 0 -5.05079,5.05078 5.0507619,5.0507619 0 0 0 5.05079,5.05078 5.0507619,5.0507619 0 0 0 5.05078,-5.05078 5.0507619,5.0507619 0 0 0 -5.05078,-5.05078 z m -571.03321,92.607422 a 5.0507619,5.0507619 0 0 0 -5.05078,5.050782 5.0507619,5.0507619 0 0 0 5.05078,5.050781 5.0507619,5.0507619 0 0 0 5.05078,-5.050781 5.0507619,5.0507619 0 0 0 -5.05078,-5.050782 z m 881.125,50.671876 a 5.0507618,5.0507618 0 0 0 -5.05078,5.050781 5.0507618,5.0507618 0 0 0 5.05078,5.050781 5.0507618,5.0507618 0 0 0 5.05078,-5.050781 5.0507618,5.0507618 0 0 0 -5.05078,-5.050781 z m 488.27933,70.876953 a 5.050762,5.050762 0 0 0 -5.0508,5.050781 5.050762,5.050762 0 0 0 5.0508,5.050781 5.050762,5.050762 0 0 0 5.0507,-5.050781 5.050762,5.050762 0 0 0 -5.0507,-5.050781 z M 76.566406,123.91797 a 5.0507623,5.0507623 0 0 0 -5.050781,5.05078 5.0507623,5.0507623 0 0 0 5.050781,5.05078 5.0507623,5.0507623 0 0 0 5.050782,-5.05078 5.0507623,5.0507623 0 0 0 -5.050782,-5.05078 z m -367.464846,7.56445 a 5.0507615,5.0507615 0 0 0 -5.05078,5.05078 5.0507615,5.0507615 0 0 0 5.05078,5.05078 5.0507615,5.0507615 0 0 0 5.05078,-5.05078 5.0507615,5.0507615 0 0 0 -5.05078,-5.05078 z m 1248.58985,43.10742 a 5.0507618,5.0507618 0 0 0 -5.05079,5.05078 5.0507618,5.0507618 0 0 0 5.05079,5.05079 5.0507618,5.0507618 0 0 0 5.05078,-5.05079 5.0507618,5.0507618 0 0 0 -5.05078,-5.05078 z M 386.6582,267.19727 a 5.0507618,5.0507618 0 0 0 -5.05078,5.05078 5.0507618,5.0507618 0 0 0 5.05078,5.05078 5.0507618,5.0507618 0 0 0 5.05078,-5.05078 5.0507618,5.0507618 0 0 0 -5.05078,-5.05078 z m -367.464841,7.56445 a 5.0507619,5.0507619 0 0 0 -5.050781,5.05078 5.0507619,5.0507619 0 0 0 5.050781,5.05078 5.0507619,5.0507619 0 0 0 5.050782,-5.05078 5.0507619,5.0507619 0 0 0 -5.050782,-5.05078 z m 855.744141,63.3125 a 5.050762,5.050762 0 0 0 -5.05078,5.05078 5.050762,5.050762 0 0 0 5.05078,5.05078 5.050762,5.050762 0 0 0 5.05078,-5.05078 5.050762,5.050762 0 0 0 -5.05078,-5.05078 z m -367.46484,7.56445 a 5.050762,5.050762 0 0 0 -5.05078,5.05078 5.050762,5.050762 0 0 0 5.05078,5.05078 5.050762,5.050762 0 0 0 5.05078,-5.05078 5.050762,5.050762 0 0 0 -5.05078,-5.05078 z m 193.17578,128.15625 a 5.0507622,5.0507622 0 0 0 -5.05078,5.05078 5.0507622,5.0507622 0 0 0 5.05078,5.05078 5.0507622,5.0507622 0 0 0 5.05078,-5.05078 5.0507622,5.0507622 0 0 0 -5.05078,-5.05078 z m -367.46485,7.56446 a 5.0507617,5.0507617 0 0 0 -5.05078,5.05078 5.0507617,5.0507617 0 0 0 5.05078,5.05078 5.0507617,5.0507617 0 0 0 5.05079,-5.05078 5.0507617,5.0507617 0 0 0 -5.05079,-5.05078 z m 855.74411,63.3125 a 5.0507624,5.0507624 0 0 0 -5.0507,5.05078 5.0507624,5.0507624 0 0 0 5.0507,5.05078 5.0507624,5.0507624 0 0 0 5.0508,-5.05078 5.0507624,5.0507624 0 0 0 -5.0508,-5.05078 z m -367.46481,7.56445 a 5.0507612,5.0507612 0 0 0 -5.05078,5.05078 5.0507612,5.0507612 0 0 0 5.05078,5.05078 5.0507612,5.0507612 0 0 0 5.05078,-5.05078 5.0507612,5.0507612 0 0 0 -5.05078,-5.05078 z m -1059.3125,21.73047 a 5.050762,5.050762 0 0 0 -5.05078,5.05078 5.050762,5.050762 0 0 0 5.05078,5.05078 5.050762,5.050762 0 0 0 5.05078,-5.05078 5.050762,5.050762 0 0 0 -5.05078,-5.05078 z m 488.2793,70.87695 a 5.050762,5.050762 0 0 0 -5.05078,5.05078 5.050762,5.050762 0 0 0 5.05078,5.05078 5.050762,5.050762 0 0 0 5.05078,-5.05078 5.050762,5.050762 0 0 0 -5.05078,-5.05078 z m 881.12501,50.67187 a 5.050762,5.050762 0 0 0 -5.0508,5.05079 5.050762,5.050762 0 0 0 5.0508,5.05078 5.050762,5.050762 0 0 0 5.0508,-5.05078 5.050762,5.050762 0 0 0 -5.0508,-5.05079 z M 76.140625,780.56445 a 5.0507621,5.0507621 0 0 0 -5.050781,5.05078 5.0507621,5.0507621 0 0 0 5.050781,5.05079 5.0507621,5.0507621 0 0 0 5.050781,-5.05079 5.0507621,5.0507621 0 0 0 -5.050781,-5.05078 z m 488.279295,70.87696 a 5.050762,5.050762 0 0 0 -5.05078,5.05078 5.050762,5.050762 0 0 0 5.05078,5.05078 5.050762,5.050762 0 0 0 5.05078,-5.05078 5.050762,5.050762 0 0 0 -5.05078,-5.05078 z m 310.0918,143.27929 a 5.050762,5.050762 0 0 0 -5.05078,5.05078 5.050762,5.050762 0 0 0 5.05078,5.05082 5.050762,5.050762 0 0 0 5.05078,-5.05082 5.050762,5.050762 0 0 0 -5.05078,-5.05078 z"
       style="opacity:1;fill:#330080;fill-opacity:1;stroke:none;stroke-width:18.8976;stroke-linejoin:bevel;paint-order:stroke fill markers"
       clip-path="url(#clipPath1046)"
       id="path895" />
    <path
       transform="scale(0.26458333)"
       d="m 59.791016,-131.02734 a 5.0507622,5.0507622 45 0 0 -4.226563,2.45117 5.0507622,5.0507622 45 0 0 1.732422,6.92969 5.0507622,5.0507622 45 0 0 6.929687,-1.73243 5.0507622,5.0507622 45 0 0 -1.730468,-6.92968 5.0507622,5.0507622 45 0 0 -2.705078,-0.71875 z m -126.824219,99.804684 a 5.0507618,5.0507618 45 0 0 -4.226563,2.451172 5.0507618,5.0507618 45 0 0 1.730469,6.929687 5.0507618,5.0507618 45 0 0 6.931641,-1.732422 5.0507618,5.0507618 45 0 0 -1.732422,-6.929687 5.0507618,5.0507618 45 0 0 -2.703125,-0.71875 z M 626.48633,27.164062 a 5.0507617,5.0507617 0 0 0 -4.41406,2.451172 5.0507617,5.0507617 0 0 0 1.73046,6.929688 5.0507617,5.0507617 0 0 0 6.92969,-1.730469 5.0507617,5.0507617 0 0 0 -1.73047,-6.929687 5.0507617,5.0507617 0 0 0 -2.51562,-0.720704 z M -441.41016,93.023438 a 5.0507619,5.0507619 0 0 0 -4.22656,2.451171 5.0507619,5.0507619 0 0 0 1.73242,6.929691 5.0507619,5.0507619 0 0 0 6.92969,-1.73047 5.0507619,5.0507619 0 0 0 -1.73047,-6.929689 5.0507619,5.0507619 0 0 0 -2.70508,-0.720703 z m 693.33204,58.388672 a 5.0507617,5.0507617 0 0 0 -4.22657,2.44922 5.0507617,5.0507617 0 0 0 1.73047,6.93164 5.0507617,5.0507617 0 0 0 6.93164,-1.73242 5.0507617,5.0507617 0 0 0 -1.73242,-6.92969 5.0507617,5.0507617 0 0 0 -2.70312,-0.71875 z m 63.21484,129.43359 a 5.0507619,5.0507619 0 0 0 -4.22656,2.44922 5.0507619,5.0507619 0 0 0 1.73046,6.93164 5.0507619,5.0507619 0 0 0 6.93165,-1.73242 5.0507619,5.0507619 0 0 0 -1.73243,-6.92969 5.0507619,5.0507619 0 0 0 -2.70312,-0.71875 z M 95.851562,307.51172 a 5.0507616,5.0507616 0 0 0 -4.226562,2.45117 5.0507616,5.0507616 0 0 0 1.732422,6.92969 5.0507616,5.0507616 0 0 0 6.929688,-1.73242 5.0507616,5.0507616 0 0 0 -1.730469,-6.92969 5.0507616,5.0507616 0 0 0 -2.705079,-0.71875 z m 912.617238,31.7207 a 5.0507619,5.0507619 0 0 0 -4.2266,2.45117 5.0507619,5.0507619 0 0 0 1.7305,6.92969 5.0507619,5.0507619 0 0 0 6.9296,-1.73047 5.0507619,5.0507619 0 0 0 -1.7304,-6.92969 5.0507619,5.0507619 0 0 0 -2.7031,-0.7207 z m -219.09575,26.66602 a 5.0507617,5.0507617 0 0 0 -4.41602,2.45117 5.0507617,5.0507617 0 0 0 1.73047,6.92969 5.0507617,5.0507617 0 0 0 6.93164,-1.73047 5.0507617,5.0507617 0 0 0 -1.73242,-6.92969 5.0507617,5.0507617 0 0 0 -2.51367,-0.7207 z M -59.240234,405.0918 a 5.0507619,5.0507619 0 0 0 -4.226563,2.45117 5.0507619,5.0507619 0 0 0 1.732422,6.92969 5.0507619,5.0507619 0 0 0 6.929687,-1.73243 5.0507619,5.0507619 0 0 0 -1.730468,-6.92968 5.0507619,5.0507619 0 0 0 -2.705078,-0.71875 z m -219.283206,26.66601 a 5.050762,5.050762 0 0 0 -4.22656,2.45117 5.050762,5.050762 0 0 0 1.73047,6.92969 5.050762,5.050762 0 0 0 6.92969,-1.73047 5.050762,5.050762 0 0 0 -1.73047,-6.93164 5.050762,5.050762 0 0 0 -2.70313,-0.71875 z m 912.80469,31.72071 a 5.0507619,5.0507619 0 0 0 -4.41602,2.45117 5.0507619,5.0507619 0 0 0 1.73047,6.92969 5.0507619,5.0507619 0 0 0 6.93164,-1.73047 5.0507619,5.0507619 0 0 0 -1.73242,-6.92969 5.0507619,5.0507619 0 0 0 -2.51367,-0.7207 z m -219.47461,26.66796 a 5.0507621,5.0507621 0 0 0 -4.22656,2.44922 5.0507621,5.0507621 0 0 0 1.73242,6.92969 5.0507621,5.0507621 0 0 0 6.92969,-1.73047 5.0507621,5.0507621 0 0 0 -1.73047,-6.92969 5.0507621,5.0507621 0 0 0 -2.70508,-0.71875 z m 63.21484,129.4336 a 5.0507611,5.0507611 0 0 0 -4.22656,2.44922 5.0507611,5.0507611 0 0 0 1.73242,6.92968 5.0507611,5.0507611 0 0 0 6.92969,-1.73046 5.0507611,5.0507611 0 0 0 -1.73047,-6.92969 5.0507611,5.0507611 0 0 0 -2.70508,-0.71875 z m -374.375,124.24609 a 5.0507619,5.0507619 0 0 0 -4.226558,2.44922 5.0507619,5.0507619 0 0 0 1.730468,6.93164 5.0507619,5.0507619 0 0 0 6.92969,-1.73242 5.0507619,5.0507619 0 0 0 -1.73047,-6.92969 5.0507619,5.0507619 0 0 0 -2.70313,-0.71875 z m 693.33008,58.38672 a 5.0507623,5.0507623 0 0 0 -4.22656,2.45117 5.0507623,5.0507623 0 0 0 1.73242,6.92969 5.0507623,5.0507623 0 0 0 6.92969,-1.73047 5.0507623,5.0507623 0 0 0 -1.73047,-6.92969 5.0507623,5.0507623 0 0 0 -2.70508,-0.7207 z M 670.3418,902.01758 a 5.0507619,5.0507619 0 0 0 -4.41602,2.45117 5.0507619,5.0507619 0 0 0 1.73242,6.92969 5.0507619,5.0507619 0 0 0 6.92969,-1.73047 5.0507619,5.0507619 0 0 0 -1.73242,-6.92969 5.0507619,5.0507619 0 0 0 -2.51367,-0.7207 z M 295.77539,1026.2656 a 5.0507619,5.0507619 0 0 0 -4.22461,2.4492 5.0507619,5.0507619 0 0 0 1.73047,6.9297 5.0507619,5.0507619 0 0 0 6.92969,-1.7304 5.0507619,5.0507619 0 0 0 -1.73047,-6.9297 5.0507619,5.0507619 0 0 0 -2.70508,-0.7188 z"
       style="opacity:1;fill:#5500d4;fill-opacity:1;stroke:none;stroke-width:18.8976;stroke-linejoin:bevel;paint-order:stroke fill markers"
       clip-path="url(#clipPath1046)"
       id="path1054" />
    <path
       transform="scale(0.26458333)"
       d="m -185.80273,-173.61523 a 5.0507613,5.0507613 0 0 0 -4.83594,3.79882 5.0507613,5.0507613 0 0 0 3.64258,6.14453 5.0507613,5.0507613 0 0 0 6.14453,-3.64257 5.0507613,5.0507613 0 0 0 -3.64063,-6.14453 5.0507613,5.0507613 0 0 0 -1.31054,-0.15625 z m 945.96484,73.19531 a 5.0507616,5.0507616 0 0 0 -4.83594,3.798826 5.0507616,5.0507616 0 0 0 3.64063,6.144532 5.0507616,5.0507616 0 0 0 6.14648,-3.642579 5.0507616,5.0507616 0 0 0 -3.64258,-6.144529 5.0507616,5.0507616 0 0 0 -1.30859,-0.15625 z m -588.08594,10.531248 a 5.0507621,5.0507621 0 0 0 -4.83398,3.798828 5.0507621,5.0507621 0 0 0 3.64062,6.144532 5.0507621,5.0507621 0 0 0 6.14453,-3.642579 5.0507621,5.0507621 0 0 0 -3.64062,-6.144531 5.0507621,5.0507621 0 0 0 -1.31055,-0.15625 z M 79.115234,42.033203 a 5.0507617,5.0507617 0 0 0 -4.835937,3.798828 5.0507617,5.0507617 0 0 0 3.642578,6.144531 5.0507617,5.0507617 0 0 0 6.144531,-3.640624 5.0507617,5.0507617 0 0 0 -3.642578,-6.146485 5.0507617,5.0507617 0 0 0 -1.308594,-0.15625 z M 1215.6504,89.238281 a 5.0507618,5.0507618 0 0 0 -4.8359,3.798828 5.0507618,5.0507618 0 0 0 3.6425,6.144532 5.0507618,5.0507618 0 0 0 6.1446,-3.642579 5.0507618,5.0507618 0 0 0 -3.6426,-6.144531 5.0507618,5.0507618 0 0 0 -1.3086,-0.15625 z M 436.99414,125.75977 a 5.0507616,5.0507616 0 0 0 -4.83594,3.79882 5.0507616,5.0507616 0 0 0 3.64258,6.14453 5.0507616,5.0507616 0 0 0 6.14453,-3.64062 5.0507616,5.0507616 0 0 0 -3.64258,-6.14648 5.0507616,5.0507616 0 0 0 -1.30859,-0.15625 z m 576.17186,51.77929 a 5.0507616,5.0507616 0 0 0 -4.8359,3.79883 5.0507616,5.0507616 0 0 0 3.6426,6.14453 5.0507616,5.0507616 0 0 0 6.1445,-3.64258 5.0507616,5.0507616 0 0 0 -3.6426,-6.14453 5.0507616,5.0507616 0 0 0 -1.3086,-0.15625 z m -478.56248,54.15235 a 5.0507618,5.0507618 0 0 0 -4.83594,3.79882 5.0507618,5.0507618 0 0 0 3.64258,6.14454 5.0507618,5.0507618 0 0 0 6.14453,-3.64063 5.0507618,5.0507618 0 0 0 -3.64258,-6.14453 5.0507618,5.0507618 0 0 0 -1.30859,-0.1582 z m -778.65625,36.52148 a 5.0507618,5.0507618 0 0 0 -4.83594,3.79883 5.0507618,5.0507618 0 0 0 3.64258,6.14648 5.0507618,5.0507618 0 0 0 6.14453,-3.64258 5.0507618,5.0507618 0 0 0 -3.64063,-6.14453 5.0507618,5.0507618 0 0 0 -1.31054,-0.1582 z m 1136.53515,47.20508 a 5.0507618,5.0507618 0 0 0 -4.83594,3.79883 5.0507618,5.0507618 0 0 0 3.64258,6.14453 5.0507618,5.0507618 0 0 0 6.14453,-3.64063 5.0507618,5.0507618 0 0 0 -3.64062,-6.14453 5.0507618,5.0507618 0 0 0 -1.31055,-0.1582 z m -560.36328,4.57422 a 5.0507615,5.0507615 0 0 0 -4.83594,3.79883 5.0507615,5.0507615 0 0 0 3.64258,6.14453 5.0507615,5.0507615 0 0 0 6.14453,-3.64063 5.0507615,5.0507615 0 0 0 -3.64062,-6.14648 5.0507615,5.0507615 0 0 0 -1.31055,-0.15625 z m 357.87891,83.72656 a 5.050762,5.050762 0 0 0 -4.83399,3.79883 5.050762,5.050762 0 0 0 3.64063,6.14453 5.050762,5.050762 0 0 0 6.14453,-3.64063 5.050762,5.050762 0 0 0 -3.64063,-6.14648 5.050762,5.050762 0 0 0 -1.31054,-0.15625 z m -478.5625,54.1543 a 5.0507618,5.0507618 0 0 0 -4.83399,3.79883 5.0507618,5.0507618 0 0 0 3.64063,6.14453 5.0507618,5.0507618 0 0 0 6.14453,-3.64258 5.0507618,5.0507618 0 0 0 -3.64063,-6.14453 5.0507618,5.0507618 0 0 0 -1.31054,-0.15625 z m 576.17187,51.77734 a 5.050761,5.050761 0 0 0 -4.83398,3.79883 5.050761,5.050761 0 0 0 3.64062,6.14453 5.050761,5.050761 0 0 0 6.14453,-3.64063 5.050761,5.050761 0 0 0 -3.64062,-6.14453 5.050761,5.050761 0 0 0 -1.31055,-0.1582 z M 8.9511719,546.17188 a 5.0507619,5.0507619 0 0 0 -4.8339844,3.79882 5.0507619,5.0507619 0 0 0 3.640625,6.14649 5.0507619,5.0507619 0 0 0 6.1445315,-3.64258 5.0507619,5.0507619 0 0 0 -3.640625,-6.14453 5.0507619,5.0507619 0 0 0 -1.3105471,-0.1582 z M 1145.4863,593.37695 a 5.0507622,5.0507622 0 0 0 -4.834,3.79883 5.0507622,5.0507622 0 0 0 3.6407,6.14453 5.0507622,5.0507622 0 0 0 6.1445,-3.64062 5.0507622,5.0507622 0 0 0 -3.6406,-6.14453 5.0507622,5.0507622 0 0 0 -1.3106,-0.15821 z m -92.9609,131.92383 a 5.0507618,5.0507618 0 0 0 -4.8359,3.79883 5.0507618,5.0507618 0 0 0 3.6425,6.14453 5.0507618,5.0507618 0 0 0 6.1446,-3.64258 5.0507618,5.0507618 0 0 0 -3.6426,-6.14453 5.0507618,5.0507618 0 0 0 -1.3086,-0.15625 z m -588.08595,10.53125 a 5.0507618,5.0507618 0 0 0 -4.83398,3.79883 5.0507618,5.0507618 0 0 0 3.64062,6.14453 5.0507618,5.0507618 0 0 0 6.14649,-3.64258 5.0507618,5.0507618 0 0 0 -3.64258,-6.14453 5.0507618,5.0507618 0 0 0 -1.31055,-0.15625 z m 264.91797,215.64844 a 5.0507618,5.0507618 0 0 0 -4.83398,3.79883 5.0507618,5.0507618 0 0 0 3.64062,6.14453 5.0507618,5.0507618 0 0 0 6.14453,-3.64063 5.0507618,5.0507618 0 0 0 -3.64062,-6.14648 5.0507618,5.0507618 0 0 0 -1.31055,-0.15625 z"
       style="opacity:1;fill:#00ffcc;fill-opacity:1;stroke:none;stroke-width:18.8976;stroke-linejoin:bevel;paint-order:stroke fill markers"
       clip-path="url(#clipPath1066)"
       id="path1056" />
    <path
       transform="scale(0.26458333)"
       d="m -405.05469,724.4375 c -34.4408,-0.1052 -67.19299,3.80205 -97.80273,12.94531 V 1065.7148 H 1417.1426 V 804.14453 C 1268.1135,735.89045 1059.3961,782.95635 888.93359,789.93945 714.74454,797.0752 549.77797,880.16041 375.77734,890.95508 132.95156,906.01954 -173.96063,725.1434 -405.05469,724.4375 Z"
       style="fill:url(#radialGradient857);fill-opacity:1;stroke:none;stroke-width:0.999999px;stroke-linecap:butt;stroke-linejoin:miter;stroke-opacity:1"
       id="path835" />
  </g>
</svg>
