<?xml version="1.0" encoding="UTF-8" standalone="no"?>
<svg
   xmlns:dc="http://purl.org/dc/elements/1.1/"
   xmlns:cc="http://creativecommons.org/ns#"
   xmlns:rdf="http://www.w3.org/1999/02/22-rdf-syntax-ns#"
   xmlns:svg="http://www.w3.org/2000/svg"
   xmlns="http://www.w3.org/2000/svg"
   xmlns:sodipodi="http://sodipodi.sourceforge.net/DTD/sodipodi-0.dtd"
   xmlns:inkscape="http://www.inkscape.org/namespaces/inkscape"
   sodipodi:docname="chart.svg"
   inkscape:version="1.0 (4035a4fb49, 2020-05-01)"
   id="svg870"
   version="1.1"
   viewBox="0 0 152.27368 155.73233"
   height="155.73233mm"
   width="152.27368mm">
  <defs
     id="defs864">
    <filter
       id="filter1622"
       inkscape:label="Greyscale"
       style="color-interpolation-filters:sRGB">
      <feColorMatrix
         id="feColorMatrix1620"
         values="0.21 0.72 0.072 0 0 0.21 0.72 0.072 0 0 0.21 0.72 0.072 0 0 0 0 0 1 0 " />
    </filter>
  </defs>
  <sodipodi:namedview
     inkscape:window-maximized="1"
     inkscape:window-y="-6"
     inkscape:window-x="-6"
     inkscape:window-height="1018"
     inkscape:window-width="1920"
     showgrid="false"
     inkscape:document-rotation="0"
     inkscape:current-layer="layer1"
     inkscape:document-units="mm"
     inkscape:cy="58.163299"
     inkscape:cx="703.39203"
     inkscape:zoom="0.35"
     inkscape:pageshadow="2"
     inkscape:pageopacity="0.0"
     borderopacity="1.0"
     bordercolor="#666666"
     pagecolor="#ffffff"
     id="base" />
  <metadata
     id="metadata867">
    <rdf:RDF>
      <cc:Work
         rdf:about="">
        <dc:format>image/svg+xml</dc:format>
        <dc:type
           rdf:resource="http://purl.org/dc/dcmitype/StillImage" />
        <dc:title></dc:title>
      </cc:Work>
    </rdf:RDF>
  </metadata>
  <g
     transform="translate(275.30819,-25.432391)"
     id="layer1"
     inkscape:groupmode="layer"
     inkscape:label="Layer 1">
    <g
       inkscape:export-ydpi="96"
       inkscape:export-xdpi="96"
       style="fill:#000080;stroke:none"
       transform="matrix(6.9215307,0,0,6.9215307,-282.22972,20.241263)"
       id="g934">
      <path
         style="fill:#000080;stroke:none"
         d="M 6.588,12.31 A 1.045,1.045 0 0 1 7,13.087 v 7.738 a 1.079,1.079 0 0 1 -0.41,0.786 l -2.18,1.521 a 0.773,0.773 0 0 1 -0.82,0 L 1.41,21.611 A 1.075,1.075 0 0 1 1,20.825 V 13.087 A 1.045,1.045 0 0 1 1.416,12.31 l 2.168,-1.446 a 0.816,0.816 0 0 1 0.832,0 z"
         fill="none"
         stroke="#000000"
         stroke-linecap="round"
         stroke-linejoin="round"
         id="path910" />
      <path
         style="fill:#000080;stroke:none"
         d="M 4.004,14.587 1.12,12.664"
         fill="none"
         stroke="#000000"
         stroke-linecap="round"
         stroke-linejoin="round"
         id="path912" />
      <path
         style="fill:#000080;stroke:none"
         d="M 6.888,12.664 4.004,14.587"
         fill="none"
         stroke="#000000"
         stroke-linecap="round"
         stroke-linejoin="round"
         id="path914" />
      <path
         style="fill:#000080;stroke:none"
         d="m 4.004,14.587 v 8.635"
         fill="none"
         stroke="#000000"
         stroke-linecap="round"
         stroke-linejoin="round"
         id="path916" />
      <path
         style="fill:#000080;stroke:none"
         d="M 14.588,6.81 A 1.045,1.045 0 0 1 15,7.587 v 13.238 a 1.079,1.079 0 0 1 -0.41,0.786 l -2.18,1.521 a 0.773,0.773 0 0 1 -0.82,0 L 9.41,21.611 A 1.075,1.075 0 0 1 9,20.825 V 7.587 A 1.045,1.045 0 0 1 9.42,6.81 l 2.168,-1.446 a 0.816,0.816 0 0 1 0.832,0 z"
         fill="none"
         stroke="#000000"
         stroke-linecap="round"
         stroke-linejoin="round"
         id="path918" />
      <path
         style="fill:#000080;stroke:none"
         d="M 12.004,9.087 9.12,7.164"
         fill="none"
         stroke="#000000"
         stroke-linecap="round"
         stroke-linejoin="round"
         id="path920" />
      <path
         style="fill:#000080;stroke:none"
         d="M 14.888,7.164 12.004,9.087"
         fill="none"
         stroke="#000000"
         stroke-linecap="round"
         stroke-linejoin="round"
         id="path922" />
      <path
         style="fill:#000080;stroke:none"
         d="M 12.004,9.087 V 23.238"
         fill="none"
         stroke="#000000"
         stroke-linecap="round"
         stroke-linejoin="round"
         id="path924" />
      <path
         style="fill:#000080;stroke:none"
         d="M 22.588,2.31 A 1.045,1.045 0 0 1 23,3.087 v 17.738 a 1.079,1.079 0 0 1 -0.41,0.786 l -2.18,1.521 a 0.773,0.773 0 0 1 -0.82,0 L 17.41,21.611 A 1.075,1.075 0 0 1 17,20.825 V 3.087 A 1.045,1.045 0 0 1 17.416,2.31 l 2.172,-1.446 a 0.816,0.816 0 0 1 0.832,0 z"
         fill="none"
         stroke="#000000"
         stroke-linecap="round"
         stroke-linejoin="round"
         id="path926" />
      <path
         style="fill:#000080;stroke:none"
         d="M 20.004,4.587 17.12,2.664"
         fill="none"
         stroke="#000000"
         stroke-linecap="round"
         stroke-linejoin="round"
         id="path928" />
      <path
         style="fill:#000080;stroke:none"
         d="M 22.888,2.664 20.004,4.587"
         fill="none"
         stroke="#000000"
         stroke-linecap="round"
         stroke-linejoin="round"
         id="path930" />
      <path
         style="fill:#000080;stroke:none"
         d="M 20.004,4.587 V 23.238"
         fill="none"
         stroke="#000000"
         stroke-linecap="round"
         stroke-linejoin="round"
         id="path932" />
    </g>
  </g>
</svg>
