<?xml version="1.0" encoding="UTF-8" standalone="no"?>
<svg
   xmlns:dc="http://purl.org/dc/elements/1.1/"
   xmlns:cc="http://creativecommons.org/ns#"
   xmlns:rdf="http://www.w3.org/1999/02/22-rdf-syntax-ns#"
   xmlns:svg="http://www.w3.org/2000/svg"
   xmlns="http://www.w3.org/2000/svg"
   xmlns:sodipodi="http://sodipodi.sourceforge.net/DTD/sodipodi-0.dtd"
   xmlns:inkscape="http://www.inkscape.org/namespaces/inkscape"
   sodipodi:docname="cross.svg"
   inkscape:version="1.0 (4035a4fb49, 2020-05-01)"
   id="svg8"
   version="1.1"
   viewBox="0 0 210 297"
   height="297mm"
   width="210mm">
  <defs
     id="defs2" />
  <sodipodi:namedview
     inkscape:window-maximized="1"
     inkscape:window-y="-6"
     inkscape:window-x="-6"
     inkscape:window-height="1018"
     inkscape:window-width="1920"
     showborder="false"
     showgrid="false"
     inkscape:document-rotation="0"
     inkscape:current-layer="layer1"
     inkscape:document-units="mm"
     inkscape:cy="451.54773"
     inkscape:cx="439.65627"
     inkscape:zoom="0.49497475"
     inkscape:pageshadow="2"
     inkscape:pageopacity="0"
     borderopacity="1.0"
     bordercolor="#666666"
     pagecolor="#171717"
     id="base" />
  <metadata
     id="metadata5">
    <rdf:RDF>
      <cc:Work
         rdf:about="">
        <dc:format>image/svg+xml</dc:format>
        <dc:type
           rdf:resource="http://purl.org/dc/dcmitype/StillImage" />
        <dc:title></dc:title>
      </cc:Work>
    </rdf:RDF>
  </metadata>
  <g
     id="layer1"
     inkscape:groupmode="layer"
     inkscape:label="Layer 1">
    <path
       transform="scale(0.26458333)"
       d="M 905.89062 -59.476562 L 905.18164 -58.767578 L 900.94531 -54.523438 L 900.23633 -53.814453 L 901.64648 -52.404297 L 902.35547 -53.113281 L 906.59961 -57.349609 L 907.30859 -58.058594 L 905.89062 -59.476562 z M 897.4082 -50.986328 L 896.70117 -50.277344 L 892.45508 -46.041016 L 891.74609 -45.332031 L 893.16406 -43.914062 L 893.87305 -44.623047 L 898.10938 -48.867188 L 898.81836 -49.576172 L 897.4082 -50.986328 z M 888.91992 -42.505859 L 888.21094 -41.796875 L 883.97461 -37.550781 L 883.26562 -36.84375 L 884.67578 -35.433594 L 885.38477 -36.142578 L 889.62891 -40.378906 L 890.33789 -41.087891 L 888.91992 -42.505859 z M 880.4375 -34.015625 L 879.72852 -33.314453 L 875.48438 -29.070312 L 874.77539 -28.361328 L 876.19336 -26.943359 L 876.90234 -27.652344 L 881.13867 -31.896484 L 881.84766 -32.605469 L 880.4375 -34.015625 z M 871.94922 -25.533203 L 871.24023 -24.826172 L 867.00391 -20.580078 L 866.29492 -19.878906 L 867.70508 -18.462891 L 868.41211 -19.169922 L 872.6582 -23.408203 L 873.36523 -24.117188 L 871.94922 -25.533203 z M 863.4668 -17.044922 L 862.75781 -16.34375 L 858.51367 -12.099609 L 857.80469 -11.390625 L 859.22266 -9.9726562 L 859.93164 -10.681641 L 864.17578 -14.925781 L 864.87695 -15.634766 L 863.4668 -17.044922 z M 854.97852 -8.5625 L 854.26953 -7.8535156 L 850.03125 -3.609375 L 849.32422 -2.9082031 L 850.74023 -1.4902344 L 851.44141 -2.1992188 L 855.68555 -6.4453125 L 856.39453 -7.1464844 L 854.97852 -8.5625 z M 846.49609 -0.07421875 L 845.78711 0.62695312 L 841.54297 4.8710938 L 840.83398 5.5800781 L 842.25195 6.9902344 L 842.96094 6.2890625 L 847.20508 2.0449219 L 847.90625 1.3359375 L 846.49609 -0.07421875 z M 838.00781 8.4082031 L 837.30469 9.1171875 L 833.06055 13.361328 L 832.35156 14.0625 L 833.76953 15.480469 L 834.4707 14.771484 L 838.71484 10.527344 L 839.42383 9.8261719 L 838.00781 8.4082031 z M 829.52539 16.896484 L 828.81641 17.597656 L 824.57227 21.84375 L 823.87109 22.550781 L 825.28125 23.960938 L 825.98828 23.259766 L 830.23438 19.015625 L 830.93555 18.306641 L 829.52539 16.896484 z M 821.03516 25.378906 L 820.33398 26.087891 L 816.08984 30.332031 L 815.38086 31.033203 L 816.79883 32.451172 L 817.5 31.742188 L 821.74414 27.498047 L 822.45312 26.796875 L 821.03516 25.378906 z M 812.55469 33.861328 L 811.8457 34.570312 L 807.60156 38.814453 L 806.90039 39.523438 L 808.30859 40.931641 L 809.01758 40.230469 L 813.26367 35.986328 L 813.96484 35.277344 L 812.55469 33.861328 z M 804.06445 42.349609 L 803.36328 43.058594 L 799.11914 47.294922 L 798.41016 48.003906 L 799.82812 49.421875 L 800.5293 48.712891 L 804.77344 44.46875 L 805.48242 43.767578 L 804.06445 42.349609 z M 795.58398 50.832031 L 794.875 51.541016 L 790.63086 55.785156 L 789.92773 56.494141 L 791.33789 57.904297 L 792.04688 57.203125 L 796.29102 52.957031 L 797 52.248047 L 795.58398 50.832031 z M 787.09375 59.320312 L 786.39258 60.029297 L 782.14844 64.267578 L 781.43945 64.974609 L 782.85742 66.392578 L 783.56641 65.683594 L 787.80273 61.439453 L 788.51172 60.730469 L 787.09375 59.320312 z M 778.61133 67.802734 L 777.9043 68.511719 L 773.6582 72.755859 L 772.95703 73.464844 L 774.36719 74.875 L 775.07617 74.166016 L 779.32031 69.927734 L 780.0293 69.220703 L 778.61133 67.802734 z M 770.13086 76.291016 L 769.42188 77 L 765.17773 81.238281 L 764.46875 81.947266 L 765.88672 83.363281 L 766.59375 82.654297 L 770.83203 78.410156 L 771.54102 77.701172 L 770.13086 76.291016 z M 761.64062 84.773438 L 760.93164 85.482422 L 756.69531 89.726562 L 755.98633 90.435547 L 757.39648 91.845703 L 758.10547 91.136719 L 762.34961 86.900391 L 763.05859 86.191406 L 761.64062 84.773438 z M 753.16016 93.263672 L 752.45117 93.970703 L 748.20703 98.208984 L 747.49805 98.917969 L 748.91406 100.33398 L 749.62305 99.626953 L 753.86133 95.380859 L 754.57031 94.671875 L 753.16016 93.263672 z M 744.66992 101.74414 L 743.96094 102.45312 L 739.72461 106.69727 L 739.01562 107.40625 L 740.42578 108.81641 L 741.13477 108.10742 L 745.37891 103.87109 L 746.08789 103.16211 L 744.66992 101.74414 z M 736.1875 110.23438 L 735.48047 110.94336 L 731.23438 115.17969 L 730.52734 115.88867 L 731.94336 117.30469 L 732.65234 116.59766 L 736.89062 112.35156 L 737.59766 111.64453 L 736.1875 110.23438 z M 727.69922 118.71484 L 726.99023 119.42383 L 722.75391 123.66797 L 722.04492 124.37695 L 723.45508 125.78711 L 724.16406 125.07812 L 728.4082 120.8418 L 729.11719 120.13281 L 727.69922 118.71484 z M 719.2168 127.20508 L 718.50977 127.90625 L 714.26367 132.15039 L 713.55469 132.85938 L 714.97266 134.27734 L 715.68164 133.56836 L 719.91797 129.32422 L 720.62695 128.61523 L 719.2168 127.20508 z M 710.72852 135.68555 L 710.01953 136.39453 L 705.7832 140.64062 L 705.07422 141.3418 L 706.48438 142.75781 L 707.19336 142.04883 L 711.4375 137.8125 L 712.14648 137.10352 L 710.72852 135.68555 z M 702.24609 144.17578 L 701.53711 144.87695 L 697.29297 149.12109 L 696.58398 149.83008 L 698.00195 151.24805 L 698.71094 150.53906 L 702.95508 146.29492 L 703.65625 145.58594 L 702.24609 144.17578 z M 693.75781 152.6582 L 693.04883 153.36523 L 688.8125 157.61133 L 688.10352 158.3125 L 689.51953 159.72852 L 690.2207 159.02148 L 694.4668 154.77539 L 695.17383 154.07422 L 693.75781 152.6582 z M 685.27539 161.14648 L 684.56641 161.84766 L 680.32227 166.0918 L 679.61328 166.80078 L 681.03125 168.21094 L 681.74023 167.50977 L 685.98438 163.26562 L 686.68555 162.55664 L 685.27539 161.14648 z M 676.78711 169.62891 L 676.08594 170.33789 L 671.83984 174.58203 L 671.13281 175.2832 L 672.54883 176.70117 L 673.25 175.99219 L 677.49414 171.74609 L 678.20312 171.04492 L 676.78711 169.62891 z M 668.30469 178.11719 L 667.5957 178.81836 L 663.35156 183.06445 L 662.65039 183.77148 L 664.06055 185.18164 L 664.76953 184.48047 L 669.01367 180.23633 L 669.71484 179.52734 L 668.30469 178.11719 z M 659.81641 186.59961 L 659.11328 187.30859 L 654.86914 191.55273 L 654.16016 192.25391 L 655.57812 193.67188 L 656.2793 192.96289 L 660.52344 188.71875 L 661.23242 188.01758 L 659.81641 186.59961 z M 651.33398 195.08203 L 650.625 195.78906 L 646.38086 200.03516 L 645.67969 200.74219 L 647.08984 202.15234 L 647.79688 201.45117 L 652.04297 197.20703 L 652.74414 196.49805 L 651.33398 195.08203 z M 642.84375 203.57031 L 642.14258 204.2793 L 637.89844 208.51562 L 637.18945 209.22461 L 638.60742 210.64258 L 639.30859 209.93359 L 643.55273 205.68945 L 644.26172 204.98828 L 642.84375 203.57031 z M 634.36328 212.05273 L 633.6543 212.76172 L 629.41016 217.00586 L 628.70898 217.71484 L 630.11719 219.12305 L 630.82617 218.42188 L 635.07227 214.17773 L 635.7793 213.46875 L 634.36328 212.05273 z M 625.87305 220.54102 L 625.17188 221.25 L 620.92773 225.48633 L 620.21875 226.19531 L 621.63672 227.61328 L 622.3457 226.9043 L 626.58203 222.66016 L 627.29102 221.95117 L 625.87305 220.54102 z M 617.39258 229.02344 L 616.68359 229.73242 L 612.43945 233.97656 L 611.73633 234.68555 L 613.14648 236.0957 L 613.85547 235.38672 L 618.09961 231.14844 L 618.80859 230.44141 L 617.39258 229.02344 z M 608.91016 237.51172 L 608.20117 238.2207 L 603.95703 242.45898 L 603.24805 243.16602 L 604.66602 244.58398 L 605.375 243.875 L 609.61133 239.63086 L 610.32031 238.92188 L 608.91016 237.51172 z M 600.41992 245.99414 L 599.71289 246.70312 L 595.47461 250.94727 L 594.76562 251.65625 L 596.17578 253.06641 L 596.88477 252.35742 L 601.12891 248.11914 L 601.83789 247.41211 L 600.41992 245.99414 z M 591.93945 254.48242 L 591.23047 255.19141 L 586.98633 259.42969 L 586.27734 260.13867 L 587.69531 261.55469 L 588.40234 260.8457 L 592.64062 256.60156 L 593.34961 255.89258 L 591.93945 254.48242 z M 583.44922 262.96484 L 582.74023 263.67383 L 578.50391 267.91797 L 577.79492 268.62695 L 579.20508 270.03711 L 579.91406 269.32812 L 584.1582 265.0918 L 584.86719 264.38281 L 583.44922 262.96484 z M 574.96875 271.45508 L 574.25977 272.16211 L 570.01562 276.40039 L 569.30664 277.10938 L 570.72266 278.52539 L 571.43164 277.81836 L 575.66992 273.57227 L 576.37891 272.86328 L 574.96875 271.45508 z M 566.47852 279.93555 L 565.76953 280.64453 L 561.5332 284.88867 L 560.82422 285.59766 L 562.23438 287.00781 L 562.94336 286.29883 L 567.1875 282.0625 L 567.89648 281.35352 L 566.47852 279.93555 z M 557.99609 288.42578 L 557.28906 289.12695 L 553.04297 293.37109 L 552.33594 294.08008 L 553.75195 295.49609 L 554.46094 294.78906 L 558.69922 290.54297 L 559.40625 289.83594 L 557.99609 288.42578 z M 549.50781 296.90625 L 548.79883 297.61523 L 544.5625 301.85938 L 543.85352 302.56055 L 545.27148 303.97852 L 545.97266 303.26953 L 550.2168 299.0332 L 550.92578 298.32422 L 549.50781 296.90625 z M 541.02539 305.39648 L 540.31836 306.09766 L 536.07227 310.3418 L 535.36328 311.05078 L 536.78125 312.46875 L 537.49023 311.75977 L 541.73438 307.51562 L 542.43555 306.80664 L 541.02539 305.39648 z M 294.45312 551.96094 L 294.24219 552.17188 L 290.00586 556.41797 L 289.29688 557.12695 L 290.70703 558.53516 L 291.41406 557.82812 L 295.66016 553.58984 L 295.87109 553.37891 A 169.70562 169.70562 0 0 1 294.45312 551.96094 z M 286.46875 559.95312 L 285.75977 560.66211 L 281.51562 564.89844 L 280.80664 565.60742 L 282.22461 567.02539 L 282.93359 566.31641 L 287.16992 562.07227 L 287.87891 561.36328 L 286.46875 559.95312 z M 277.98047 568.43555 L 277.27148 569.14453 L 273.0332 573.38867 L 272.32617 574.09766 L 273.73438 575.50781 L 274.44336 574.79883 L 278.68945 570.56055 L 279.39648 569.85156 L 277.98047 568.43555 z M 269.49805 576.92383 L 268.78906 577.63281 L 264.54492 581.86914 L 263.83594 582.57812 L 265.25391 583.99609 L 265.96289 583.28711 L 270.19922 579.04297 L 270.9082 578.33398 L 269.49805 576.92383 z M 261.00977 585.40625 L 260.30078 586.11523 L 256.0625 590.35938 L 255.35352 591.06836 L 256.76367 592.47852 L 257.47266 591.76953 L 261.7168 587.53125 L 262.42578 586.82422 L 261.00977 585.40625 z M 252.52734 593.89453 L 251.81836 594.5957 L 247.57422 598.8418 L 246.86523 599.54883 L 248.2832 600.9668 L 248.99023 600.25781 L 253.22852 596.01367 L 253.9375 595.30469 L 252.52734 593.89453 z M 244.03711 602.37695 L 243.33008 603.08594 L 239.0918 607.33008 L 238.38281 608.03125 L 239.79297 609.44922 L 240.50195 608.74023 L 244.74609 604.50391 L 245.45508 603.79492 L 244.03711 602.37695 z M 235.55664 610.86523 L 234.84766 611.56836 L 230.60352 615.8125 L 229.89453 616.52148 L 231.31055 617.9375 L 232.01953 617.22852 L 236.26562 612.98438 L 236.9668 612.27539 L 235.55664 610.86523 z M 227.06641 619.34766 L 226.35742 620.05664 L 222.12109 624.30078 L 221.41211 625.00195 L 222.83008 626.41992 L 223.53125 625.71094 L 227.77539 621.4668 L 228.48438 620.76562 L 227.06641 619.34766 z M 218.58594 627.83789 L 217.87695 628.53906 L 213.63281 632.7832 L 212.92383 633.49219 L 214.33984 634.90234 L 215.04883 634.20117 L 219.29297 629.95508 L 219.99414 629.24609 L 218.58594 627.83789 z M 210.0957 636.31836 L 209.39453 637.02734 L 205.15039 641.27148 L 204.44141 641.97266 L 205.85938 643.39062 L 206.56055 642.68164 L 210.80469 638.4375 L 211.51367 637.73633 L 210.0957 636.31836 z M 201.61328 644.80859 L 200.90625 645.50977 L 196.66016 649.75391 L 195.95898 650.46289 L 197.36914 651.87305 L 198.07812 651.17188 L 202.32227 646.92578 L 203.02344 646.21875 L 201.61328 644.80859 z M 193.125 653.28906 L 192.42383 653.99805 L 188.17969 658.24219 L 187.4707 658.94531 L 188.88867 660.36133 L 189.58984 659.65234 L 193.83398 655.4082 L 194.54297 654.70703 L 193.125 653.28906 z M 184.64258 661.77148 L 183.93359 662.48047 L 179.68945 666.72461 L 178.98828 667.43359 L 180.39844 668.84375 L 181.10742 668.14258 L 185.35156 663.89844 L 186.05273 663.18945 L 184.64258 661.77148 z M 176.1543 670.26172 L 175.45312 670.96875 L 171.20898 675.20703 L 170.5 675.91602 L 171.91602 677.33203 L 172.61719 676.625 L 176.86328 672.37891 L 177.57227 671.67773 L 176.1543 670.26172 z M 167.67188 678.74219 L 166.96289 679.45117 L 162.71875 683.69531 L 162.01758 684.4043 L 163.42773 685.81445 L 164.13672 685.11328 L 168.38086 680.86914 L 169.08984 680.16016 L 167.67188 678.74219 z M 159.18359 687.23242 L 158.48242 687.94141 L 154.23633 692.17773 L 153.5293 692.88672 L 154.94531 694.30273 L 155.6543 693.5957 L 159.89258 689.34961 L 160.59961 688.64258 L 159.18359 687.23242 z M 150.70117 695.71289 L 149.99219 696.42188 L 145.74805 700.66602 L 145.04688 701.375 L 146.45703 702.78516 L 147.16602 702.07617 L 151.41016 697.83984 L 152.11914 697.13086 L 150.70117 695.71289 z M 142.21875 704.20312 L 141.51172 704.91211 L 137.26562 709.14844 L 136.55664 709.85742 L 137.97461 711.27539 L 138.68359 710.56641 L 142.91992 706.32227 L 143.62891 705.61328 L 142.21875 704.20312 z M 133.73047 712.68359 L 133.02148 713.39258 L 128.78516 717.63867 L 128.07617 718.3457 L 129.48633 719.75586 L 130.19531 719.04688 L 134.43945 714.81055 L 135.14844 714.10156 L 133.73047 712.68359 z M 125.24805 721.17383 L 124.53906 721.88281 L 120.29492 726.11914 L 119.58594 726.82812 L 121.00391 728.24609 L 121.71289 727.53711 L 125.94922 723.29297 L 126.6582 722.58398 L 125.24805 721.17383 z M 116.75977 729.65625 L 116.05078 730.36328 L 111.81445 734.60938 L 111.10547 735.31836 L 112.51562 736.72656 L 113.22266 736.01953 L 117.46875 731.78125 L 118.17578 731.07227 L 116.75977 729.65625 z M 108.27734 738.14453 L 107.56836 738.85352 L 103.32422 743.08984 L 102.61523 743.79883 L 104.0332 745.2168 L 104.74219 744.50781 L 108.97852 740.26367 L 109.6875 739.55469 L 108.27734 738.14453 z M 99.789062 746.62695 L 99.080078 747.33594 L 94.841797 751.58008 L 94.134766 752.28906 L 95.542969 753.69922 L 96.251953 752.99023 L 100.49609 748.75195 L 101.20508 748.04297 L 99.789062 746.62695 z M 91.306641 755.11523 L 90.597656 755.81641 L 86.353516 760.06055 L 85.644531 760.76953 L 87.0625 762.1875 L 87.771484 761.47852 L 92.007812 757.23438 L 92.716797 756.52539 L 91.306641 755.11523 z M 82.818359 763.59766 L 82.109375 764.30664 L 77.871094 768.55078 L 77.162109 769.25195 L 78.572266 770.66992 L 79.28125 769.96094 L 83.525391 765.72266 L 84.234375 765.01562 L 82.818359 763.59766 z M 74.335938 772.08594 L 73.626953 772.78711 L 69.382812 777.0332 L 68.673828 777.74023 L 70.091797 779.1582 L 70.798828 778.44922 L 75.044922 774.20508 L 75.746094 773.49609 L 74.335938 772.08594 z M 65.845703 780.56836 L 65.138672 781.27734 L 60.900391 785.52148 L 60.191406 786.22266 L 61.609375 787.64062 L 62.310547 786.93164 L 66.554688 782.6875 L 67.263672 781.98633 L 65.845703 780.56836 z M 57.365234 789.05664 L 56.65625 789.75977 L 52.412109 794.00391 L 51.703125 794.71289 L 53.119141 796.12109 L 53.828125 795.41992 L 58.074219 791.17578 L 58.775391 790.4668 L 57.365234 789.05664 z M 48.875 797.53906 L 48.173828 798.24805 L 43.929688 802.49219 L 43.220703 803.19336 L 44.638672 804.61133 L 45.339844 803.90234 L 49.583984 799.6582 L 50.292969 798.95703 L 48.875 797.53906 z M 40.394531 806.0293 L 39.685547 806.73047 L 35.441406 810.97461 L 34.738281 811.68359 L 36.148438 813.09375 L 36.857422 812.39258 L 41.101562 808.14648 L 41.802734 807.43945 L 40.394531 806.0293 z M 31.904297 814.50977 L 31.203125 815.21875 L 26.958984 819.46289 L 26.25 820.16406 L 27.667969 821.58203 L 28.369141 820.87305 L 32.613281 816.62891 L 33.322266 815.92773 L 31.904297 814.50977 z M 23.421875 822.99219 L 22.714844 823.70117 L 18.46875 827.94531 L 17.767578 828.6543 L 19.177734 830.06445 L 19.886719 829.36328 L 24.130859 825.11719 L 24.839844 824.41016 L 23.421875 822.99219 z M 14.933594 831.48047 L 14.232422 832.18945 L 9.9882812 836.42773 L 9.2792969 837.13672 L 10.697266 838.55273 L 11.404297 837.84375 L 15.642578 833.59961 L 16.351562 832.89844 L 14.933594 831.48047 z M 6.4511719 839.96289 L 5.7421875 840.67188 L 1.4980469 844.91602 L 0.796875 845.625 L 2.2070312 847.03516 L 2.9160156 846.33398 L 7.1601562 842.08984 L 7.8691406 841.38086 L 6.4511719 839.96289 z M -2.0292969 848.45312 L -2.7382812 849.16016 L -6.9824219 853.39844 L -7.6914062 854.10742 L -6.2753906 855.52344 L -5.5664062 854.81641 L -1.328125 850.57031 L -0.61914062 849.86133 L -2.0292969 848.45312 z M -10.519531 856.93359 L -11.228516 857.64258 L -15.464844 861.88672 L -16.173828 862.5957 L -14.763672 864.00586 L -14.054688 863.29688 L -9.8105469 859.06055 L -9.1015625 858.35156 L -10.519531 856.93359 z M -19.001953 865.42383 L -19.708984 866.13281 L -23.955078 870.36914 L -24.662109 871.07812 L -23.246094 872.49414 L -22.537109 871.78711 L -18.298828 867.54102 L -17.591797 866.83398 L -19.001953 865.42383 z M -27.490234 873.9043 L -28.199219 874.61328 L -32.435547 878.85742 L -33.144531 879.56641 L -31.734375 880.97656 L -31.025391 880.26758 L -26.78125 876.03125 L -26.072266 875.32227 L -27.490234 873.9043 z M -35.972656 882.39453 L -36.679688 883.10352 L -40.925781 887.33984 L -41.634766 888.04883 L -40.216797 889.4668 L -39.507812 888.75781 L -35.271484 884.51367 L -34.5625 883.80469 L -35.972656 882.39453 z M -44.460938 890.87695 L -45.169922 891.58398 L -49.40625 895.83008 L -50.115234 896.53711 L -48.705078 897.94727 L -47.996094 897.23828 L -43.751953 893.00195 L -43.042969 892.29297 L -44.460938 890.87695 z M -52.943359 899.36523 L -53.652344 900.06641 L -57.896484 904.31055 L -58.605469 905.01953 L -57.1875 906.4375 L -56.478516 905.72852 L -52.242188 901.48438 L -51.533203 900.77539 L -52.943359 899.36523 z M -61.431641 907.84766 L -62.140625 908.55469 L -66.378906 912.80078 L -67.085938 913.50195 L -65.675781 914.91797 L -64.96875 914.21094 L -60.722656 909.97266 L -60.015625 909.26367 L -61.431641 907.84766 z M -69.914062 916.33594 L -70.623047 917.03711 L -74.867188 921.28125 L -75.576172 921.99023 L -74.158203 923.4082 L -73.449219 922.69922 L -69.205078 918.45508 L -68.503906 917.74609 L -69.914062 916.33594 z "
       style="color:#000000;font-style:normal;font-variant:normal;font-weight:normal;font-stretch:normal;font-size:medium;line-height:normal;font-family:sans-serif;font-variant-ligatures:normal;font-variant-position:normal;font-variant-caps:normal;font-variant-numeric:normal;font-variant-alternates:normal;font-variant-east-asian:normal;font-feature-settings:normal;font-variation-settings:normal;text-indent:0;text-align:start;text-decoration:none;text-decoration-line:none;text-decoration-style:solid;text-decoration-color:#000000;letter-spacing:normal;word-spacing:normal;text-transform:none;writing-mode:lr-tb;direction:ltr;text-orientation:mixed;dominant-baseline:auto;baseline-shift:baseline;text-anchor:start;white-space:normal;shape-padding:0;shape-margin:0;inline-size:0;clip-rule:nonzero;display:inline;overflow:visible;visibility:visible;isolation:auto;mix-blend-mode:normal;color-interpolation:sRGB;color-interpolation-filters:linearRGB;solid-color:#000000;solid-opacity:1;vector-effect:none;fill:#00ffcc;fill-opacity:1;fill-rule:nonzero;stroke:none;stroke-width:2;stroke-linecap:square;stroke-linejoin:miter;stroke-miterlimit:4;stroke-dasharray:6, 6;stroke-dashoffset:20;stroke-opacity:1;color-rendering:auto;image-rendering:auto;shape-rendering:auto;text-rendering:auto;enable-background:accumulate;stop-color:#000000"
       id="path1371" />
    <path
       transform="scale(0.26458333)"
       d="M -74.158203 -58.058594 L -75.576172 -56.648438 L -74.867188 -55.939453 L -70.623047 -51.695312 L -69.914062 -50.986328 L -68.503906 -52.404297 L -69.205078 -53.113281 L -73.449219 -57.349609 L -74.158203 -58.058594 z M -65.675781 -49.576172 L -67.085938 -48.160156 L -66.378906 -47.451172 L -62.140625 -43.212891 L -61.431641 -42.505859 L -60.015625 -43.914062 L -60.722656 -44.623047 L -64.96875 -48.867188 L -65.675781 -49.576172 z M -57.1875 -41.087891 L -58.605469 -39.677734 L -57.896484 -38.96875 L -53.652344 -34.724609 L -52.943359 -34.015625 L -51.533203 -35.433594 L -52.242188 -36.142578 L -56.478516 -40.378906 L -57.1875 -41.087891 z M -48.705078 -32.605469 L -50.115234 -31.189453 L -49.40625 -30.480469 L -45.169922 -26.242188 L -44.460938 -25.533203 L -43.042969 -26.943359 L -43.751953 -27.652344 L -47.996094 -31.896484 L -48.705078 -32.605469 z M -40.216797 -24.117188 L -41.634766 -22.707031 L -40.925781 -21.998047 L -36.679688 -17.753906 L -35.972656 -17.044922 L -34.5625 -18.462891 L -35.271484 -19.169922 L -39.507812 -23.408203 L -40.216797 -24.117188 z M -31.734375 -15.634766 L -33.144531 -14.216797 L -32.435547 -13.509766 L -28.199219 -9.2714844 L -27.490234 -8.5625 L -26.072266 -9.9726562 L -26.78125 -10.681641 L -31.025391 -14.925781 L -31.734375 -15.634766 z M -23.246094 -7.1464844 L -24.662109 -5.7363281 L -23.955078 -5.0273438 L -19.708984 -0.78320312 L -19.001953 -0.07421875 L -17.591797 -1.4902344 L -18.298828 -2.1992188 L -22.537109 -6.4453125 L -23.246094 -7.1464844 z M -14.763672 1.3359375 L -16.173828 2.7539062 L -15.464844 3.4628906 L -11.228516 7.6992188 L -10.519531 8.4082031 L -9.1015625 6.9902344 L -9.8105469 6.2890625 L -14.054688 2.0449219 L -14.763672 1.3359375 z M -6.2753906 9.8261719 L -7.6914062 11.234375 L -6.9824219 11.943359 L -2.7382812 16.189453 L -2.0292969 16.896484 L -0.61914062 15.480469 L -1.328125 14.771484 L -5.5664062 10.527344 L -6.2753906 9.8261719 z M 2.2070312 18.306641 L 0.796875 19.724609 L 1.4980469 20.425781 L 5.7421875 24.669922 L 6.4511719 25.378906 L 7.8691406 23.960938 L 7.1601562 23.259766 L 2.9160156 19.015625 L 2.2070312 18.306641 z M 10.697266 26.796875 L 9.2792969 28.207031 L 9.9882812 28.914062 L 14.232422 33.160156 L 14.933594 33.861328 L 16.351562 32.451172 L 15.642578 31.742188 L 11.404297 27.498047 L 10.697266 26.796875 z M 19.177734 35.277344 L 17.767578 36.695312 L 18.46875 37.396484 L 22.714844 41.640625 L 23.421875 42.349609 L 24.839844 40.931641 L 24.130859 40.230469 L 19.886719 35.986328 L 19.177734 35.277344 z M 27.667969 43.767578 L 26.25 45.177734 L 26.958984 45.886719 L 31.203125 50.130859 L 31.904297 50.832031 L 33.322266 49.421875 L 32.613281 48.712891 L 28.369141 44.46875 L 27.667969 43.767578 z M 36.148438 52.248047 L 34.738281 53.666016 L 35.441406 54.367188 L 39.685547 58.611328 L 40.394531 59.320312 L 41.802734 57.904297 L 41.101562 57.203125 L 36.857422 52.957031 L 36.148438 52.248047 z M 44.638672 60.730469 L 43.220703 62.148438 L 43.929688 62.857422 L 48.173828 67.101562 L 48.875 67.802734 L 50.292969 66.392578 L 49.583984 65.683594 L 45.339844 61.439453 L 44.638672 60.730469 z M 53.119141 69.220703 L 51.703125 70.636719 L 52.412109 71.337891 L 56.65625 75.583984 L 57.365234 76.291016 L 58.775391 74.875 L 58.074219 74.166016 L 53.828125 69.927734 L 53.119141 69.220703 z M 61.609375 77.701172 L 60.191406 79.119141 L 60.900391 79.828125 L 65.138672 84.072266 L 65.845703 84.773438 L 67.263672 83.363281 L 66.554688 82.654297 L 62.310547 78.410156 L 61.609375 77.701172 z M 70.091797 86.191406 L 68.673828 87.601562 L 69.382812 88.308594 L 73.626953 92.554688 L 74.335938 93.263672 L 75.746094 91.845703 L 75.044922 91.136719 L 70.798828 86.900391 L 70.091797 86.191406 z M 78.572266 94.671875 L 77.162109 96.089844 L 77.871094 96.798828 L 82.109375 101.03516 L 82.818359 101.74414 L 84.234375 100.33398 L 83.525391 99.626953 L 79.28125 95.380859 L 78.572266 94.671875 z M 87.0625 103.16211 L 85.644531 104.57227 L 86.353516 105.28125 L 90.597656 109.52539 L 91.306641 110.23438 L 92.716797 108.81641 L 92.007812 108.10742 L 87.771484 103.87109 L 87.0625 103.16211 z M 95.542969 111.64453 L 94.134766 113.06055 L 94.841797 113.76953 L 99.080078 118.00781 L 99.789062 118.71484 L 101.20508 117.30469 L 100.49609 116.59766 L 96.251953 112.35156 L 95.542969 111.64453 z M 104.0332 120.13281 L 102.61523 121.54297 L 103.32422 122.25195 L 107.56836 126.49609 L 108.27734 127.20508 L 109.6875 125.78711 L 108.97852 125.07812 L 104.74219 120.8418 L 104.0332 120.13281 z M 112.51562 128.61523 L 111.10547 130.03125 L 111.81445 130.74023 L 116.05078 134.97852 L 116.75977 135.68555 L 118.17578 134.27734 L 117.46875 133.56836 L 113.22266 129.32422 L 112.51562 128.61523 z M 121.00391 137.10352 L 119.58594 138.51367 L 120.29492 139.22266 L 124.53906 143.4668 L 125.24805 144.17578 L 126.6582 142.75781 L 125.94922 142.04883 L 121.71289 137.8125 L 121.00391 137.10352 z M 129.48633 145.58594 L 128.07617 147.00391 L 128.78516 147.71094 L 133.02148 151.94922 L 133.73047 152.6582 L 135.14844 151.24805 L 134.43945 150.53906 L 130.19531 146.29492 L 129.48633 145.58594 z M 137.97461 154.07422 L 136.55664 155.48438 L 137.26562 156.19336 L 141.51172 160.4375 L 142.21875 161.14648 L 143.62891 159.72852 L 142.91992 159.02148 L 138.68359 154.77539 L 137.97461 154.07422 z M 146.45703 162.55664 L 145.04688 163.97461 L 145.74805 164.68164 L 149.99219 168.91992 L 150.70117 169.62891 L 152.11914 168.21094 L 151.41016 167.50977 L 147.16602 163.26562 L 146.45703 162.55664 z M 154.94531 171.04492 L 153.5293 172.45508 L 154.23633 173.16406 L 158.48242 177.4082 L 159.18359 178.11719 L 160.59961 176.70117 L 159.89258 175.99219 L 155.6543 171.74609 L 154.94531 171.04492 z M 163.42773 179.52734 L 162.01758 180.94531 L 162.71875 181.64648 L 166.96289 185.89062 L 167.67188 186.59961 L 169.08984 185.18164 L 168.38086 184.48047 L 164.13672 180.23633 L 163.42773 179.52734 z M 171.91602 188.01758 L 170.5 189.42578 L 171.20898 190.13477 L 175.45312 194.38086 L 176.1543 195.08203 L 177.57227 193.67188 L 176.86328 192.96289 L 172.61719 188.71875 L 171.91602 188.01758 z M 180.39844 196.49805 L 178.98828 197.91602 L 179.68945 198.61719 L 183.93359 202.86133 L 184.64258 203.57031 L 186.05273 202.15234 L 185.35156 201.45117 L 181.10742 197.20703 L 180.39844 196.49805 z M 188.88867 204.98828 L 187.4707 206.39844 L 188.17969 207.10547 L 192.42383 211.35156 L 193.125 212.05273 L 194.54297 210.64258 L 193.83398 209.93359 L 189.58984 205.68945 L 188.88867 204.98828 z M 197.36914 213.46875 L 195.95898 214.88672 L 196.66016 215.58789 L 200.90625 219.83203 L 201.61328 220.54102 L 203.02344 219.12305 L 202.32227 218.42188 L 198.07812 214.17773 L 197.36914 213.46875 z M 205.85938 221.95117 L 204.44141 223.36914 L 205.15039 224.07812 L 209.39453 228.32227 L 210.0957 229.02344 L 211.51367 227.61328 L 210.80469 226.9043 L 206.56055 222.66016 L 205.85938 221.95117 z M 214.33984 230.44141 L 212.92383 231.85742 L 213.63281 232.55859 L 217.87695 236.80273 L 218.58594 237.51172 L 219.99414 236.0957 L 219.29297 235.38672 L 215.04883 231.14844 L 214.33984 230.44141 z M 222.83008 238.92188 L 221.41211 240.33984 L 222.12109 241.04883 L 226.35742 245.29297 L 227.06641 245.99414 L 228.48438 244.58398 L 227.77539 243.875 L 223.53125 239.63086 L 222.83008 238.92188 z M 231.31055 247.41211 L 229.89453 248.82227 L 230.60352 249.5293 L 234.84766 253.77539 L 235.55664 254.48242 L 236.9668 253.06641 L 236.26562 252.35742 L 232.01953 248.11914 L 231.31055 247.41211 z M 239.79297 255.89258 L 238.38281 257.31055 L 239.0918 258.01953 L 243.33008 262.25586 L 244.03711 262.96484 L 245.45508 261.55469 L 244.74609 260.8457 L 240.50195 256.60156 L 239.79297 255.89258 z M 248.2832 264.38281 L 246.86523 265.79297 L 247.57422 266.50195 L 251.81836 270.74609 L 252.52734 271.45508 L 253.9375 270.03711 L 253.22852 269.32812 L 248.99023 265.0918 L 248.2832 264.38281 z M 256.76367 272.86328 L 255.35352 274.28125 L 256.0625 274.99023 L 260.30078 279.22656 L 261.00977 279.93555 L 262.42578 278.52539 L 261.7168 277.81836 L 257.47266 273.57227 L 256.76367 272.86328 z M 265.25391 281.35352 L 263.83594 282.76367 L 264.54492 283.47266 L 268.78906 287.7168 L 269.49805 288.42578 L 270.9082 287.00781 L 270.19922 286.29883 L 265.96289 282.0625 L 265.25391 281.35352 z M 273.73438 289.83594 L 272.32617 291.25195 L 273.0332 291.96094 L 277.27148 296.19922 L 277.98047 296.90625 L 279.39648 295.49609 L 278.68945 294.78906 L 274.44336 290.54297 L 273.73438 289.83594 z M 282.22461 298.32422 L 280.80664 299.73438 L 281.51562 300.44336 L 285.75977 304.6875 L 286.46875 305.39648 L 287.87891 303.97852 L 287.16992 303.26953 L 282.93359 299.0332 L 282.22461 298.32422 z M 290.70703 306.80664 L 289.29688 308.22266 L 290.00586 308.93164 L 294.24219 313.16992 L 294.45703 313.38477 A 169.70562 169.70562 0 0 1 295.86914 311.9707 L 295.66016 311.75977 L 291.41406 307.51562 L 290.70703 306.80664 z M 536.78125 552.88086 L 535.36328 554.29102 L 536.07227 555 L 540.31836 559.24414 L 541.02539 559.95312 L 542.43555 558.53516 L 541.73438 557.82812 L 537.49023 553.58984 L 536.78125 552.88086 z M 545.26367 561.36328 L 543.85352 562.78125 L 544.5625 563.48828 L 548.79883 567.72656 L 549.50781 568.43555 L 550.92578 567.02539 L 550.2168 566.31641 L 545.97266 562.07227 L 545.26367 561.36328 z M 553.75195 569.85156 L 552.33594 571.26172 L 553.04297 571.9707 L 557.28906 576.21484 L 557.99609 576.92383 L 559.40625 575.50781 L 558.69922 574.79883 L 554.46094 570.56055 L 553.75195 569.85156 z M 562.23438 578.33398 L 560.82422 579.75195 L 561.5332 580.46094 L 565.76953 584.69727 L 566.47852 585.40625 L 567.89648 583.99609 L 567.1875 583.28711 L 562.94336 579.04297 L 562.23438 578.33398 z M 570.72266 586.82422 L 569.30664 588.23242 L 570.01562 588.94141 L 574.25977 593.1875 L 574.96875 593.89453 L 576.37891 592.47852 L 575.66992 591.76953 L 571.43164 587.53125 L 570.72266 586.82422 z M 579.20508 595.30469 L 577.79492 596.72266 L 578.50391 597.43164 L 582.74023 601.66797 L 583.44922 602.37695 L 584.86719 600.9668 L 584.1582 600.25781 L 579.91406 596.01367 L 579.20508 595.30469 z M 587.69531 603.79492 L 586.27734 605.20508 L 586.98633 605.91211 L 591.23047 610.1582 L 591.93945 610.86523 L 593.34961 609.44922 L 592.64062 608.74023 L 588.40234 604.50391 L 587.69531 603.79492 z M 596.17578 612.27539 L 594.76562 613.69336 L 595.47461 614.40234 L 599.71289 618.63867 L 600.41992 619.34766 L 601.83789 617.9375 L 601.12891 617.22852 L 596.88477 612.98438 L 596.17578 612.27539 z M 604.66602 620.76562 L 603.24805 622.17578 L 603.95703 622.88477 L 608.20117 627.12891 L 608.91016 627.83789 L 610.32031 626.41992 L 609.61133 625.71094 L 605.375 621.4668 L 604.66602 620.76562 z M 613.14648 629.24609 L 611.73633 630.66406 L 612.43945 631.37305 L 616.68359 635.60938 L 617.39258 636.31836 L 618.80859 634.90234 L 618.09961 634.20117 L 613.85547 629.95508 L 613.14648 629.24609 z M 621.63672 637.73633 L 620.21875 639.14648 L 620.92773 639.85547 L 625.17188 644.09961 L 625.87305 644.80859 L 627.29102 643.39062 L 626.58203 642.68164 L 622.3457 638.4375 L 621.63672 637.73633 z M 630.11719 646.21875 L 628.70898 647.63477 L 629.41016 648.33594 L 633.6543 652.58203 L 634.36328 653.28906 L 635.7793 651.87305 L 635.07227 651.17188 L 630.82617 646.92578 L 630.11719 646.21875 z M 638.60742 654.70703 L 637.18945 656.11719 L 637.89844 656.82617 L 642.14258 661.07031 L 642.84375 661.77148 L 644.26172 660.36133 L 643.55273 659.65234 L 639.30859 655.4082 L 638.60742 654.70703 z M 647.08984 663.18945 L 645.67969 664.60547 L 646.38086 665.30664 L 650.625 669.55273 L 651.33398 670.26172 L 652.74414 668.84375 L 652.04297 668.14258 L 647.79688 663.89844 L 647.08984 663.18945 z M 655.57812 671.67773 L 654.16016 673.08789 L 654.86914 673.79688 L 659.11328 678.04102 L 659.81641 678.74219 L 661.23242 677.33203 L 660.52344 676.625 L 656.2793 672.37891 L 655.57812 671.67773 z M 664.06055 680.16016 L 662.65039 681.57812 L 663.35156 682.2793 L 667.5957 686.52344 L 668.30469 687.23242 L 669.71484 685.81445 L 669.01367 685.11328 L 664.76953 680.86914 L 664.06055 680.16016 z M 672.54883 688.64258 L 671.13281 690.05859 L 671.83984 690.76758 L 676.08594 695.01172 L 676.78711 695.71289 L 678.20312 694.30273 L 677.49414 693.5957 L 673.25 689.34961 L 672.54883 688.64258 z M 681.03125 697.13086 L 679.61328 698.54883 L 680.32227 699.25 L 684.56641 703.49414 L 685.27539 704.20312 L 686.68555 702.78516 L 685.98438 702.07617 L 681.74023 697.83984 L 681.03125 697.13086 z M 689.51953 705.61328 L 688.10352 707.0293 L 688.8125 707.73828 L 693.04883 711.98242 L 693.75781 712.68359 L 695.17383 711.27539 L 694.4668 710.56641 L 690.2207 706.32227 L 689.51953 705.61328 z M 698.00195 714.10156 L 696.58398 715.51172 L 697.29297 716.2207 L 701.53711 720.46484 L 702.24609 721.17383 L 703.65625 719.75586 L 702.95508 719.04688 L 698.71094 714.81055 L 698.00195 714.10156 z M 706.48438 722.58398 L 705.07422 724 L 705.7832 724.70898 L 710.01953 728.94727 L 710.72852 729.65625 L 712.14648 728.24609 L 711.4375 727.53711 L 707.19336 723.29297 L 706.48438 722.58398 z M 714.97266 731.07227 L 713.55469 732.48242 L 714.26367 733.19141 L 718.50977 737.43555 L 719.2168 738.14453 L 720.62695 736.72656 L 719.91797 736.01953 L 715.68164 731.78125 L 714.97266 731.07227 z M 723.45508 739.55469 L 722.04492 740.97266 L 722.75391 741.67969 L 726.99023 745.91797 L 727.69922 746.62695 L 729.11719 745.2168 L 728.4082 744.50781 L 724.16406 740.26367 L 723.45508 739.55469 z M 731.94336 748.04297 L 730.52734 749.45312 L 731.23438 750.16211 L 735.48047 754.40625 L 736.1875 755.11523 L 737.59766 753.69922 L 736.89062 752.99023 L 732.65234 748.75195 L 731.94336 748.04297 z M 740.42578 756.52539 L 739.01562 757.94336 L 739.72461 758.65234 L 743.96094 762.88867 L 744.66992 763.59766 L 746.08789 762.1875 L 745.37891 761.47852 L 741.13477 757.23438 L 740.42578 756.52539 z M 748.91406 765.01562 L 747.49805 766.42383 L 748.20703 767.13281 L 752.45117 771.37891 L 753.16016 772.08594 L 754.57031 770.66992 L 753.86133 769.96094 L 749.62305 765.72266 L 748.91406 765.01562 z M 757.39648 773.49609 L 755.98633 774.91406 L 756.69531 775.62305 L 760.93164 779.85938 L 761.64062 780.56836 L 763.05859 779.1582 L 762.34961 778.44922 L 758.10547 774.20508 L 757.39648 773.49609 z M 765.88672 781.98633 L 764.46875 783.39648 L 765.17773 784.10352 L 769.42188 788.34961 L 770.13086 789.05664 L 771.54102 787.64062 L 770.83203 786.93164 L 766.59375 782.6875 L 765.88672 781.98633 z M 774.36719 790.4668 L 772.95703 791.88477 L 773.6582 792.59375 L 777.9043 796.83008 L 778.61133 797.53906 L 780.0293 796.12109 L 779.32031 795.41992 L 775.07617 791.17578 L 774.36719 790.4668 z M 782.85742 798.95703 L 781.43945 800.36719 L 782.14844 801.07617 L 786.39258 805.32031 L 787.09375 806.0293 L 788.51172 804.61133 L 787.80273 803.90234 L 783.56641 799.6582 L 782.85742 798.95703 z M 791.33789 807.43945 L 789.92773 808.85547 L 790.63086 809.55664 L 794.875 813.80078 L 795.58398 814.50977 L 797 813.09375 L 796.29102 812.39258 L 792.04688 808.14648 L 791.33789 807.43945 z M 799.82812 815.92773 L 798.41016 817.33789 L 799.11914 818.04688 L 803.36328 822.29102 L 804.06445 822.99219 L 805.48242 821.58203 L 804.77344 820.87305 L 800.5293 816.62891 L 799.82812 815.92773 z M 808.30859 824.41016 L 806.90039 825.82617 L 807.60156 826.52734 L 811.8457 830.77344 L 812.55469 831.48047 L 813.96484 830.06445 L 813.26367 829.36328 L 809.01758 825.11719 L 808.30859 824.41016 z M 816.79883 832.89844 L 815.38086 834.30859 L 816.08984 835.01758 L 820.33398 839.26172 L 821.03516 839.96289 L 822.45312 838.55273 L 821.74414 837.84375 L 817.5 833.59961 L 816.79883 832.89844 z M 825.28125 841.38086 L 823.87109 842.79688 L 824.57227 843.49805 L 828.81641 847.74414 L 829.52539 848.45312 L 830.93555 847.03516 L 830.23438 846.33398 L 825.98828 842.08984 L 825.28125 841.38086 z M 833.76953 849.86133 L 832.35156 851.2793 L 833.06055 851.98828 L 837.30469 856.23242 L 838.00781 856.93359 L 839.42383 855.52344 L 838.71484 854.81641 L 834.4707 850.57031 L 833.76953 849.86133 z M 842.25195 858.35156 L 840.83398 859.76953 L 841.54297 860.4707 L 845.78711 864.71484 L 846.49609 865.42383 L 847.90625 864.00586 L 847.20508 863.29688 L 842.96094 859.06055 L 842.25195 858.35156 z M 850.74023 866.83398 L 849.32422 868.25 L 850.03125 868.95898 L 854.26953 873.20312 L 854.97852 873.9043 L 856.39453 872.49414 L 855.68555 871.78711 L 851.44141 867.54102 L 850.74023 866.83398 z M 859.22266 875.32227 L 857.80469 876.73242 L 858.51367 877.44141 L 862.75781 881.68555 L 863.4668 882.39453 L 864.87695 880.97656 L 864.17578 880.26758 L 859.93164 876.03125 L 859.22266 875.32227 z M 867.70508 883.80469 L 866.29492 885.2207 L 867.00391 885.92969 L 871.24023 890.16797 L 871.94922 890.87695 L 873.36523 889.4668 L 872.6582 888.75781 L 868.41211 884.51367 L 867.70508 883.80469 z M 876.19336 892.29297 L 874.77539 893.70312 L 875.48438 894.41211 L 879.72852 898.65625 L 880.4375 899.36523 L 881.84766 897.94727 L 881.13867 897.23828 L 876.90234 893.00195 L 876.19336 892.29297 z M 884.67578 900.77539 L 883.26562 902.19336 L 883.97461 902.90039 L 888.21094 907.13867 L 888.91992 907.84766 L 890.33789 906.4375 L 889.62891 905.72852 L 885.38477 901.48438 L 884.67578 900.77539 z M 893.16406 909.26367 L 891.74609 910.67383 L 892.45508 911.38281 L 896.70117 915.62695 L 897.4082 916.33594 L 898.81836 914.91797 L 898.10938 914.21094 L 893.87305 909.97266 L 893.16406 909.26367 z M 901.64648 917.74609 L 900.23633 919.16406 L 900.94531 919.87109 L 905.18164 924.10938 L 905.89062 924.81836 L 907.30859 923.4082 L 906.59961 922.69922 L 902.35547 918.45508 L 901.64648 917.74609 z "
       style="color:#000000;font-style:normal;font-variant:normal;font-weight:normal;font-stretch:normal;font-size:medium;line-height:normal;font-family:sans-serif;font-variant-ligatures:normal;font-variant-position:normal;font-variant-caps:normal;font-variant-numeric:normal;font-variant-alternates:normal;font-variant-east-asian:normal;font-feature-settings:normal;font-variation-settings:normal;text-indent:0;text-align:start;text-decoration:none;text-decoration-line:none;text-decoration-style:solid;text-decoration-color:#000000;letter-spacing:normal;word-spacing:normal;text-transform:none;writing-mode:lr-tb;direction:ltr;text-orientation:mixed;dominant-baseline:auto;baseline-shift:baseline;text-anchor:start;white-space:normal;shape-padding:0;shape-margin:0;inline-size:0;clip-rule:nonzero;display:inline;overflow:visible;visibility:visible;isolation:auto;mix-blend-mode:normal;color-interpolation:sRGB;color-interpolation-filters:linearRGB;solid-color:#000000;solid-opacity:1;vector-effect:none;fill:#00ffcc;fill-opacity:1;fill-rule:nonzero;stroke:none;stroke-width:2;stroke-linecap:square;stroke-linejoin:miter;stroke-miterlimit:4;stroke-dasharray:6, 6;stroke-dashoffset:20;stroke-opacity:1;color-rendering:auto;image-rendering:auto;shape-rendering:auto;text-rendering:auto;enable-background:accumulate;stop-color:#000000"
       id="path1375" />
    <path
       d="M 154.74579,114.47843 A 44.901279,44.901279 0 0 1 109.84451,159.37971 44.901279,44.901279 0 0 1 64.943233,114.47843 44.901279,44.901279 0 0 1 109.84451,69.577152 44.901279,44.901279 0 0 1 154.74579,114.47843"
       style="fill:none;stroke:#00ffcc;stroke-width:0.529167;stroke-linecap:square;stroke-linejoin:bevel;stroke-miterlimit:4;stroke-dasharray:1.5875, 1.58749999999999991;stroke-dashoffset:5.29167;paint-order:stroke fill markers;opacity:1"
       id="path841" />
    <path
       id="path1391"
       style="opacity:1;fill:none;stroke:#00ffcc;stroke-width:0.469671;stroke-linecap:square;stroke-linejoin:bevel;stroke-miterlimit:4;stroke-dasharray:1.40901, 1.40901;stroke-dashoffset:4.69671;paint-order:stroke fill markers"
       d="m 149.69734,114.47838 a 39.852851,39.852851 0 0 1 -39.85286,39.85285 39.852851,39.852851 0 0 1 -39.85285,-39.85285 39.852851,39.852851 0 0 1 39.85285,-39.852856 39.852851,39.852851 0 0 1 39.85286,39.852856" />
  </g>
</svg>
