<?xml version="1.0" encoding="UTF-8" standalone="no"?>
<svg
   xmlns:dc="http://purl.org/dc/elements/1.1/"
   xmlns:cc="http://creativecommons.org/ns#"
   xmlns:rdf="http://www.w3.org/1999/02/22-rdf-syntax-ns#"
   xmlns:svg="http://www.w3.org/2000/svg"
   xmlns="http://www.w3.org/2000/svg"
   xmlns:sodipodi="http://sodipodi.sourceforge.net/DTD/sodipodi-0.dtd"
   xmlns:inkscape="http://www.inkscape.org/namespaces/inkscape"
   sodipodi:docname="cross.svg"
   inkscape:version="1.0 (4035a4fb49, 2020-05-01)"
   id="svg8"
   version="1.1"
   viewBox="0 0 260.05493 260.42804"
   height="260.42804mm"
   width="260.05493mm">
  <defs
     id="defs2" />
  <sodipodi:namedview
     inkscape:window-maximized="1"
     inkscape:window-y="-6"
     inkscape:window-x="-6"
     inkscape:window-height="1018"
     inkscape:window-width="1920"
     showborder="false"
     showgrid="false"
     inkscape:document-rotation="0"
     inkscape:current-layer="layer1"
     inkscape:document-units="mm"
     inkscape:cy="511.02429"
     inkscape:cx="414.21719"
     inkscape:zoom="0.49497475"
     inkscape:pageshadow="2"
     inkscape:pageopacity="0"
     borderopacity="1.0"
     bordercolor="#666666"
     pagecolor="#171717"
     id="base" />
  <metadata
     id="metadata5">
    <rdf:RDF>
      <cc:Work
         rdf:about="">
        <dc:format>image/svg+xml</dc:format>
        <dc:type
           rdf:resource="http://purl.org/dc/dcmitype/StillImage" />
        <dc:title></dc:title>
      </cc:Work>
    </rdf:RDF>
  </metadata>
  <g
     transform="translate(19.996195,15.736507)"
     id="layer1"
     inkscape:groupmode="layer"
     inkscape:label="Layer 1">
    <g
       id="g1395">
      <path
         id="path1371"
         style="color:#000000;font-style:normal;font-variant:normal;font-weight:normal;font-stretch:normal;font-size:medium;line-height:normal;font-family:sans-serif;font-variant-ligatures:normal;font-variant-position:normal;font-variant-caps:normal;font-variant-numeric:normal;font-variant-alternates:normal;font-variant-east-asian:normal;font-feature-settings:normal;font-variation-settings:normal;text-indent:0;text-align:start;text-decoration:none;text-decoration-line:none;text-decoration-style:solid;text-decoration-color:#000000;letter-spacing:normal;word-spacing:normal;text-transform:none;writing-mode:lr-tb;direction:ltr;text-orientation:mixed;dominant-baseline:auto;baseline-shift:baseline;text-anchor:start;white-space:normal;shape-padding:0;shape-margin:0;inline-size:0;clip-rule:nonzero;display:inline;overflow:visible;visibility:visible;isolation:auto;mix-blend-mode:normal;color-interpolation:sRGB;color-interpolation-filters:linearRGB;solid-color:#000000;solid-opacity:1;vector-effect:none;fill:#00ffcc;fill-opacity:1;fill-rule:nonzero;stroke:none;stroke-width:2;stroke-linecap:square;stroke-linejoin:miter;stroke-miterlimit:4;stroke-dasharray:6, 6;stroke-dashoffset:20;stroke-opacity:1;color-rendering:auto;image-rendering:auto;shape-rendering:auto;text-rendering:auto;enable-background:accumulate;stop-color:#000000"
         d="m 905.89062,-59.476562 -0.70898,0.708984 -4.23633,4.24414 -0.70898,0.708985 1.41015,1.410156 0.70899,-0.708984 4.24414,-4.236328 0.70898,-0.708985 z m -8.48242,8.490234 -0.70703,0.708984 -4.24609,4.236328 -0.70899,0.708985 1.41797,1.417969 0.70899,-0.708985 4.23633,-4.244141 0.70898,-0.708984 z m -8.48828,8.480469 -0.70898,0.708984 -4.23633,4.246094 -0.70899,0.707031 1.41016,1.410156 0.70899,-0.708984 4.24414,-4.236328 0.70898,-0.708985 z m -8.48242,8.490234 -0.70898,0.701172 -4.24414,4.244141 -0.70899,0.708984 1.41797,1.417969 0.70898,-0.708985 4.23633,-4.24414 0.70899,-0.708985 z m -8.48828,8.482422 -0.70899,0.707031 -4.23632,4.246094 -0.70899,0.701172 1.41016,1.416015 0.70703,-0.707031 4.24609,-4.238281 0.70703,-0.708985 z m -8.48242,8.488281 -0.70899,0.701172 -4.24414,4.244141 -0.70898,0.708984 1.41797,1.4179688 0.70898,-0.7089848 4.24414,-4.24414 0.70117,-0.708985 z m -8.48828,8.482422 -0.70899,0.7089844 -4.23828,4.2441406 -0.70703,0.7011719 1.41601,1.4179687 0.70118,-0.7089844 4.24414,-4.2460937 0.70898,-0.7011719 z m -8.48243,8.48828125 -0.70898,0.70117187 -4.24414,4.24414068 -0.70899,0.7089843 1.41797,1.4101563 0.70899,-0.7011719 4.24414,-4.2441406 0.70117,-0.7089844 z m -8.48828,8.48242185 -0.70312,0.7089844 -4.24414,4.2441405 -0.70899,0.701172 1.41797,1.417969 0.70117,-0.708985 4.24414,-4.24414 0.70899,-0.7011721 z m -8.48242,8.4882809 -0.70898,0.701172 -4.24414,4.246094 -0.70118,0.707031 1.41016,1.410157 0.70703,-0.701172 4.2461,-4.244141 0.70117,-0.708984 z m -8.49023,8.482422 -0.70118,0.708985 -4.24414,4.24414 -0.70898,0.701172 1.41797,1.417969 0.70117,-0.708984 4.24414,-4.244141 0.70898,-0.701172 z m -8.48047,8.482422 -0.70899,0.708984 -4.24414,4.244141 -0.70117,0.708985 1.4082,1.408203 0.70899,-0.701172 4.24609,-4.244141 0.70117,-0.708984 z m -8.49024,8.488281 -0.70117,0.708985 -4.24414,4.236328 -0.70898,0.708984 1.41796,1.417969 0.70118,-0.708984 4.24414,-4.244141 0.70898,-0.701172 z m -8.48047,8.482422 -0.70898,0.708985 -4.24414,4.24414 -0.70313,0.708985 1.41016,1.410156 0.70899,-0.701172 4.24414,-4.246094 L 797,52.248047 Z m -8.49023,8.488281 -0.70117,0.708985 -4.24414,4.238281 -0.70899,0.707031 1.41797,1.417969 0.70899,-0.708984 4.23632,-4.244141 0.70899,-0.708984 z m -8.48242,8.482422 -0.70703,0.708985 -4.2461,4.24414 -0.70117,0.708985 1.41016,1.410156 0.70898,-0.708984 4.24414,-4.238282 0.70899,-0.707031 z M 770.13086,76.291016 769.42188,77 l -4.24415,4.238281 -0.70898,0.708985 1.41797,1.416015 0.70703,-0.708984 4.23828,-4.244141 0.70899,-0.708984 z m -8.49024,8.482422 -0.70898,0.708984 -4.23633,4.24414 -0.70898,0.708985 1.41015,1.410156 0.70899,-0.708984 4.24414,-4.236328 0.70898,-0.708985 z m -8.48046,8.490234 -0.70899,0.707031 -4.24414,4.238281 -0.70898,0.708985 1.41601,1.416011 0.70899,-0.707027 4.23828,-4.246094 0.70898,-0.708984 z m -8.49024,8.480468 -0.70898,0.70898 -4.23633,4.24415 -0.70899,0.70898 1.41016,1.41016 0.70899,-0.70899 4.24414,-4.23633 0.70898,-0.70898 z m -8.48242,8.49024 -0.70703,0.70898 -4.24609,4.23633 -0.70704,0.70898 1.41602,1.41602 0.70898,-0.70703 4.23828,-4.2461 0.70704,-0.70703 z m -8.48828,8.48046 -0.70899,0.70899 -4.23632,4.24414 -0.70899,0.70898 1.41016,1.41016 0.70898,-0.70899 4.24414,-4.23632 0.70899,-0.70899 z m -8.48242,8.49024 -0.70703,0.70117 -4.2461,4.24414 -0.70898,0.70899 1.41797,1.41796 0.70898,-0.70898 4.23633,-4.24414 0.70898,-0.70899 z m -8.48828,8.48047 -0.70899,0.70898 -4.23633,4.24609 -0.70898,0.70118 1.41016,1.41601 0.70898,-0.70898 4.24414,-4.23633 0.70898,-0.70898 z m -8.48243,8.49023 -0.70898,0.70117 -4.24414,4.24414 -0.70899,0.70899 1.41797,1.41797 0.70899,-0.70899 4.24414,-4.24414 0.70117,-0.70898 z m -8.48828,8.48242 -0.70898,0.70703 -4.23633,4.2461 -0.70898,0.70117 1.41601,1.41602 0.70117,-0.70704 4.2461,-4.24609 0.70703,-0.70117 z m -8.48242,8.48828 -0.70898,0.70118 -4.24414,4.24414 -0.70899,0.70898 1.41797,1.41016 0.70898,-0.70117 4.24415,-4.24415 0.70117,-0.70898 z m -8.48828,8.48243 -0.70117,0.70898 -4.2461,4.24414 -0.70703,0.70117 1.41602,1.41797 0.70117,-0.70898 4.24414,-4.2461 0.70898,-0.70117 z m -8.48242,8.48828 -0.70899,0.70117 -4.24414,4.24609 -0.70117,0.70703 1.41016,1.41016 0.70898,-0.70117 4.24414,-4.24414 0.70117,-0.70899 z m -8.48828,8.48242 -0.70313,0.70898 -4.24414,4.24414 -0.70898,0.70118 1.41796,1.41797 0.70118,-0.70899 4.24414,-4.24414 0.70898,-0.70117 z m -8.48243,8.48242 -0.70898,0.70703 -4.24414,4.2461 -0.70117,0.70703 1.41015,1.41015 0.70704,-0.70117 4.24609,-4.24414 0.70117,-0.70898 z m -8.49023,8.48828 -0.70117,0.70899 -4.24414,4.23632 -0.70899,0.70899 1.41797,1.41797 0.70117,-0.70899 4.24414,-4.24414 0.70899,-0.70117 z m -8.48047,8.48242 -0.70898,0.70899 -4.24414,4.24414 -0.70118,0.70898 1.40821,1.40821 0.70898,-0.70117 4.2461,-4.24415 0.70703,-0.70898 z m -8.49023,8.48829 -0.70117,0.70898 -4.24415,4.23633 -0.70898,0.70898 1.41797,1.41797 0.70898,-0.70898 4.23633,-4.24414 0.70899,-0.70899 z m -8.48047,8.48242 -0.70899,0.70898 -4.24414,4.24414 -0.70312,0.70899 1.41015,1.41015 0.70899,-0.70898 4.24414,-4.23828 0.70898,-0.70703 z m -8.48242,8.48828 -0.70899,0.70898 -4.24414,4.23828 -0.70898,0.70704 1.41797,1.41796 0.70898,-0.70898 4.23633,-4.24414 0.70898,-0.70898 z m -8.49024,8.48242 -0.70703,0.70898 -4.23828,4.24415 -0.70899,0.70898 1.41016,1.41016 0.70899,-0.70899 4.24414,-4.23828 0.70898,-0.70703 z m -8.48047,8.48828 -0.70898,0.70899 -4.24414,4.23828 -0.70899,0.70898 1.41797,1.41602 0.70703,-0.70899 4.23828,-4.24414 0.70899,-0.70898 z m -8.49023,8.48242 -0.70899,0.70899 -4.23632,4.24414 -0.70899,0.70898 1.41016,1.41016 0.70898,-0.70899 4.24414,-4.23632 0.70899,-0.70899 z m -8.48047,8.49024 -0.70898,0.70703 -4.24415,4.23828 -0.70898,0.70899 1.41602,1.41601 0.70898,-0.70703 4.23828,-4.24609 0.70899,-0.70899 z m -8.49023,8.48047 -0.70899,0.70898 -4.23633,4.24414 -0.70898,0.70899 1.41016,1.41015 0.70898,-0.70898 4.24414,-4.23633 0.70898,-0.70898 z m -8.48243,8.49023 -0.70703,0.70117 -4.24609,4.24414 -0.70703,0.70899 1.41601,1.41601 0.70899,-0.70703 4.23828,-4.24609 0.70703,-0.70703 z m -8.48828,8.48047 -0.70898,0.70898 -4.23633,4.24415 -0.70898,0.70117 1.41796,1.41797 0.70118,-0.70899 4.24414,-4.23633 0.70898,-0.70898 z m -8.48242,8.49023 -0.70703,0.70118 -4.24609,4.24414 -0.70899,0.70898 1.41797,1.41797 0.70898,-0.70898 4.24415,-4.24415 0.70117,-0.70898 z m -246.57227,246.56446 -0.21093,0.21094 -4.23633,4.24609 -0.70898,0.70898 1.41015,1.40821 0.70703,-0.70704 4.2461,-4.23828 0.21093,-0.21093 a 169.70562,169.70562 0 0 1 -1.41797,-1.41797 z m -7.98437,7.99218 -0.70898,0.70899 -4.24415,4.23633 -0.70898,0.70898 1.41797,1.41797 0.70898,-0.70898 4.23633,-4.24414 0.70899,-0.70899 z m -8.48828,8.48243 -0.70899,0.70898 -4.23828,4.24414 -0.70703,0.70899 1.40821,1.41015 0.70898,-0.70898 4.24609,-4.23828 0.70703,-0.70899 z m -8.48242,8.48828 -0.70899,0.70898 -4.24414,4.23633 -0.70898,0.70898 1.41797,1.41797 0.70898,-0.70898 4.23633,-4.24414 0.70898,-0.70899 z m -8.48828,8.48242 -0.70899,0.70898 -4.23828,4.24415 -0.70898,0.70898 1.41015,1.41016 0.70899,-0.70899 4.24414,-4.23828 0.70898,-0.70703 z m -8.48243,8.48828 -0.70898,0.70117 -4.24414,4.2461 -0.70899,0.70703 1.41797,1.41797 0.70703,-0.70899 4.23829,-4.24414 0.70898,-0.70898 z m -8.49023,8.48242 -0.70703,0.70899 -4.23828,4.24414 -0.70899,0.70117 1.41016,1.41797 0.70898,-0.70899 4.24414,-4.23632 0.70899,-0.70899 z m -8.48047,8.48828 -0.70898,0.70313 -4.24414,4.24414 -0.70899,0.70898 1.41602,1.41602 0.70898,-0.70898 4.24609,-4.24414 0.70118,-0.70899 z m -8.49023,8.48243 -0.70899,0.70898 -4.23633,4.24414 -0.70898,0.70117 1.41797,1.41797 0.70117,-0.70898 4.24414,-4.24414 0.70899,-0.70118 z m -8.48047,8.49023 -0.70899,0.70117 -4.24414,4.24414 -0.70898,0.70899 1.41601,1.41015 0.70899,-0.70117 4.24414,-4.24609 0.70117,-0.70899 z m -8.49024,8.48047 -0.70117,0.70898 -4.24414,4.24414 -0.70898,0.70118 1.41797,1.41796 0.70117,-0.70898 4.24414,-4.24414 0.70898,-0.70117 z m -8.48242,8.49023 -0.70703,0.70118 -4.24609,4.24414 -0.70118,0.70898 1.41016,1.41016 0.70898,-0.70117 4.24415,-4.2461 0.70117,-0.70703 z m -8.48828,8.48047 -0.70117,0.70899 -4.24414,4.24414 -0.70899,0.70312 1.41797,1.41602 0.70117,-0.70899 4.24414,-4.24414 0.70899,-0.70117 z m -8.48242,8.48242 -0.70899,0.70899 -4.24414,4.24414 -0.70117,0.70898 1.41016,1.41016 0.70898,-0.70117 4.24414,-4.24414 0.70117,-0.70899 z m -8.48828,8.49024 -0.70118,0.70703 -4.24414,4.23828 -0.70898,0.70899 1.41602,1.41601 0.70117,-0.70703 4.24609,-4.24609 0.70899,-0.70118 z m -8.48242,8.48047 -0.70899,0.70898 -4.24414,4.24414 -0.70117,0.70899 1.41015,1.41015 0.70899,-0.70117 4.24414,-4.24414 0.70898,-0.70898 z m -8.48829,8.49023 -0.70117,0.70899 -4.24609,4.23632 -0.70703,0.70899 1.41601,1.41601 0.70899,-0.70703 4.23828,-4.24609 0.70703,-0.70703 z m -8.48242,8.48047 -0.70898,0.70899 -4.24414,4.24414 -0.70117,0.70898 1.41015,1.41016 0.70899,-0.70899 4.24414,-4.23633 0.70898,-0.70898 z m -8.48242,8.49023 -0.70703,0.70899 -4.2461,4.23633 -0.70898,0.70898 1.41797,1.41797 0.70898,-0.70898 4.23633,-4.24414 0.70899,-0.70899 z m -8.48828,8.48047 -0.70899,0.70899 -4.23632,4.24609 -0.70899,0.70703 1.41016,1.41016 0.70898,-0.70898 4.24414,-4.23633 0.70899,-0.70899 z m -8.48242,8.49024 -0.70899,0.70898 -4.24414,4.23633 -0.70898,0.70898 1.41797,1.41797 0.70898,-0.70898 4.23633,-4.24414 0.70898,-0.70899 z m -8.48828,8.48242 -0.70899,0.70703 -4.23633,4.2461 -0.70898,0.70898 1.41015,1.4082 0.70704,-0.70703 4.24609,-4.23828 0.70703,-0.70898 z m -8.48243,8.48828 -0.70898,0.70899 -4.24414,4.23632 -0.70899,0.70899 1.41797,1.41797 0.70899,-0.70899 4.23633,-4.24414 0.70898,-0.70898 z m -8.488278,8.48242 -0.708984,0.70899 -4.238281,4.24414 -0.707031,0.70898 1.408203,1.41016 0.708984,-0.70899 4.244137,-4.23828 0.70899,-0.70898 z m -8.482421,8.48828 -0.708985,0.70118 -4.24414,4.24414 -0.708985,0.70898 1.417969,1.41797 0.708984,-0.70898 4.236328,-4.24414 0.708985,-0.70899 z m -8.488282,8.48243 -0.708984,0.70898 -4.238281,4.24414 -0.708985,0.70117 1.410157,1.41797 0.708984,-0.70898 4.244141,-4.23828 0.708984,-0.70704 z m -8.482421,8.48828 -0.708985,0.70117 -4.244141,4.24609 -0.708984,0.70703 1.417969,1.41797 0.707031,-0.70898 4.246094,-4.24414 0.701172,-0.70899 z m -8.490235,8.48242 -0.707031,0.70898 -4.238281,4.24414 -0.708985,0.70118 1.417969,1.41796 0.701172,-0.70898 4.244141,-4.24414 0.708984,-0.70117 z m -8.480469,8.48828 -0.708984,0.70313 -4.244141,4.24414 -0.708984,0.70898 1.416016,1.4082 0.708984,-0.70117 4.246094,-4.24414 0.701172,-0.70898 z m -8.490234,8.48242 -0.701172,0.70899 -4.24414,4.24414 -0.708985,0.70117 1.417969,1.41797 0.701172,-0.70899 4.24414,-4.24414 0.708985,-0.70117 z m -8.480469,8.49024 -0.708984,0.70117 -4.244141,4.24414 -0.703125,0.70898 1.410157,1.41016 0.708984,-0.70117 4.24414,-4.2461 0.701172,-0.70703 z m -8.490234,8.48047 -0.701172,0.70898 -4.244141,4.24414 -0.708984,0.70117 1.417969,1.41797 0.701172,-0.70898 4.24414,-4.24414 0.708985,-0.70118 z m -8.482422,8.48242 -0.707031,0.70898 -4.246094,4.24414 -0.701172,0.70899 1.410156,1.41015 0.708985,-0.70117 4.24414,-4.24609 0.708985,-0.70703 z m -8.488281,8.48828 -0.701172,0.70898 -4.2441408,4.23828 -0.7089843,0.70899 1.4179691,1.41601 0.707031,-0.70898 4.238281,-4.24414 0.708984,-0.70117 z m -8.4824221,8.48242 -0.7089844,0.70899 -4.2441406,4.24414 -0.7011719,0.70898 1.4101562,1.41016 0.7089844,-0.70118 4.2441406,-4.24414 0.7089844,-0.70898 z m -8.4804688,8.49023 -0.7089843,0.70704 -4.2441407,4.23828 -0.7089843,0.70898 1.4160156,1.41602 0.7089844,-0.70703 4.2382812,-4.2461 0.70898438,-0.70898 z m -8.4902341,8.48047 -0.708985,0.70899 -4.236328,4.24414 -0.708984,0.70898 1.410156,1.41016 0.708984,-0.70898 4.2441411,-4.23633 0.7089844,-0.70899 z m -8.482422,8.49024 -0.707031,0.70898 -4.246094,4.23633 -0.707031,0.70898 1.416015,1.41602 0.708985,-0.70703 4.238281,-4.24609 0.707031,-0.70704 z m -8.488281,8.48047 -0.708985,0.70898 -4.236328,4.24414 -0.708984,0.70899 1.410156,1.41015 0.708984,-0.70898 4.244141,-4.23633 0.708984,-0.70898 z m -8.482422,8.49023 -0.707032,0.70899 -4.246093,4.23632 -0.708985,0.70899 1.417969,1.41797 0.708985,-0.70899 4.236328,-4.24414 0.708984,-0.70898 z m -8.488282,8.48242 -0.708984,0.70703 -4.236328,4.2461 -0.708984,0.70703 1.410156,1.41016 0.708984,-0.70899 4.244141,-4.23633 0.708984,-0.70898 z m -8.482421,8.48828 -0.708985,0.70118 -4.24414,4.24414 -0.708985,0.70898 1.417969,1.41797 0.708984,-0.70898 4.236328,-4.24414 0.708985,-0.70899 z m -8.488282,8.48243 -0.708984,0.70703 -4.238281,4.24609 -0.707032,0.70117 1.410157,1.41602 0.707031,-0.70703 4.246094,-4.23828 0.707031,-0.70899 z m -8.482421,8.48828 -0.708985,0.70117 -4.244141,4.24414 -0.708984,0.70898 1.417969,1.41797 0.708984,-0.70898 4.244141,-4.24414 0.701172,-0.70899 z"
         transform="scale(0.26458333)" />
      <path
         id="path1375"
         style="color:#000000;font-style:normal;font-variant:normal;font-weight:normal;font-stretch:normal;font-size:medium;line-height:normal;font-family:sans-serif;font-variant-ligatures:normal;font-variant-position:normal;font-variant-caps:normal;font-variant-numeric:normal;font-variant-alternates:normal;font-variant-east-asian:normal;font-feature-settings:normal;font-variation-settings:normal;text-indent:0;text-align:start;text-decoration:none;text-decoration-line:none;text-decoration-style:solid;text-decoration-color:#000000;letter-spacing:normal;word-spacing:normal;text-transform:none;writing-mode:lr-tb;direction:ltr;text-orientation:mixed;dominant-baseline:auto;baseline-shift:baseline;text-anchor:start;white-space:normal;shape-padding:0;shape-margin:0;inline-size:0;clip-rule:nonzero;display:inline;overflow:visible;visibility:visible;isolation:auto;mix-blend-mode:normal;color-interpolation:sRGB;color-interpolation-filters:linearRGB;solid-color:#000000;solid-opacity:1;vector-effect:none;fill:#00ffcc;fill-opacity:1;fill-rule:nonzero;stroke:none;stroke-width:2;stroke-linecap:square;stroke-linejoin:miter;stroke-miterlimit:4;stroke-dasharray:6, 6;stroke-dashoffset:20;stroke-opacity:1;color-rendering:auto;image-rendering:auto;shape-rendering:auto;text-rendering:auto;enable-background:accumulate;stop-color:#000000"
         d="m -74.158203,-58.058594 -1.417969,1.410156 0.708984,0.708985 4.244141,4.244141 0.708985,0.708984 1.410156,-1.417969 -0.701172,-0.708984 -4.244141,-4.236328 z m 8.482422,8.482422 -1.410157,1.416016 0.707032,0.708984 4.238281,4.238281 0.708984,0.707032 1.416016,-1.408203 -0.707031,-0.708985 -4.246094,-4.244141 z m 8.488281,8.488281 -1.417969,1.410157 0.708985,0.708984 4.24414,4.244141 0.708985,0.708984 1.410156,-1.417969 -0.708985,-0.708984 -4.236328,-4.236328 z m 8.482422,8.482422 -1.410156,1.416016 0.708984,0.708984 4.236328,4.238281 0.708984,0.708985 1.417969,-1.410156 -0.708984,-0.708985 -4.244141,-4.24414 z m 8.488281,8.488281 -1.417969,1.410157 0.708985,0.708984 4.246093,4.244141 0.707032,0.708984 1.410156,-1.417969 -0.708984,-0.707031 -4.236328,-4.238281 z m 8.482422,8.482422 -1.410156,1.417969 0.708984,0.707031 4.236328,4.2382816 0.708985,0.7089844 1.417968,-1.4101562 -0.708984,-0.7089848 -4.244141,-4.24414 z m 8.488281,8.4882816 -1.416015,1.4101563 0.707031,0.7089843 4.246094,4.24414068 0.707031,0.70898437 1.410156,-1.41601565 -0.707031,-0.7089844 -4.238281,-4.2460937 z m 8.482422,8.4824219 -1.410156,1.4179687 0.708984,0.7089844 4.236328,4.2363282 0.708985,0.7089843 1.4179685,-1.4179687 -0.7089844,-0.7011719 -4.2441411,-4.2441406 z m 8.4882814,8.4902344 -1.4160156,1.4082031 0.7089843,0.708984 4.2441407,4.246094 0.7089843,0.707031 1.41015628,-1.416015 -0.70898438,-0.708985 -4.2382812,-4.24414 z m 8.4824218,8.4804691 -1.4101562,1.417968 0.7011719,0.701172 4.2441406,4.244141 0.7089844,0.708984 1.4179687,-1.417968 -0.7089844,-0.701172 -4.2441406,-4.244141 z m 8.4902348,8.490234 -1.4179691,1.410156 0.7089843,0.707031 4.2441408,4.246094 0.701172,0.701172 1.417968,-1.410156 -0.708984,-0.708984 -4.238281,-4.244141 z m 8.480468,8.480469 -1.410156,1.417968 0.701172,0.701172 4.246094,4.244141 0.707031,0.708984 1.417969,-1.417968 -0.708985,-0.701172 -4.24414,-4.244141 z m 8.490235,8.490234 -1.417969,1.410156 0.708984,0.708985 4.244141,4.24414 0.701172,0.701172 1.417969,-1.410156 -0.708985,-0.708984 -4.24414,-4.244141 z m 8.480469,8.480469 -1.410157,1.417969 0.703125,0.701172 4.244141,4.24414 0.708984,0.708984 1.408203,-1.416015 -0.701172,-0.701172 -4.24414,-4.246094 z m 8.490234,8.482422 -1.417969,1.417969 0.708985,0.708984 4.24414,4.24414 0.701172,0.701172 1.417969,-1.410156 -0.708985,-0.708984 -4.24414,-4.244141 z m 8.480469,8.490234 -1.416016,1.416016 0.708984,0.701172 4.244141,4.246093 0.708984,0.707032 1.410157,-1.416016 -0.701172,-0.708984 -4.246094,-4.238282 z m 8.490234,8.480469 -1.417969,1.417969 0.708985,0.708984 4.238281,4.244141 0.707031,0.701172 1.417969,-1.410157 -0.708984,-0.708984 -4.244141,-4.244141 z m 8.482422,8.490234 -1.417969,1.410156 0.708984,0.707032 4.244141,4.246094 0.708985,0.708984 1.410156,-1.417969 -0.701172,-0.708984 -4.246094,-4.236328 z m 8.480469,8.480469 -1.410157,1.417969 0.708985,0.708984 4.238281,4.236332 0.708984,0.70898 1.416016,-1.41016 -0.708984,-0.707027 -4.244141,-4.246094 z m 8.490234,8.490235 -1.417969,1.41016 0.708985,0.70898 4.24414,4.24414 0.708985,0.70899 1.410156,-1.41797 -0.708985,-0.70899 -4.236328,-4.23633 z m 8.480469,8.48242 -1.408203,1.41602 0.707031,0.70898 4.238281,4.23828 0.708984,0.70703 1.416018,-1.41015 -0.70899,-0.70703 -4.244137,-4.2461 z m 8.490231,8.48828 -1.41797,1.41016 0.70899,0.70898 4.24414,4.24414 0.70898,0.70899 1.41016,-1.41797 -0.70898,-0.70899 -4.23633,-4.23632 z m 8.48242,8.48242 -1.41015,1.41602 0.70898,0.70898 4.23633,4.23829 0.70899,0.70703 1.41601,-1.40821 -0.70703,-0.70898 -4.24609,-4.24414 z m 8.48829,8.48829 -1.41797,1.41015 0.70898,0.70899 4.24414,4.24414 0.70899,0.70898 1.41015,-1.41797 -0.70898,-0.70898 -4.23633,-4.23633 z m 8.48242,8.48242 -1.41016,1.41797 0.70899,0.70703 4.23632,4.23828 0.70899,0.70898 1.41797,-1.41015 -0.70899,-0.70899 -4.24414,-4.24414 z m 8.48828,8.48828 -1.41797,1.41016 0.70898,0.70898 4.2461,4.24414 0.70703,0.70898 1.41016,-1.41796 -0.70899,-0.70704 -4.23633,-4.24609 z m 8.48242,8.48242 -1.41015,1.41797 0.70117,0.70703 4.24414,4.23828 0.70898,0.70899 1.41797,-1.41797 -0.70898,-0.70117 -4.24414,-4.24415 z m 8.48828,8.48828 -1.41601,1.41016 0.70703,0.70898 4.24609,4.24414 0.70117,0.70899 1.41602,-1.41602 -0.70703,-0.70898 -4.23828,-4.2461 z m 8.48242,8.48242 -1.41015,1.41797 0.70117,0.70117 4.24414,4.24414 0.70899,0.70899 1.41796,-1.41797 -0.70898,-0.70117 -4.24414,-4.24414 z m 8.48829,8.49024 -1.41602,1.4082 0.70898,0.70899 4.24414,4.24609 0.70118,0.70117 1.41797,-1.41015 -0.70899,-0.70899 -4.24609,-4.24414 z m 8.48242,8.48047 -1.41016,1.41797 0.70117,0.70117 4.24414,4.24414 0.70899,0.70898 1.41015,-1.41797 -0.70117,-0.70117 -4.24414,-4.24414 z m 8.49023,8.49023 -1.41797,1.41016 0.70899,0.70703 4.24414,4.24609 0.70117,0.70117 1.41797,-1.41015 -0.70899,-0.70899 -4.24414,-4.24414 z m 8.48047,8.48047 -1.41016,1.41797 0.70118,0.70117 4.24609,4.24414 0.70703,0.70899 1.41016,-1.41797 -0.70117,-0.70117 -4.24415,-4.24415 z m 8.49024,8.48242 -1.41797,1.41797 0.70898,0.70898 4.24414,4.24415 0.70117,0.70117 1.41797,-1.41016 -0.70898,-0.70898 -4.24414,-4.24414 z m 8.48046,8.49024 -1.41601,1.41601 0.70898,0.70117 4.24414,4.24414 0.70899,0.70899 1.4082,-1.41602 -0.70117,-0.70898 -4.24414,-4.23828 z m 8.49024,8.48047 -1.41797,1.41796 0.70898,0.70899 4.23633,4.24414 0.70899,0.70117 1.41797,-1.41016 -0.70899,-0.70898 -4.24414,-4.24414 z m 8.48047,8.49023 -1.41602,1.41016 0.70899,0.70703 4.24414,4.24609 0.70898,0.70703 1.41016,-1.41601 -0.70118,-0.70899 -4.24609,-4.23828 z m 8.48242,8.48047 -1.41016,1.41797 0.70899,0.70898 4.23828,4.23633 0.70703,0.70898 1.41797,-1.41015 -0.70899,-0.70899 -4.24414,-4.24414 z m 8.49023,8.49023 -1.41797,1.41016 0.70899,0.70898 4.24414,4.24414 0.70898,0.70899 1.41016,-1.41797 -0.70898,-0.70899 -4.23829,-4.23632 z m 8.48047,8.48047 -1.41015,1.41797 0.70898,0.70898 4.23828,4.23633 0.70899,0.70899 1.41601,-1.41016 -0.70898,-0.70703 -4.24414,-4.24609 z m 8.49024,8.49024 -1.41797,1.41015 0.70898,0.70899 4.24414,4.24414 0.70899,0.70898 1.41015,-1.41797 -0.70898,-0.70898 -4.23633,-4.23633 z m 8.48047,8.48242 -1.40821,1.41601 0.70703,0.70899 4.23828,4.23828 0.70899,0.70703 1.41601,-1.41016 -0.70703,-0.70703 -4.24609,-4.24609 z m 8.49023,8.48828 -1.41797,1.41016 0.70898,0.70898 4.24415,4.24414 0.70898,0.70898 1.41016,-1.41796 -0.70899,-0.70899 -4.23633,-4.23633 z m 8.48242,8.48242 -1.41015,1.41602 0.70898,0.70898 4.23633,4.23828 0.21484,0.21485 a 169.70562,169.70562 0 0 1 1.41211,-1.41407 l -0.20898,-0.21093 -4.2461,-4.24415 z m 246.07422,246.07422 -1.41797,1.41016 0.70899,0.70898 4.24609,4.24414 0.70703,0.70898 1.41016,-1.41796 -0.70117,-0.70704 -4.24415,-4.23828 z m 8.48242,8.48242 -1.41015,1.41797 0.70898,0.70703 4.23633,4.23828 0.70898,0.70899 1.41797,-1.41016 -0.70898,-0.70898 -4.24414,-4.24414 z m 8.48828,8.48828 -1.41601,1.41016 0.70703,0.70898 4.24609,4.24414 0.70703,0.70899 1.41016,-1.41602 -0.70703,-0.70898 -4.23828,-4.23828 z m 8.48243,8.48242 -1.41016,1.41797 0.70898,0.70899 4.23633,4.23633 0.70899,0.70898 1.41796,-1.41016 -0.70898,-0.70898 -4.24414,-4.24414 z m 8.48828,8.49024 -1.41602,1.4082 0.70898,0.70899 4.24415,4.24609 0.70898,0.70703 1.41016,-1.41601 -0.70899,-0.70899 -4.23828,-4.23828 z m 8.48242,8.48047 -1.41016,1.41797 0.70899,0.70898 4.23632,4.23633 0.70899,0.70898 1.41797,-1.41015 -0.70899,-0.70899 -4.24414,-4.24414 z m 8.49023,8.49023 -1.41797,1.41016 0.70899,0.70703 4.24414,4.24609 0.70898,0.70703 1.41016,-1.41601 -0.70899,-0.70899 -4.23828,-4.23632 z m 8.48047,8.48047 -1.41016,1.41797 0.70899,0.70898 4.23828,4.23633 0.70703,0.70899 1.41797,-1.41016 -0.70898,-0.70898 -4.24414,-4.24414 z m 8.49024,8.49023 -1.41797,1.41016 0.70898,0.70899 4.24414,4.24414 0.70899,0.70898 1.41015,-1.41797 -0.70898,-0.70898 -4.23633,-4.24414 z m 8.48046,8.48047 -1.41015,1.41797 0.70312,0.70899 4.24414,4.23633 0.70899,0.70898 1.41601,-1.41602 -0.70898,-0.70117 -4.24414,-4.24609 z m 8.49024,8.49024 -1.41797,1.41015 0.70898,0.70899 4.24415,4.24414 0.70117,0.70898 1.41797,-1.41797 -0.70899,-0.70898 -4.23633,-4.24414 z m 8.48047,8.48242 -1.40821,1.41602 0.70118,0.70117 4.24414,4.24609 0.70898,0.70703 1.41602,-1.41601 -0.70703,-0.70117 -4.2461,-4.2461 z m 8.49023,8.48828 -1.41797,1.41016 0.70899,0.70898 4.24414,4.24414 0.70117,0.70117 1.41797,-1.41015 -0.70899,-0.70899 -4.24414,-4.24414 z m 8.48242,8.48242 -1.41015,1.41602 0.70117,0.70117 4.24414,4.24609 0.70898,0.70899 1.41016,-1.41797 -0.70117,-0.70117 -4.24609,-4.24414 z m 8.48828,8.48828 -1.41796,1.41016 0.70898,0.70899 4.24414,4.24414 0.70313,0.70117 1.41601,-1.41016 -0.70898,-0.70703 -4.24414,-4.24609 z m 8.48243,8.48243 -1.41016,1.41796 0.70117,0.70118 4.24414,4.24414 0.70899,0.70898 1.41015,-1.41797 -0.70117,-0.70117 -4.24414,-4.24414 z m 8.48828,8.48242 -1.41602,1.41601 0.70703,0.70899 4.2461,4.24414 0.70117,0.70117 1.41601,-1.41016 -0.70898,-0.70703 -4.24414,-4.24609 z m 8.48242,8.48828 -1.41797,1.41797 0.70899,0.70117 4.24414,4.24414 0.70898,0.70898 1.41016,-1.41796 -0.70117,-0.70899 -4.24415,-4.23633 z m 8.48828,8.48242 -1.41601,1.41602 0.70898,0.70898 4.23633,4.24414 0.70898,0.70117 1.41602,-1.4082 -0.70703,-0.70898 -4.2461,-4.24414 z m 8.48242,8.48828 -1.41797,1.41016 0.70899,0.70898 4.24414,4.24414 0.70898,0.70899 1.41016,-1.41797 -0.70117,-0.70898 -4.24414,-4.23633 z m 8.48243,8.48242 -1.41016,1.41602 0.70898,0.70898 4.23633,4.23829 0.70899,0.70898 1.41796,-1.41016 -0.70898,-0.70898 -4.24414,-4.24414 z m 8.48828,8.48829 -1.41797,1.41015 0.70898,0.70899 4.2461,4.24414 0.70703,0.70898 1.41015,-1.41797 -0.70898,-0.70703 -4.23633,-4.23828 z m 8.48242,8.48242 -1.41016,1.41797 0.70899,0.70703 4.23632,4.23828 0.70899,0.70898 1.41797,-1.41015 -0.70899,-0.70899 -4.24414,-4.24414 z m 8.48828,8.48828 -1.41602,1.41015 0.70704,0.70899 4.24609,4.24414 0.70703,0.70898 1.41016,-1.41601 -0.70704,-0.70899 -4.23828,-4.23828 z m 8.48242,8.48242 -1.41016,1.41797 0.70899,0.70898 4.23633,4.23633 0.70898,0.70899 1.41797,-1.41016 -0.70898,-0.70898 -4.24414,-4.24414 z m 8.48828,8.49023 -1.41601,1.40821 0.70898,0.70898 4.24414,4.2461 0.70899,0.70703 1.41015,-1.41602 -0.70898,-0.70898 -4.23828,-4.23828 z m 8.48242,8.48047 -1.41015,1.41797 0.70898,0.70899 4.23633,4.23633 0.70898,0.70898 1.41797,-1.41016 -0.70898,-0.70898 -4.24414,-4.24414 z m 8.49024,8.49024 -1.41797,1.41015 0.70898,0.70704 4.24415,4.24609 0.70898,0.70703 1.41016,-1.41602 -0.70899,-0.70898 -4.23828,-4.24414 z m 8.48047,8.48047 -1.41016,1.41797 0.70117,0.70898 4.2461,4.23633 0.70703,0.70898 1.41797,-1.41797 -0.70899,-0.70117 -4.24414,-4.24414 z m 8.49023,8.49023 -1.41797,1.41016 0.70899,0.70898 4.24414,4.24414 0.70117,0.70899 1.41797,-1.41797 -0.70899,-0.70899 -4.23632,-4.24414 z m 8.48047,8.48242 -1.41016,1.41602 0.70313,0.70117 4.24414,4.24414 0.70898,0.70899 1.41602,-1.41602 -0.70898,-0.70117 -4.24414,-4.2461 z m 8.49023,8.48828 -1.41796,1.41016 0.70898,0.70899 4.24414,4.24414 0.70117,0.70117 1.41797,-1.41016 -0.70898,-0.70898 -4.24414,-4.24414 z m 8.48047,8.48243 -1.4082,1.41601 0.70117,0.70117 4.24414,4.2461 0.70899,0.70703 1.41015,-1.41602 -0.70117,-0.70117 -4.24609,-4.24609 z m 8.49024,8.48828 -1.41797,1.41015 0.70898,0.70899 4.24414,4.24414 0.70118,0.70117 1.41796,-1.41016 -0.70898,-0.70898 -4.24414,-4.24414 z m 8.48242,8.48242 -1.41016,1.41602 0.70118,0.70117 4.24414,4.24609 0.70898,0.70898 1.41016,-1.41796 -0.70117,-0.70118 -4.2461,-4.24414 z m 8.48828,8.48047 -1.41797,1.41797 0.70899,0.70898 4.24414,4.24414 0.70312,0.70117 1.41602,-1.41015 -0.70899,-0.70703 -4.24414,-4.2461 z m 8.48242,8.49023 -1.41797,1.41797 0.70899,0.70117 4.24414,4.24414 0.70898,0.70899 1.41016,-1.41797 -0.70117,-0.70898 -4.24414,-4.23633 z m 8.48828,8.48242 -1.41601,1.41602 0.70703,0.70898 4.23828,4.24414 0.70899,0.70118 1.41601,-1.41016 -0.70898,-0.70703 -4.24414,-4.24609 z m 8.48243,8.48829 -1.41797,1.41015 0.70898,0.70899 4.24414,4.24414 0.70899,0.70898 1.41015,-1.41797 -0.70117,-0.70898 -4.24414,-4.23633 z m 8.48242,8.48242 -1.41016,1.41601 0.70899,0.70899 4.23632,4.23828 0.70899,0.70898 1.41601,-1.41015 -0.70703,-0.70899 -4.24609,-4.24414 z m 8.48828,8.48828 -1.41797,1.41015 0.70899,0.70899 4.24414,4.24414 0.70898,0.70898 1.41016,-1.41796 -0.70899,-0.70899 -4.23633,-4.23633 z m 8.48242,8.48242 -1.41016,1.41797 0.70899,0.70703 4.23633,4.23828 0.70898,0.70899 1.41797,-1.41016 -0.70898,-0.70898 -4.24414,-4.24414 z m 8.48828,8.48828 -1.41797,1.41016 0.70899,0.70898 4.24609,4.24414 0.70703,0.70899 1.41016,-1.41797 -0.70898,-0.70703 -4.23633,-4.23828 z m 8.48242,8.48242 -1.41015,1.41797 0.70898,0.70703 4.23633,4.23829 0.70898,0.70898 1.41797,-1.41016 -0.70898,-0.70898 -4.24414,-4.24414 z"
         transform="scale(0.26458333)" />
    </g>
    <path
       d="M 150.15007,114.47794 A 40.118568,40.118568 0 0 1 110.0315,154.59651 40.118568,40.118568 0 0 1 69.912926,114.47794 40.118568,40.118568 0 0 1 110.0315,74.359378 40.118568,40.118568 0 0 1 150.15007,114.47794"
       style="opacity:1;fill:none;stroke:#00ffcc;stroke-width:0.472802;stroke-linecap:square;stroke-linejoin:bevel;stroke-miterlimit:4;stroke-dasharray:1.41841, 1.41841;stroke-dashoffset:4.72802;paint-order:stroke fill markers"
       id="path841" />
    <path
       id="path1391"
       style="opacity:1;fill:none;stroke:#00ffcc;stroke-width:0.42;stroke-linecap:square;stroke-linejoin:bevel;stroke-miterlimit:4;stroke-dasharray:2.52, 2.52;stroke-dashoffset:4.2;paint-order:stroke fill markers"
       d="M 145.63936,114.47789 A 35.607878,35.607878 0 0 1 110.03147,150.08577 35.607878,35.607878 0 0 1 74.423588,114.47789 35.607878,35.607878 0 0 1 110.03147,78.870017 35.607878,35.607878 0 0 1 145.63936,114.47789" />
  </g>
</svg>
