<?xml version="1.0" encoding="UTF-8" standalone="no"?>
<svg
   xmlns:dc="http://purl.org/dc/elements/1.1/"
   xmlns:cc="http://creativecommons.org/ns#"
   xmlns:rdf="http://www.w3.org/1999/02/22-rdf-syntax-ns#"
   xmlns:svg="http://www.w3.org/2000/svg"
   xmlns="http://www.w3.org/2000/svg"
   xmlns:xlink="http://www.w3.org/1999/xlink"
   xmlns:sodipodi="http://sodipodi.sourceforge.net/DTD/sodipodi-0.dtd"
   xmlns:inkscape="http://www.inkscape.org/namespaces/inkscape"
   sodipodi:docname="squares.svg"
   inkscape:version="1.0 (4035a4fb49, 2020-05-01)"
   id="svg870"
   version="1.1"
   viewBox="0 0 56.55258 52.860872"
   height="52.860874mm"
   width="56.552582mm">
  <defs
     id="defs864">
    <filter
       id="filter1622"
       inkscape:label="Greyscale"
       style="color-interpolation-filters:sRGB">
      <feColorMatrix
         id="feColorMatrix1620"
         values="0.21 0.72 0.072 0 0 0.21 0.72 0.072 0 0 0.21 0.72 0.072 0 0 0 0 0 1 0 " />
    </filter>
    <linearGradient
       gradientUnits="userSpaceOnUse"
       y2="12.245598"
       x2="23.058598"
       y1="12.245598"
       x1="0.94140184"
       id="linearGradient928"
       xlink:href="#linearGradient926"
       inkscape:collect="always" />
    <linearGradient
       id="linearGradient926"
       inkscape:collect="always">
      <stop
         id="stop922"
         offset="0"
         style="stop-color:#00ffcc;stop-opacity:1;" />
      <stop
         id="stop924"
         offset="1"
         style="stop-color:#d42aff;stop-opacity:1" />
    </linearGradient>
    <linearGradient
       y2="12.245598"
       x2="23.058598"
       y1="12.245598"
       x1="0.94140184"
       gradientUnits="userSpaceOnUse"
       id="linearGradient1591"
       xlink:href="#linearGradient926"
       inkscape:collect="always" />
    <linearGradient
       y2="12.245598"
       x2="23.058598"
       y1="12.245598"
       x1="0.94140184"
       gradientUnits="userSpaceOnUse"
       id="linearGradient1593"
       xlink:href="#linearGradient926"
       inkscape:collect="always" />
    <linearGradient
       y2="12.245598"
       x2="23.058598"
       y1="12.245598"
       x1="0.94140184"
       gradientUnits="userSpaceOnUse"
       id="linearGradient1595"
       xlink:href="#linearGradient926"
       inkscape:collect="always" />
    <linearGradient
       y2="12.245598"
       x2="23.058598"
       y1="12.245598"
       x1="0.94140184"
       gradientUnits="userSpaceOnUse"
       id="linearGradient1597"
       xlink:href="#linearGradient926"
       inkscape:collect="always" />
    <linearGradient
       y2="12.245598"
       x2="23.058598"
       y1="12.245598"
       x1="0.94140184"
       gradientUnits="userSpaceOnUse"
       id="linearGradient1599"
       xlink:href="#linearGradient926"
       inkscape:collect="always" />
    <linearGradient
       y2="12.245598"
       x2="23.058598"
       y1="12.245598"
       x1="0.94140184"
       gradientUnits="userSpaceOnUse"
       id="linearGradient1601"
       xlink:href="#linearGradient926"
       inkscape:collect="always" />
    <linearGradient
       y2="12.245598"
       x2="23.058598"
       y1="12.245598"
       x1="0.94140184"
       gradientUnits="userSpaceOnUse"
       id="linearGradient1603"
       xlink:href="#linearGradient926"
       inkscape:collect="always" />
    <linearGradient
       y2="12.245598"
       x2="23.058598"
       y1="12.245598"
       x1="0.94140184"
       gradientUnits="userSpaceOnUse"
       id="linearGradient1605"
       xlink:href="#linearGradient926"
       inkscape:collect="always" />
    <linearGradient
       y2="12.245598"
       x2="23.058598"
       y1="12.245598"
       x1="0.94140184"
       gradientUnits="userSpaceOnUse"
       id="linearGradient1607"
       xlink:href="#linearGradient926"
       inkscape:collect="always" />
    <linearGradient
       y2="12.245598"
       x2="23.058598"
       y1="12.245598"
       x1="0.94140184"
       gradientUnits="userSpaceOnUse"
       id="linearGradient1609"
       xlink:href="#linearGradient926"
       inkscape:collect="always" />
  </defs>
  <sodipodi:namedview
     inkscape:window-maximized="1"
     inkscape:window-y="-6"
     inkscape:window-x="-6"
     inkscape:window-height="1018"
     inkscape:window-width="1920"
     showgrid="false"
     inkscape:document-rotation="0"
     inkscape:current-layer="layer1"
     inkscape:document-units="mm"
     inkscape:cy="176.70853"
     inkscape:cx="57.485156"
     inkscape:zoom="0.35"
     inkscape:pageshadow="2"
     inkscape:pageopacity="0.0"
     borderopacity="1.0"
     bordercolor="#666666"
     pagecolor="#ffffff"
     id="base" />
  <metadata
     id="metadata867">
    <rdf:RDF>
      <cc:Work
         rdf:about="">
        <dc:format>image/svg+xml</dc:format>
        <dc:type
           rdf:resource="http://purl.org/dc/dcmitype/StillImage" />
        <dc:title></dc:title>
      </cc:Work>
    </rdf:RDF>
  </metadata>
  <g
     transform="translate(104.41199,5.9327006)"
     id="layer1"
     inkscape:groupmode="layer"
     inkscape:label="Layer 1">
    <g
       style="fill:url(#linearGradient928);fill-opacity:1;stroke-width:0.602918"
       transform="matrix(2.556958,0,0,2.5628279,-106.81912,-10.885624)"
       id="g853">
      <path
         id="path876"
         d="M 11.404297,2.0976562 7.0039062,4.7363281 c -0.3490278,0.2094441 -0.5627924,0.5870938 -0.5625,0.9941407 v 4.6386722 a 0.05828533,0.05828533 0 0 0 0.027344,0.05078 L 11.96875,13.95703 a 0.05828533,0.05828533 0 0 0 0.0625,0 l 5.5,-3.537109 a 0.05828533,0.05828533 0 0 0 0.02734,-0.05078 V 5.7304688 C 17.558882,5.3234219 17.345118,4.9457722 16.99609,4.7363281 L 12.595703,2.0976562 c -0.366741,-0.2200738 -0.824665,-0.2200738 -1.191406,0 z m 0.06055,0.099609 c 0.330014,-0.1980344 0.740298,-0.1980344 1.070312,0 l 4.400391,2.640625 c 0.314045,0.188452 0.506122,0.5263286 0.505859,0.8925782 v 4.6074226 l -5.441406,3.5 -5.4414062,-3.5 V 5.7304688 C 6.5583306,5.3642192 6.7504075,5.0263426 7.0644531,4.8378906 Z"
         style="color:#000000;font-style:normal;font-variant:normal;font-weight:normal;font-stretch:normal;font-size:medium;line-height:normal;font-family:sans-serif;font-variant-ligatures:normal;font-variant-position:normal;font-variant-caps:normal;font-variant-numeric:normal;font-variant-alternates:normal;font-variant-east-asian:normal;font-feature-settings:normal;font-variation-settings:normal;text-indent:0;text-align:start;text-decoration:none;text-decoration-line:none;text-decoration-style:solid;text-decoration-color:#000000;letter-spacing:normal;word-spacing:normal;text-transform:none;writing-mode:lr-tb;direction:ltr;text-orientation:mixed;dominant-baseline:auto;baseline-shift:baseline;text-anchor:start;white-space:normal;shape-padding:0;shape-margin:0;inline-size:0;clip-rule:nonzero;display:inline;overflow:visible;visibility:visible;opacity:1;isolation:auto;mix-blend-mode:normal;color-interpolation:sRGB;color-interpolation-filters:linearRGB;solid-color:#000000;solid-opacity:1;vector-effect:none;fill:url(#linearGradient1591);fill-opacity:1;fill-rule:nonzero;stroke:none;stroke-width:0.116559;stroke-linecap:round;stroke-linejoin:round;stroke-miterlimit:4;stroke-dasharray:none;stroke-dashoffset:0;stroke-opacity:1;color-rendering:auto;image-rendering:auto;shape-rendering:auto;text-rendering:auto;enable-background:accumulate;stop-color:#000000;stop-opacity:1" />
      <path
         id="path880"
         d="m 12,8.3496094 a 0.0582795,0.0582795 0 0 0 -0.05859,0.058594 V 13.908203 A 0.0582795,0.0582795 0 0 0 12,13.966797 0.0582795,0.0582795 0 0 0 12.05859,13.908207 V 8.4082031 A 0.0582795,0.0582795 0 0 0 12,8.3496094 Z"
         style="color:#000000;font-style:normal;font-variant:normal;font-weight:normal;font-stretch:normal;font-size:medium;line-height:normal;font-family:sans-serif;font-variant-ligatures:normal;font-variant-position:normal;font-variant-caps:normal;font-variant-numeric:normal;font-variant-alternates:normal;font-variant-east-asian:normal;font-feature-settings:normal;font-variation-settings:normal;text-indent:0;text-align:start;text-decoration:none;text-decoration-line:none;text-decoration-style:solid;text-decoration-color:#000000;letter-spacing:normal;word-spacing:normal;text-transform:none;writing-mode:lr-tb;direction:ltr;text-orientation:mixed;dominant-baseline:auto;baseline-shift:baseline;text-anchor:start;white-space:normal;shape-padding:0;shape-margin:0;inline-size:0;clip-rule:nonzero;display:inline;overflow:visible;visibility:visible;opacity:1;isolation:auto;mix-blend-mode:normal;color-interpolation:sRGB;color-interpolation-filters:linearRGB;solid-color:#000000;solid-opacity:1;vector-effect:none;fill:url(#linearGradient1593);fill-opacity:1;fill-rule:nonzero;stroke:none;stroke-width:0.116559;stroke-linecap:round;stroke-linejoin:round;stroke-miterlimit:4;stroke-dasharray:none;stroke-dashoffset:0;stroke-opacity:1;color-rendering:auto;image-rendering:auto;shape-rendering:auto;text-rendering:auto;enable-background:accumulate;stop-color:#000000;stop-opacity:1" />
      <path
         id="path884"
         d="m 17.492188,10.3125 a 0.05828533,0.05828533 0 0 0 -0.02344,0.0078 l -5.5,3.539063 a 0.05828533,0.05828533 0 0 0 -0.002,0.002 0.0582795,0.0582795 0 0 0 -0.0078,0.0078 0.05828533,0.05828533 0 0 0 -0.0078,0.0059 0.0582795,0.0582795 0 0 0 -0.0039,0.01367 0.05828533,0.05828533 0 0 0 -0.002,0.0059 0.0582795,0.0582795 0 0 0 -0.0039,0.01367 0.05828533,0.05828533 0 0 0 0,0.002 v 5.259766 a 0.05828533,0.05828533 0 0 0 0.02734,0.04883 l 4.910156,3.15625 v -0.002 c 0.381508,0.245352 0.870446,0.245352 1.251953,0 l 4.400391,-2.828125 a 0.05828533,0.05828533 0 0 0 0,-0.002 c 0.329295,-0.214301 0.528431,-0.579771 0.527344,-0.972657 v -4.0625 c 0.0011,-0.392885 -0.198049,-0.760309 -0.527344,-0.974609 l -5,-3.212891 a 0.05828533,0.05828533 0 0 0 -0.03906,-0.0078 z m 0.0078,0.126953 4.96875,3.193359 c 0.296274,0.192811 0.473634,0.521513 0.472656,0.875 v 4.0625 c 9.78e-4,0.353488 -0.176382,0.68219 -0.472656,0.875 l -4.400391,2.830079 c -0.343346,0.22081 -0.783606,0.22081 -1.126953,0 l -4.882812,-3.136719 v -5.128906 l 5.412109,3.248046 a 0.0582795,0.0582795 0 0 0 0.08008,-0.01953 0.0582795,0.0582795 0 0 0 -0.02148,-0.08008 L 12.111328,13.90625 Z"
         style="color:#000000;font-style:normal;font-variant:normal;font-weight:normal;font-stretch:normal;font-size:medium;line-height:normal;font-family:sans-serif;font-variant-ligatures:normal;font-variant-position:normal;font-variant-caps:normal;font-variant-numeric:normal;font-variant-alternates:normal;font-variant-east-asian:normal;font-feature-settings:normal;font-variation-settings:normal;text-indent:0;text-align:start;text-decoration:none;text-decoration-line:none;text-decoration-style:solid;text-decoration-color:#000000;letter-spacing:normal;word-spacing:normal;text-transform:none;writing-mode:lr-tb;direction:ltr;text-orientation:mixed;dominant-baseline:auto;baseline-shift:baseline;text-anchor:start;white-space:normal;shape-padding:0;shape-margin:0;inline-size:0;clip-rule:nonzero;display:inline;overflow:visible;visibility:visible;opacity:1;isolation:auto;mix-blend-mode:normal;color-interpolation:sRGB;color-interpolation-filters:linearRGB;solid-color:#000000;solid-opacity:1;vector-effect:none;fill:url(#linearGradient1595);fill-opacity:1;fill-rule:nonzero;stroke:none;stroke-width:0.116559;stroke-linecap:round;stroke-linejoin:round;stroke-miterlimit:4;stroke-dasharray:none;stroke-dashoffset:0;stroke-opacity:1;color-rendering:auto;image-rendering:auto;shape-rendering:auto;text-rendering:auto;enable-background:accumulate;stop-color:#000000;stop-opacity:1" />
      <path
         id="path888"
         d="m 17.5,17.150391 a 0.0582795,0.0582795 0 0 0 -0.05859,0.05664 V 22.5 A 0.0582795,0.0582795 0 0 0 17.5,22.558594 0.0582795,0.0582795 0 0 0 17.558594,22.5 V 17.207031 A 0.0582795,0.0582795 0 0 0 17.5,17.150391 Z"
         style="color:#000000;font-style:normal;font-variant:normal;font-weight:normal;font-stretch:normal;font-size:medium;line-height:normal;font-family:sans-serif;font-variant-ligatures:normal;font-variant-position:normal;font-variant-caps:normal;font-variant-numeric:normal;font-variant-alternates:normal;font-variant-east-asian:normal;font-feature-settings:normal;font-variation-settings:normal;text-indent:0;text-align:start;text-decoration:none;text-decoration-line:none;text-decoration-style:solid;text-decoration-color:#000000;letter-spacing:normal;word-spacing:normal;text-transform:none;writing-mode:lr-tb;direction:ltr;text-orientation:mixed;dominant-baseline:auto;baseline-shift:baseline;text-anchor:start;white-space:normal;shape-padding:0;shape-margin:0;inline-size:0;clip-rule:nonzero;display:inline;overflow:visible;visibility:visible;opacity:1;isolation:auto;mix-blend-mode:normal;color-interpolation:sRGB;color-interpolation-filters:linearRGB;solid-color:#000000;solid-opacity:1;vector-effect:none;fill:url(#linearGradient1597);fill-opacity:1;fill-rule:nonzero;stroke:none;stroke-width:0.116559;stroke-linecap:round;stroke-linejoin:round;stroke-miterlimit:4;stroke-dasharray:none;stroke-dashoffset:0;stroke-opacity:1;color-rendering:auto;image-rendering:auto;shape-rendering:auto;text-rendering:auto;enable-background:accumulate;stop-color:#000000;stop-opacity:1" />
      <path
         id="path892"
         d="m 6.4921875,10.3125 a 0.05828533,0.05828533 0 0 0 -0.023437,0.0078 l -5,3.212891 c -0.3292952,0.2143 -0.52843055,0.581724 -0.52734375,0.974609 v 4.0625 c 0.001217,0.394924 0.20379615,0.762788 0.53710935,0.97461 l 4.4003906,2.828125 c 0.3815078,0.245352 0.8704454,0.245352 1.2519532,0 L 12.03125,19.21875 a 0.05828533,0.05828533 0 0 0 0.02734,-0.04883 v -5.261719 a 0.0582795,0.0582795 0 0 0 0,-0.002 0.05828533,0.05828533 0 0 0 -0.0039,-0.01758 0.0582795,0.0582795 0 0 0 0,-0.002 0.05828533,0.05828533 0 0 0 -0.0098,-0.01563 0.05828533,0.05828533 0 0 0 -0.01172,-0.0098 0.05828533,0.05828533 0 0 0 -0.002,-0.002 l -0.002,-0.002 a 0.0582795,0.0582795 0 0 0 -0.002,0 L 6.53125,10.320312 A 0.05828533,0.05828533 0 0 0 6.4921875,10.3125 Z M 6.5,10.439453 11.888672,13.90625 6.4707031,17.158203 a 0.0582795,0.0582795 0 0 0 -0.021484,0.08008 0.0582795,0.0582795 0 0 0 0.080078,0.01953 l 5.4121089,-3.248046 v 5.128906 l -4.8730464,3.136719 c -0.3433465,0.22081 -0.7836067,0.22081 -1.1269532,0 L 1.5410156,19.445312 C 1.241124,19.25473 1.0596885,18.925637 1.0585938,18.570312 v -4.0625 c -9.779e-4,-0.353487 0.176382,-0.682189 0.4726562,-0.875 z"
         style="color:#000000;font-style:normal;font-variant:normal;font-weight:normal;font-stretch:normal;font-size:medium;line-height:normal;font-family:sans-serif;font-variant-ligatures:normal;font-variant-position:normal;font-variant-caps:normal;font-variant-numeric:normal;font-variant-alternates:normal;font-variant-east-asian:normal;font-feature-settings:normal;font-variation-settings:normal;text-indent:0;text-align:start;text-decoration:none;text-decoration-line:none;text-decoration-style:solid;text-decoration-color:#000000;letter-spacing:normal;word-spacing:normal;text-transform:none;writing-mode:lr-tb;direction:ltr;text-orientation:mixed;dominant-baseline:auto;baseline-shift:baseline;text-anchor:start;white-space:normal;shape-padding:0;shape-margin:0;inline-size:0;clip-rule:nonzero;display:inline;overflow:visible;visibility:visible;opacity:1;isolation:auto;mix-blend-mode:normal;color-interpolation:sRGB;color-interpolation-filters:linearRGB;solid-color:#000000;solid-opacity:1;vector-effect:none;fill:url(#linearGradient1599);fill-opacity:1;fill-rule:nonzero;stroke:none;stroke-width:0.116559;stroke-linecap:round;stroke-linejoin:round;stroke-miterlimit:4;stroke-dasharray:none;stroke-dashoffset:0;stroke-opacity:1;color-rendering:auto;image-rendering:auto;shape-rendering:auto;text-rendering:auto;enable-background:accumulate;stop-color:#000000;stop-opacity:1" />
      <path
         id="path896"
         d="m 1.1210938,13.929688 a 0.0582795,0.0582795 0 0 0 -0.041016,0.02734 0.0582795,0.0582795 0 0 0 0.021484,0.08008 l 5.3691406,3.220703 a 0.0582795,0.0582795 0 0 0 0.080078,-0.01953 0.0582795,0.0582795 0 0 0 -0.021484,-0.08008 L 1.1601562,13.9375 a 0.0582795,0.0582795 0 0 0 -0.039062,-0.0078 z"
         style="color:#000000;font-style:normal;font-variant:normal;font-weight:normal;font-stretch:normal;font-size:medium;line-height:normal;font-family:sans-serif;font-variant-ligatures:normal;font-variant-position:normal;font-variant-caps:normal;font-variant-numeric:normal;font-variant-alternates:normal;font-variant-east-asian:normal;font-feature-settings:normal;font-variation-settings:normal;text-indent:0;text-align:start;text-decoration:none;text-decoration-line:none;text-decoration-style:solid;text-decoration-color:#000000;letter-spacing:normal;word-spacing:normal;text-transform:none;writing-mode:lr-tb;direction:ltr;text-orientation:mixed;dominant-baseline:auto;baseline-shift:baseline;text-anchor:start;white-space:normal;shape-padding:0;shape-margin:0;inline-size:0;clip-rule:nonzero;display:inline;overflow:visible;visibility:visible;opacity:1;isolation:auto;mix-blend-mode:normal;color-interpolation:sRGB;color-interpolation-filters:linearRGB;solid-color:#000000;solid-opacity:1;vector-effect:none;fill:url(#linearGradient1601);fill-opacity:1;fill-rule:nonzero;stroke:none;stroke-width:0.116559;stroke-linecap:round;stroke-linejoin:round;stroke-miterlimit:4;stroke-dasharray:none;stroke-dashoffset:0;stroke-opacity:1;color-rendering:auto;image-rendering:auto;shape-rendering:auto;text-rendering:auto;enable-background:accumulate;stop-color:#000000;stop-opacity:1" />
      <path
         id="path900"
         d="m 6.5,17.150391 a 0.0582795,0.0582795 0 0 0 -0.058594,0.05664 V 22.5 A 0.0582795,0.0582795 0 0 0 6.5,22.558594 0.0582795,0.0582795 0 0 0 6.5585938,22.5 V 17.207031 A 0.0582795,0.0582795 0 0 0 6.5,17.150391 Z"
         style="color:#000000;font-style:normal;font-variant:normal;font-weight:normal;font-stretch:normal;font-size:medium;line-height:normal;font-family:sans-serif;font-variant-ligatures:normal;font-variant-position:normal;font-variant-caps:normal;font-variant-numeric:normal;font-variant-alternates:normal;font-variant-east-asian:normal;font-feature-settings:normal;font-variation-settings:normal;text-indent:0;text-align:start;text-decoration:none;text-decoration-line:none;text-decoration-style:solid;text-decoration-color:#000000;letter-spacing:normal;word-spacing:normal;text-transform:none;writing-mode:lr-tb;direction:ltr;text-orientation:mixed;dominant-baseline:auto;baseline-shift:baseline;text-anchor:start;white-space:normal;shape-padding:0;shape-margin:0;inline-size:0;clip-rule:nonzero;display:inline;overflow:visible;visibility:visible;opacity:1;isolation:auto;mix-blend-mode:normal;color-interpolation:sRGB;color-interpolation-filters:linearRGB;solid-color:#000000;solid-opacity:1;vector-effect:none;fill:url(#linearGradient1603);fill-opacity:1;fill-rule:nonzero;stroke:none;stroke-width:0.116559;stroke-linecap:round;stroke-linejoin:round;stroke-miterlimit:4;stroke-dasharray:none;stroke-dashoffset:0;stroke-opacity:1;color-rendering:auto;image-rendering:auto;shape-rendering:auto;text-rendering:auto;enable-background:accumulate;stop-color:#000000;stop-opacity:1" />
      <path
         id="path904"
         d="m 6.6328125,5.1347656 a 0.0582795,0.0582795 0 0 0 -0.041016,0.027344 0.0582795,0.0582795 0 0 0 0.019531,0.080078 L 11.970703,8.4570312 A 0.0582795,0.0582795 0 0 0 12.050781,8.4375 0.0582795,0.0582795 0 0 0 12.029297,8.3574219 L 6.671875,5.1425781 a 0.0582795,0.0582795 0 0 0 -0.039063,-0.00781 z"
         style="color:#000000;font-style:normal;font-variant:normal;font-weight:normal;font-stretch:normal;font-size:medium;line-height:normal;font-family:sans-serif;font-variant-ligatures:normal;font-variant-position:normal;font-variant-caps:normal;font-variant-numeric:normal;font-variant-alternates:normal;font-variant-east-asian:normal;font-feature-settings:normal;font-variation-settings:normal;text-indent:0;text-align:start;text-decoration:none;text-decoration-line:none;text-decoration-style:solid;text-decoration-color:#000000;letter-spacing:normal;word-spacing:normal;text-transform:none;writing-mode:lr-tb;direction:ltr;text-orientation:mixed;dominant-baseline:auto;baseline-shift:baseline;text-anchor:start;white-space:normal;shape-padding:0;shape-margin:0;inline-size:0;clip-rule:nonzero;display:inline;overflow:visible;visibility:visible;opacity:1;isolation:auto;mix-blend-mode:normal;color-interpolation:sRGB;color-interpolation-filters:linearRGB;solid-color:#000000;solid-opacity:1;vector-effect:none;fill:url(#linearGradient1605);fill-opacity:1;fill-rule:nonzero;stroke:none;stroke-width:0.116559;stroke-linecap:round;stroke-linejoin:round;stroke-miterlimit:4;stroke-dasharray:none;stroke-dashoffset:0;stroke-opacity:1;color-rendering:auto;image-rendering:auto;shape-rendering:auto;text-rendering:auto;enable-background:accumulate;stop-color:#000000;stop-opacity:1" />
      <path
         id="path908"
         d="m 17.357422,5.1328125 a 0.0582795,0.0582795 0 0 0 -0.0293,0.00977 L 11.9707,8.3574263 a 0.0582795,0.0582795 0 0 0 -0.02148,0.080078 0.0582795,0.0582795 0 0 0 0.08008,0.019531 l 5.359375,-3.2148437 a 0.0582795,0.0582795 0 0 0 0.01953,-0.080078 0.0582795,0.0582795 0 0 0 -0.05078,-0.029297 z"
         style="color:#000000;font-style:normal;font-variant:normal;font-weight:normal;font-stretch:normal;font-size:medium;line-height:normal;font-family:sans-serif;font-variant-ligatures:normal;font-variant-position:normal;font-variant-caps:normal;font-variant-numeric:normal;font-variant-alternates:normal;font-variant-east-asian:normal;font-feature-settings:normal;font-variation-settings:normal;text-indent:0;text-align:start;text-decoration:none;text-decoration-line:none;text-decoration-style:solid;text-decoration-color:#000000;letter-spacing:normal;word-spacing:normal;text-transform:none;writing-mode:lr-tb;direction:ltr;text-orientation:mixed;dominant-baseline:auto;baseline-shift:baseline;text-anchor:start;white-space:normal;shape-padding:0;shape-margin:0;inline-size:0;clip-rule:nonzero;display:inline;overflow:visible;visibility:visible;opacity:1;isolation:auto;mix-blend-mode:normal;color-interpolation:sRGB;color-interpolation-filters:linearRGB;solid-color:#000000;solid-opacity:1;vector-effect:none;fill:url(#linearGradient1607);fill-opacity:1;fill-rule:nonzero;stroke:none;stroke-width:0.116559;stroke-linecap:round;stroke-linejoin:round;stroke-miterlimit:4;stroke-dasharray:none;stroke-dashoffset:0;stroke-opacity:1;color-rendering:auto;image-rendering:auto;shape-rendering:auto;text-rendering:auto;enable-background:accumulate;stop-color:#000000;stop-opacity:1" />
      <path
         id="path912"
         d="m 22.867188,13.929688 a 0.0582795,0.0582795 0 0 0 -0.02734,0.0078 l -5.369141,3.220703 a 0.0582795,0.0582795 0 0 0 -0.02148,0.08008 0.0582795,0.0582795 0 0 0 0.08008,0.01953 l 5.369141,-3.220703 a 0.0582795,0.0582795 0 0 0 0.02148,-0.08008 0.0582795,0.0582795 0 0 0 -0.05273,-0.02734 z"
         style="color:#000000;font-style:normal;font-variant:normal;font-weight:normal;font-stretch:normal;font-size:medium;line-height:normal;font-family:sans-serif;font-variant-ligatures:normal;font-variant-position:normal;font-variant-caps:normal;font-variant-numeric:normal;font-variant-alternates:normal;font-variant-east-asian:normal;font-feature-settings:normal;font-variation-settings:normal;text-indent:0;text-align:start;text-decoration:none;text-decoration-line:none;text-decoration-style:solid;text-decoration-color:#000000;letter-spacing:normal;word-spacing:normal;text-transform:none;writing-mode:lr-tb;direction:ltr;text-orientation:mixed;dominant-baseline:auto;baseline-shift:baseline;text-anchor:start;white-space:normal;shape-padding:0;shape-margin:0;inline-size:0;clip-rule:nonzero;display:inline;overflow:visible;visibility:visible;opacity:1;isolation:auto;mix-blend-mode:normal;color-interpolation:sRGB;color-interpolation-filters:linearRGB;solid-color:#000000;solid-opacity:1;vector-effect:none;fill:url(#linearGradient1609);fill-opacity:1;fill-rule:nonzero;stroke:none;stroke-width:0.116559;stroke-linecap:round;stroke-linejoin:round;stroke-miterlimit:4;stroke-dasharray:none;stroke-dashoffset:0;stroke-opacity:1;color-rendering:auto;image-rendering:auto;shape-rendering:auto;text-rendering:auto;enable-background:accumulate;stop-color:#000000;stop-opacity:1" />
    </g>
  </g>
</svg>
