<?xml version="1.0" encoding="UTF-8" standalone="no"?>
<svg
   xmlns:dc="http://purl.org/dc/elements/1.1/"
   xmlns:cc="http://creativecommons.org/ns#"
   xmlns:rdf="http://www.w3.org/1999/02/22-rdf-syntax-ns#"
   xmlns:svg="http://www.w3.org/2000/svg"
   xmlns="http://www.w3.org/2000/svg"
   xmlns:xlink="http://www.w3.org/1999/xlink"
   xmlns:sodipodi="http://sodipodi.sourceforge.net/DTD/sodipodi-0.dtd"
   xmlns:inkscape="http://www.inkscape.org/namespaces/inkscape"
   sodipodi:docname="swirl.svg"
   inkscape:version="1.0 (4035a4fb49, 2020-05-01)"
   id="svg8"
   version="1.1"
   viewBox="0 0 247.7686 231.57819"
   height="231.57819mm"
   width="247.7686mm">
  <defs
     id="defs2">
    <linearGradient
       id="linearGradient1518"
       inkscape:collect="always">
      <stop
         id="stop1514"
         offset="0"
         style="stop-color:#00ffff;stop-opacity:0.28629032" />
      <stop
         id="stop1516"
         offset="1"
         style="stop-color:#00ffff;stop-opacity:0;" />
    </linearGradient>
    <inkscape:path-effect
       lpeversion="1"
       is_visible="true"
       id="path-effect1130"
       effect="spiro" />
    <inkscape:path-effect
       lpeversion="1"
       is_visible="true"
       id="path-effect1126"
       effect="spiro" />
    <inkscape:path-effect
       lpeversion="1"
       is_visible="true"
       id="path-effect1098"
       effect="spiro" />
    <inkscape:path-effect
       lpeversion="1"
       is_visible="true"
       id="path-effect1094"
       effect="spiro" />
    <inkscape:path-effect
       lpeversion="1"
       is_visible="true"
       id="path-effect1090"
       effect="spiro" />
    <radialGradient
       r="191.81512"
       fy="64.926903"
       fx="-17.531048"
       cy="64.926903"
       cx="-17.531048"
       gradientTransform="matrix(0.6465595,-0.76286356,0.34052715,0.28861133,-28.305555,32.814466)"
       gradientUnits="userSpaceOnUse"
       id="radialGradient1930"
       xlink:href="#linearGradient1518"
       inkscape:collect="always" />
    <radialGradient
       r="191.81512"
       fy="64.926903"
       fx="-17.531048"
       cy="64.926903"
       cx="-17.531048"
       gradientTransform="matrix(0.6465595,-0.76286356,0.34052715,0.28861133,-28.305555,32.814466)"
       gradientUnits="userSpaceOnUse"
       id="radialGradient1932"
       xlink:href="#linearGradient1518"
       inkscape:collect="always" />
    <radialGradient
       r="191.81512"
       fy="64.926903"
       fx="-17.531048"
       cy="64.926903"
       cx="-17.531048"
       gradientTransform="matrix(0.6465595,-0.76286356,0.34052715,0.28861133,-28.305555,32.814466)"
       gradientUnits="userSpaceOnUse"
       id="radialGradient1934"
       xlink:href="#linearGradient1518"
       inkscape:collect="always" />
    <radialGradient
       r="191.81512"
       fy="64.926903"
       fx="-17.531048"
       cy="64.926903"
       cx="-17.531048"
       gradientTransform="matrix(0.6465595,-0.76286356,0.34052715,0.28861133,-28.305555,32.814466)"
       gradientUnits="userSpaceOnUse"
       id="radialGradient1936"
       xlink:href="#linearGradient1518"
       inkscape:collect="always" />
    <radialGradient
       r="191.81512"
       fy="64.926903"
       fx="-17.531048"
       cy="64.926903"
       cx="-17.531048"
       gradientTransform="matrix(0.6465595,-0.76286356,0.34052715,0.28861133,-28.305555,32.814466)"
       gradientUnits="userSpaceOnUse"
       id="radialGradient1938"
       xlink:href="#linearGradient1518"
       inkscape:collect="always" />
    <radialGradient
       r="191.81512"
       fy="64.926903"
       fx="-17.531048"
       cy="64.926903"
       cx="-17.531048"
       gradientTransform="matrix(0.6465595,-0.76286356,0.34052715,0.28861133,-28.305555,32.814466)"
       gradientUnits="userSpaceOnUse"
       id="radialGradient1940"
       xlink:href="#linearGradient1518"
       inkscape:collect="always" />
    <radialGradient
       r="191.81512"
       fy="64.926903"
       fx="-17.531048"
       cy="64.926903"
       cx="-17.531048"
       gradientTransform="matrix(0.6465595,-0.76286356,0.34052715,0.28861133,-28.305555,32.814466)"
       gradientUnits="userSpaceOnUse"
       id="radialGradient1942"
       xlink:href="#linearGradient1518"
       inkscape:collect="always" />
    <radialGradient
       r="191.81512"
       fy="64.926903"
       fx="-17.531048"
       cy="64.926903"
       cx="-17.531048"
       gradientTransform="matrix(0.6465595,-0.76286356,0.34052715,0.28861133,-28.305555,32.814466)"
       gradientUnits="userSpaceOnUse"
       id="radialGradient1944"
       xlink:href="#linearGradient1518"
       inkscape:collect="always" />
    <radialGradient
       r="191.81512"
       fy="64.926903"
       fx="-17.531048"
       cy="64.926903"
       cx="-17.531048"
       gradientTransform="matrix(0.6465595,-0.76286356,0.34052715,0.28861133,-28.305555,32.814466)"
       gradientUnits="userSpaceOnUse"
       id="radialGradient1946"
       xlink:href="#linearGradient1518"
       inkscape:collect="always" />
    <radialGradient
       r="191.81512"
       fy="64.926903"
       fx="-17.531048"
       cy="64.926903"
       cx="-17.531048"
       gradientTransform="matrix(0.6465595,-0.76286356,0.34052715,0.28861133,-28.305555,32.814466)"
       gradientUnits="userSpaceOnUse"
       id="radialGradient1948"
       xlink:href="#linearGradient1518"
       inkscape:collect="always" />
    <radialGradient
       r="191.81512"
       fy="64.926903"
       fx="-17.531048"
       cy="64.926903"
       cx="-17.531048"
       gradientTransform="matrix(0.6465595,-0.76286356,0.34052715,0.28861133,-28.305555,32.814466)"
       gradientUnits="userSpaceOnUse"
       id="radialGradient1950"
       xlink:href="#linearGradient1518"
       inkscape:collect="always" />
    <radialGradient
       r="191.81512"
       fy="64.926903"
       fx="-17.531048"
       cy="64.926903"
       cx="-17.531048"
       gradientTransform="matrix(0.6465595,-0.76286356,0.34052715,0.28861133,-28.305555,32.814466)"
       gradientUnits="userSpaceOnUse"
       id="radialGradient1952"
       xlink:href="#linearGradient1518"
       inkscape:collect="always" />
    <radialGradient
       r="191.81512"
       fy="64.926903"
       fx="-17.531048"
       cy="64.926903"
       cx="-17.531048"
       gradientTransform="matrix(0.6465595,-0.76286356,0.34052715,0.28861133,-28.305555,32.814466)"
       gradientUnits="userSpaceOnUse"
       id="radialGradient1954"
       xlink:href="#linearGradient1518"
       inkscape:collect="always" />
    <radialGradient
       r="191.81512"
       fy="64.926903"
       fx="-17.531048"
       cy="64.926903"
       cx="-17.531048"
       gradientTransform="matrix(0.6465595,-0.76286356,0.34052715,0.28861133,-28.305555,32.814466)"
       gradientUnits="userSpaceOnUse"
       id="radialGradient1956"
       xlink:href="#linearGradient1518"
       inkscape:collect="always" />
    <radialGradient
       r="191.81512"
       fy="64.926903"
       fx="-17.531048"
       cy="64.926903"
       cx="-17.531048"
       gradientTransform="matrix(0.6465595,-0.76286356,0.34052715,0.28861133,-28.305555,32.814466)"
       gradientUnits="userSpaceOnUse"
       id="radialGradient1958"
       xlink:href="#linearGradient1518"
       inkscape:collect="always" />
    <radialGradient
       r="191.81512"
       fy="64.926903"
       fx="-17.531048"
       cy="64.926903"
       cx="-17.531048"
       gradientTransform="matrix(0.6465595,-0.76286356,0.34052715,0.28861133,-28.305555,32.814466)"
       gradientUnits="userSpaceOnUse"
       id="radialGradient1960"
       xlink:href="#linearGradient1518"
       inkscape:collect="always" />
    <radialGradient
       r="191.81512"
       fy="64.926903"
       fx="-17.531048"
       cy="64.926903"
       cx="-17.531048"
       gradientTransform="matrix(0.6465595,-0.76286356,0.34052715,0.28861133,-28.305555,32.814466)"
       gradientUnits="userSpaceOnUse"
       id="radialGradient1962"
       xlink:href="#linearGradient1518"
       inkscape:collect="always" />
    <radialGradient
       r="191.81512"
       fy="64.926903"
       fx="-17.531048"
       cy="64.926903"
       cx="-17.531048"
       gradientTransform="matrix(0.6465595,-0.76286356,0.34052715,0.28861133,-28.305555,32.814466)"
       gradientUnits="userSpaceOnUse"
       id="radialGradient1964"
       xlink:href="#linearGradient1518"
       inkscape:collect="always" />
    <radialGradient
       r="191.81512"
       fy="64.926903"
       fx="-17.531048"
       cy="64.926903"
       cx="-17.531048"
       gradientTransform="matrix(0.6465595,-0.76286356,0.34052715,0.28861133,-28.305555,32.814466)"
       gradientUnits="userSpaceOnUse"
       id="radialGradient1966"
       xlink:href="#linearGradient1518"
       inkscape:collect="always" />
    <radialGradient
       r="191.81512"
       fy="64.926903"
       fx="-17.531048"
       cy="64.926903"
       cx="-17.531048"
       gradientTransform="matrix(0.6465595,-0.76286356,0.34052715,0.28861133,-28.305555,32.814466)"
       gradientUnits="userSpaceOnUse"
       id="radialGradient1968"
       xlink:href="#linearGradient1518"
       inkscape:collect="always" />
    <radialGradient
       r="191.81512"
       fy="64.926903"
       fx="-17.531048"
       cy="64.926903"
       cx="-17.531048"
       gradientTransform="matrix(0.6465595,-0.76286356,0.34052715,0.28861133,-28.305555,32.814466)"
       gradientUnits="userSpaceOnUse"
       id="radialGradient1970"
       xlink:href="#linearGradient1518"
       inkscape:collect="always" />
    <radialGradient
       r="191.81512"
       fy="64.926903"
       fx="-17.531048"
       cy="64.926903"
       cx="-17.531048"
       gradientTransform="matrix(0.6465595,-0.76286356,0.34052715,0.28861133,-28.305555,32.814466)"
       gradientUnits="userSpaceOnUse"
       id="radialGradient1972"
       xlink:href="#linearGradient1518"
       inkscape:collect="always" />
    <radialGradient
       r="191.81512"
       fy="64.926903"
       fx="-17.531048"
       cy="64.926903"
       cx="-17.531048"
       gradientTransform="matrix(0.6465595,-0.76286356,0.34052715,0.28861133,-28.305555,32.814466)"
       gradientUnits="userSpaceOnUse"
       id="radialGradient1974"
       xlink:href="#linearGradient1518"
       inkscape:collect="always" />
    <radialGradient
       r="191.81512"
       fy="64.926903"
       fx="-17.531048"
       cy="64.926903"
       cx="-17.531048"
       gradientTransform="matrix(0.6465595,-0.76286356,0.34052715,0.28861133,-28.305555,32.814466)"
       gradientUnits="userSpaceOnUse"
       id="radialGradient1976"
       xlink:href="#linearGradient1518"
       inkscape:collect="always" />
    <radialGradient
       r="191.81512"
       fy="64.926903"
       fx="-17.531048"
       cy="64.926903"
       cx="-17.531048"
       gradientTransform="matrix(0.6465595,-0.76286356,0.34052715,0.28861133,-28.305555,32.814466)"
       gradientUnits="userSpaceOnUse"
       id="radialGradient1978"
       xlink:href="#linearGradient1518"
       inkscape:collect="always" />
    <radialGradient
       r="191.81512"
       fy="64.926903"
       fx="-17.531048"
       cy="64.926903"
       cx="-17.531048"
       gradientTransform="matrix(0.6465595,-0.76286356,0.34052715,0.28861133,-28.305555,32.814466)"
       gradientUnits="userSpaceOnUse"
       id="radialGradient1980"
       xlink:href="#linearGradient1518"
       inkscape:collect="always" />
    <radialGradient
       r="191.81512"
       fy="64.926903"
       fx="-17.531048"
       cy="64.926903"
       cx="-17.531048"
       gradientTransform="matrix(0.6465595,-0.76286356,0.34052715,0.28861133,-28.305555,32.814466)"
       gradientUnits="userSpaceOnUse"
       id="radialGradient1982"
       xlink:href="#linearGradient1518"
       inkscape:collect="always" />
    <radialGradient
       r="191.81512"
       fy="64.926903"
       fx="-17.531048"
       cy="64.926903"
       cx="-17.531048"
       gradientTransform="matrix(0.6465595,-0.76286356,0.34052715,0.28861133,-28.305555,32.814466)"
       gradientUnits="userSpaceOnUse"
       id="radialGradient1984"
       xlink:href="#linearGradient1518"
       inkscape:collect="always" />
    <radialGradient
       r="191.81512"
       fy="64.926903"
       fx="-17.531048"
       cy="64.926903"
       cx="-17.531048"
       gradientTransform="matrix(0.6465595,-0.76286356,0.34052715,0.28861133,-28.305555,32.814466)"
       gradientUnits="userSpaceOnUse"
       id="radialGradient1986"
       xlink:href="#linearGradient1518"
       inkscape:collect="always" />
    <radialGradient
       r="191.81512"
       fy="64.926903"
       fx="-17.531048"
       cy="64.926903"
       cx="-17.531048"
       gradientTransform="matrix(0.6465595,-0.76286356,0.34052715,0.28861133,-28.305555,32.814466)"
       gradientUnits="userSpaceOnUse"
       id="radialGradient1988"
       xlink:href="#linearGradient1518"
       inkscape:collect="always" />
    <radialGradient
       r="191.81512"
       fy="64.926903"
       fx="-17.531048"
       cy="64.926903"
       cx="-17.531048"
       gradientTransform="matrix(0.6465595,-0.76286356,0.34052715,0.28861133,-28.305555,32.814466)"
       gradientUnits="userSpaceOnUse"
       id="radialGradient1990"
       xlink:href="#linearGradient1518"
       inkscape:collect="always" />
    <radialGradient
       r="191.81512"
       fy="64.926903"
       fx="-17.531048"
       cy="64.926903"
       cx="-17.531048"
       gradientTransform="matrix(0.6465595,-0.76286356,0.34052715,0.28861133,-28.305555,32.814466)"
       gradientUnits="userSpaceOnUse"
       id="radialGradient1992"
       xlink:href="#linearGradient1518"
       inkscape:collect="always" />
    <radialGradient
       r="191.81512"
       fy="64.926903"
       fx="-17.531048"
       cy="64.926903"
       cx="-17.531048"
       gradientTransform="matrix(0.6465595,-0.76286356,0.34052715,0.28861133,-28.305555,32.814466)"
       gradientUnits="userSpaceOnUse"
       id="radialGradient1994"
       xlink:href="#linearGradient1518"
       inkscape:collect="always" />
    <radialGradient
       r="191.81512"
       fy="64.926903"
       fx="-17.531048"
       cy="64.926903"
       cx="-17.531048"
       gradientTransform="matrix(0.6465595,-0.76286356,0.34052715,0.28861133,-28.305555,32.814466)"
       gradientUnits="userSpaceOnUse"
       id="radialGradient1996"
       xlink:href="#linearGradient1518"
       inkscape:collect="always" />
    <radialGradient
       r="191.81512"
       fy="64.926903"
       fx="-17.531048"
       cy="64.926903"
       cx="-17.531048"
       gradientTransform="matrix(0.6465595,-0.76286356,0.34052715,0.28861133,-28.305555,32.814466)"
       gradientUnits="userSpaceOnUse"
       id="radialGradient1998"
       xlink:href="#linearGradient1518"
       inkscape:collect="always" />
    <radialGradient
       r="191.81512"
       fy="64.926903"
       fx="-17.531048"
       cy="64.926903"
       cx="-17.531048"
       gradientTransform="matrix(0.6465595,-0.76286356,0.34052715,0.28861133,-28.305555,32.814466)"
       gradientUnits="userSpaceOnUse"
       id="radialGradient2000"
       xlink:href="#linearGradient1518"
       inkscape:collect="always" />
    <radialGradient
       r="191.81512"
       fy="64.926903"
       fx="-17.531048"
       cy="64.926903"
       cx="-17.531048"
       gradientTransform="matrix(0.6465595,-0.76286356,0.34052715,0.28861133,-28.305555,32.814466)"
       gradientUnits="userSpaceOnUse"
       id="radialGradient2002"
       xlink:href="#linearGradient1518"
       inkscape:collect="always" />
    <radialGradient
       r="191.81512"
       fy="64.926903"
       fx="-17.531048"
       cy="64.926903"
       cx="-17.531048"
       gradientTransform="matrix(0.6465595,-0.76286356,0.34052715,0.28861133,-28.305555,32.814466)"
       gradientUnits="userSpaceOnUse"
       id="radialGradient2004"
       xlink:href="#linearGradient1518"
       inkscape:collect="always" />
    <radialGradient
       r="191.81512"
       fy="64.926903"
       fx="-17.531048"
       cy="64.926903"
       cx="-17.531048"
       gradientTransform="matrix(0.6465595,-0.76286356,0.34052715,0.28861133,-28.305555,32.814466)"
       gradientUnits="userSpaceOnUse"
       id="radialGradient2006"
       xlink:href="#linearGradient1518"
       inkscape:collect="always" />
    <radialGradient
       r="191.81512"
       fy="64.926903"
       fx="-17.531048"
       cy="64.926903"
       cx="-17.531048"
       gradientTransform="matrix(0.6465595,-0.76286356,0.34052715,0.28861133,-28.305555,32.814466)"
       gradientUnits="userSpaceOnUse"
       id="radialGradient2008"
       xlink:href="#linearGradient1518"
       inkscape:collect="always" />
    <radialGradient
       r="191.81512"
       fy="64.926903"
       fx="-17.531048"
       cy="64.926903"
       cx="-17.531048"
       gradientTransform="matrix(0.6465595,-0.76286356,0.34052715,0.28861133,-28.305555,32.814466)"
       gradientUnits="userSpaceOnUse"
       id="radialGradient2010"
       xlink:href="#linearGradient1518"
       inkscape:collect="always" />
    <radialGradient
       r="191.81512"
       fy="64.926903"
       fx="-17.531048"
       cy="64.926903"
       cx="-17.531048"
       gradientTransform="matrix(0.6465595,-0.76286356,0.34052715,0.28861133,-28.305555,32.814466)"
       gradientUnits="userSpaceOnUse"
       id="radialGradient2012"
       xlink:href="#linearGradient1518"
       inkscape:collect="always" />
    <radialGradient
       r="191.81512"
       fy="64.926903"
       fx="-17.531048"
       cy="64.926903"
       cx="-17.531048"
       gradientTransform="matrix(0.6465595,-0.76286356,0.34052715,0.28861133,-28.305555,32.814466)"
       gradientUnits="userSpaceOnUse"
       id="radialGradient2014"
       xlink:href="#linearGradient1518"
       inkscape:collect="always" />
    <radialGradient
       r="191.81512"
       fy="64.926903"
       fx="-17.531048"
       cy="64.926903"
       cx="-17.531048"
       gradientTransform="matrix(0.6465595,-0.76286356,0.34052715,0.28861133,-28.305555,32.814466)"
       gradientUnits="userSpaceOnUse"
       id="radialGradient2016"
       xlink:href="#linearGradient1518"
       inkscape:collect="always" />
    <radialGradient
       r="191.81512"
       fy="64.926903"
       fx="-17.531048"
       cy="64.926903"
       cx="-17.531048"
       gradientTransform="matrix(0.6465595,-0.76286356,0.34052715,0.28861133,-28.305555,32.814466)"
       gradientUnits="userSpaceOnUse"
       id="radialGradient2018"
       xlink:href="#linearGradient1518"
       inkscape:collect="always" />
    <radialGradient
       r="191.81512"
       fy="64.926903"
       fx="-17.531048"
       cy="64.926903"
       cx="-17.531048"
       gradientTransform="matrix(0.6465595,-0.76286356,0.34052715,0.28861133,-28.305555,32.814466)"
       gradientUnits="userSpaceOnUse"
       id="radialGradient2020"
       xlink:href="#linearGradient1518"
       inkscape:collect="always" />
    <radialGradient
       r="191.81512"
       fy="64.926903"
       fx="-17.531048"
       cy="64.926903"
       cx="-17.531048"
       gradientTransform="matrix(0.6465595,-0.76286356,0.34052715,0.28861133,-28.305555,32.814466)"
       gradientUnits="userSpaceOnUse"
       id="radialGradient2022"
       xlink:href="#linearGradient1518"
       inkscape:collect="always" />
    <radialGradient
       r="191.81512"
       fy="64.926903"
       fx="-17.531048"
       cy="64.926903"
       cx="-17.531048"
       gradientTransform="matrix(0.6465595,-0.76286356,0.34052715,0.28861133,-28.305555,32.814466)"
       gradientUnits="userSpaceOnUse"
       id="radialGradient2024"
       xlink:href="#linearGradient1518"
       inkscape:collect="always" />
    <radialGradient
       r="191.81512"
       fy="64.926903"
       fx="-17.531048"
       cy="64.926903"
       cx="-17.531048"
       gradientTransform="matrix(0.6465595,-0.76286356,0.34052715,0.28861133,-28.305555,32.814466)"
       gradientUnits="userSpaceOnUse"
       id="radialGradient2026"
       xlink:href="#linearGradient1518"
       inkscape:collect="always" />
    <radialGradient
       r="191.81512"
       fy="64.926903"
       fx="-17.531048"
       cy="64.926903"
       cx="-17.531048"
       gradientTransform="matrix(0.6465595,-0.76286356,0.34052715,0.28861133,-28.305555,32.814466)"
       gradientUnits="userSpaceOnUse"
       id="radialGradient2028"
       xlink:href="#linearGradient1518"
       inkscape:collect="always" />
    <radialGradient
       r="191.81512"
       fy="64.926903"
       fx="-17.531048"
       cy="64.926903"
       cx="-17.531048"
       gradientTransform="matrix(0.6465595,-0.76286356,0.34052715,0.28861133,-28.305555,32.814466)"
       gradientUnits="userSpaceOnUse"
       id="radialGradient2030"
       xlink:href="#linearGradient1518"
       inkscape:collect="always" />
  </defs>
  <sodipodi:namedview
     inkscape:window-maximized="1"
     inkscape:window-y="-6"
     inkscape:window-x="-6"
     inkscape:window-height="1018"
     inkscape:window-width="1920"
     showborder="false"
     showgrid="false"
     inkscape:document-rotation="0"
     inkscape:current-layer="layer1-0"
     inkscape:document-units="mm"
     inkscape:cy="465.91832"
     inkscape:cx="644.02725"
     inkscape:zoom="0.7"
     inkscape:pageshadow="2"
     inkscape:pageopacity="0"
     borderopacity="1.0"
     bordercolor="#666666"
     pagecolor="#303030"
     id="base" />
  <metadata
     id="metadata5">
    <rdf:RDF>
      <cc:Work
         rdf:about="">
        <dc:format>image/svg+xml</dc:format>
        <dc:type
           rdf:resource="http://purl.org/dc/dcmitype/StillImage" />
        <dc:title></dc:title>
      </cc:Work>
    </rdf:RDF>
  </metadata>
  <g
     transform="translate(4.4438215,-5.9192407)"
     id="layer1"
     inkscape:groupmode="layer"
     inkscape:label="Layer 1">
    <g
       transform="translate(133.32279,57.734452)"
       id="layer1-0"
       inkscape:label="Layer 1">
      <g
         style="stroke:url(#radialGradient1930)"
         transform="matrix(0.6190497,0.34993678,-0.34993678,0.6190497,5.8845888,45.359024)"
         id="g1455">
        <path
           style="fill:none;stroke:url(#radialGradient1932);stroke-width:0.264583;stroke-linecap:butt;stroke-linejoin:miter;stroke-opacity:1"
           d="m -193.294,68.2952 c -4.079,-9.2672 -6.515,-19.2105 -7.311,-29.2596 -0.797,-10.0475 0.045,-20.1998 2.497,-29.90814 1.026,-4.06323 2.334,-8.0487 3.922,-11.91847 2.207,-5.37863 4.948,-10.51709 8.141,-15.34259 5.49,-8.2948 12.316,-15.6659 20.085,-21.7701 6.504,-5.1091 13.668,-9.3381 21.312,-12.4697 4.683,-1.9196 9.533,-3.4219 14.486,-4.5075 6.518,-1.4276 13.216,-2.1303 19.948,-2.1098 6.732,0.0206 13.4992,0.765 20.1504,2.2134 5.3118,1.1568 10.5485,2.7607 15.6159,4.8085 0.1641,0.0663 0.328,0.1331 0.4918,0.2003 4.8931,2.0096 9.6115,4.4297 14.0945,7.2093 9.2624,5.7428 17.5167,13.0207 24.2762,21.405 5.1432,6.3792 9.4223,13.39957 12.6389,20.86854 5.2362,12.15882 7.698,25.19556 10.5775,38.15436 2.1419,9.6389 4.51329,19.2379 8.40533,28.3795 7.86365,18.4707 22.09267,34.3263 39.53447,44.7598 6.4782,3.875 13.3987,7.001 20.602,9.232 21.7952,6.751 45.816,5.195 66.169,-3.846 4.484,-1.991 8.79,-4.347 12.856,-7.057 20.488,-13.6576 34.497,-36.0646 38.059,-60.3444 0.353,-2.4084 0.604,-4.8352 0.748,-7.2737 1.597,-27.0225 -9.924,-54.9184 -30.455,-73.7303"
           id="path1355" />
        <path
           style="fill:none;stroke:url(#radialGradient1934);stroke-width:0.264583;stroke-linecap:butt;stroke-linejoin:miter;stroke-opacity:1"
           d="m -193.618,66.5658 c -3.988,-9.272 -6.296,-19.2022 -6.946,-29.189 -0.651,-9.9853 0.354,-20.025 2.947,-29.5608 1.084,-3.991 2.447,-7.8936812 4.081,-11.67167 2.272,-5.25107 5.063,-10.24493 8.284,-14.91243 5.538,-8.0231 12.347,-15.0836 20.014,-20.8827 6.417,-4.8532 13.436,-8.8377 20.912,-11.7462 4.58,-1.784 9.319,-3.1589 14.163,-4.1264 6.374,-1.2715 12.93,-1.831 19.543,-1.6833 6.612,0.1477 13.2838,1.0037 19.8774,2.5271 5.2658,1.2166 10.4793,2.8552 15.5369,4.9084 0.1638,0.0665 0.3274,0.1334 0.4909,0.2008 4.8843,2.0129 9.6062,4.4094 14.0985,7.1414 9.2815,5.6445 17.5759,12.7221 24.386,20.8519 5.1818,6.1856 9.5069,12.98161 12.7883,20.21302 5.3418,11.77218 7.9583,24.39338 11.0105,36.98588 2.2706,9.3662 4.77889,18.7231 8.78088,27.6609 8.08557,18.0589 22.42332,33.6741 39.84622,44.0913 6.4712,3.869 13.3664,7.019 20.527,9.305 21.6659,6.915 45.4064,5.8 65.3864,-2.632 4.402,-1.857 8.622,-4.071 12.598,-6.633 20.038,-12.9106 33.532,-34.412 36.655,-57.9037 0.309,-2.3301 0.517,-4.68 0.62,-7.043 1.134,-26.1851 -10.722,-53.4252 -31.346,-72.0032"
           id="path1357" />
        <path
           style="fill:none;stroke:url(#radialGradient1936);stroke-width:0.264583;stroke-linecap:butt;stroke-linejoin:miter;stroke-opacity:1"
           d="m -193.943,64.8364 c -3.897,-9.2768 -6.077,-19.1938 -6.581,-29.1184 -0.503,-9.923 0.665,-19.8503 3.397,-29.21347 1.144,-3.91876 2.561,-7.73865 4.242,-11.42486 2.336,-5.12347 5.177,-9.97277 8.427,-14.48227 5.586,-7.7514 12.378,-14.5014 19.941,-19.9954 6.332,-4.5971 13.204,-8.3371 20.513,-11.0225 4.477,-1.6485 9.106,-2.896 13.84,-3.7455 6.23,-1.1152 12.643,-1.5315 19.137,-1.2567 6.493,0.2747 13.0695,1.2425 19.6054,2.8408 5.2198,1.2765 10.4102,2.9497 15.4579,5.0082 0.1634,0.0667 0.3268,0.1338 0.4899,0.2013 4.8756,2.0163 9.6011,4.3892 14.1026,7.0736 9.3006,5.5461 17.635,12.4234 24.4958,20.2988 5.2204,5.992 9.5914,12.56366 12.9377,19.557501 5.4473,11.385499 8.2186,23.591199 11.4436,35.817299 2.3992,9.0937 5.04439,18.2083 9.15633,26.9423 8.30749,17.6472 22.75387,33.022 40.15807,43.4219 6.4642,3.863 13.334,7.039 20.4519,9.378 21.5366,7.08 44.9968,6.406 64.6038,-1.417 4.32,-1.724 8.453,-3.795 12.34,-6.209 19.587,-12.1636 32.567,-32.7594 35.251,-55.4629 0.266,-2.252 0.431,-4.525 0.491,-6.8124 0.673,-25.3476 -11.518,-51.93209 -32.236,-70.2761"
           id="path1359" />
        <path
           style="fill:none;stroke:url(#radialGradient1938);stroke-width:0.264583;stroke-linecap:butt;stroke-linejoin:miter;stroke-opacity:1"
           d="m -194.268,63.1071 c -3.805,-9.2816 -5.857,-19.1856 -6.215,-29.0479 -0.357,-9.8608 0.975,-19.6755 3.847,-28.86613 1.202,-3.84653 2.673,-7.58364 4.401,-11.17807 2.401,-4.9959 5.292,-9.7006 8.57,-14.052 5.635,-7.4798 12.409,-13.9192 19.869,-19.1081 6.246,-4.3412 12.973,-7.8367 20.113,-10.299 4.375,-1.5129 8.893,-2.633 13.518,-3.3645 6.086,-0.959 12.357,-1.232 18.731,-0.8301 6.374,0.4018 12.8551,1.4812 19.3334,3.1546 5.1738,1.3363 10.3411,3.0441 15.3789,5.108 0.1631,0.0669 0.3261,0.1341 0.489,0.2017 4.8669,2.0197 9.5958,4.369 14.1065,7.0058 9.3199,5.4478 17.6943,12.1247 24.6057,19.7457 5.259,5.7984 9.676,12.1457 13.0872,18.901979 5.5528,10.998721 8.4789,22.789021 11.8765,34.648721 2.5279,8.8211 5.30999,17.6936 9.53188,26.2238 8.52941,17.2354 23.08452,32.3698 40.46982,42.7534 6.4573,3.857 13.3017,7.057 20.3768,9.451 21.4074,7.244 44.5873,7.011 63.8213,-0.203 4.238,-1.59 8.284,-3.52 12.082,-5.785 19.136,-11.4166 31.603,-31.1069 33.847,-53.0222 0.222,-2.1738 0.344,-4.3698 0.363,-6.5816 0.21,-24.5102 -12.315,-50.43903 -33.126,-68.5492"
           id="path1361" />
        <path
           style="fill:none;stroke:url(#radialGradient1940);stroke-width:0.264583;stroke-linecap:butt;stroke-linejoin:miter;stroke-opacity:1"
           d="m -194.593,61.3777 c -3.714,-9.2864 -5.638,-19.1772 -5.849,-28.9773 -0.211,-9.7985 1.285,-19.5008 4.297,-28.51879 1.261,-3.774298 2.786,-7.42862 4.56,-10.93127 2.466,-4.86834 5.407,-9.42844 8.713,-13.62184 5.684,-7.2082 12.44,-13.337 19.798,-18.2208 6.159,-4.0852 12.74,-7.3361 19.713,-9.5753 4.272,-1.3774 8.68,-2.3701 13.195,-2.9836 5.942,-0.8027 12.071,-0.9325 18.326,-0.4036 6.254,0.529 12.6397,1.72 19.0604,3.4684 5.1277,1.3962 10.2719,3.1386 15.2999,5.2079 0.1628,0.067 0.3255,0.1344 0.4881,0.2021 4.8581,2.023 9.5905,4.3487 14.1105,6.9379 9.339,5.3495 17.7535,11.8261 24.7155,19.1927 5.2976,5.6048 9.7606,11.72775 13.2366,18.24646 5.6583,10.61204 8.7392,21.98684 12.3095,33.48014 2.6566,8.5485 5.57559,17.1789 9.90743,25.5053 8.75132,16.8235 23.41517,31.7176 40.78167,42.0849 6.4503,3.851 13.2693,7.075 20.3017,9.523 21.2782,7.408 44.1767,7.617 63.0387,1.012 4.156,-1.456 8.115,-3.244 11.824,-5.361 18.686,-10.6696 30.638,-29.4543 32.443,-50.5815 0.179,-2.0956 0.258,-4.2146 0.235,-6.3509 C 165.659,27.0398 152.8,1.76673 131.895,-16.1095"
           id="path1363" />
        <path
           style="fill:none;stroke:url(#radialGradient1942);stroke-width:0.264583;stroke-linecap:butt;stroke-linejoin:miter;stroke-opacity:1"
           d="m -194.918,59.6483 c -3.622,-9.2911 -5.418,-19.1689 -5.483,-28.9066 -0.065,-9.7364 1.595,-19.3261 4.747,-28.17156 1.319,-3.70206 2.899,-7.27359 4.72,-10.68446 2.53,-4.74078 5.521,-9.15628 8.856,-13.19168 5.732,-6.9365 12.47,-12.7547 19.725,-17.3334 6.074,-3.8293 12.509,-6.8357 19.314,-8.8518 4.169,-1.2418 8.467,-2.107 12.872,-2.6025 5.798,-0.6466 11.784,-0.6331 17.92,0.0229 6.135,0.6561 12.4254,1.9587 18.7884,3.7821 5.0817,1.4561 10.2028,3.2331 15.2209,5.3078 0.1625,0.0672 0.3249,0.1347 0.4871,0.2025 4.8494,2.0264 9.5854,4.3285 14.1146,6.8701 9.3581,5.2512 17.8126,11.5274 24.8254,18.6396 5.3361,5.41115 9.845,11.30979 13.3859,17.59094 5.7639,10.22536 8.9995,21.18466 12.7426,32.31156 2.78519,8.2759 5.84109,16.6641 10.28288,24.7867 8.97324,16.4118 23.74572,31.0656 41.09352,41.4165 6.4433,3.845 13.2369,7.093 20.2266,9.596 21.1489,7.572 43.7671,8.222 62.2561,2.225 4.074,-1.321 7.947,-2.967 11.566,-4.936 18.235,-9.9226 29.674,-27.8017 31.039,-48.1407 0.135,-2.0175 0.172,-4.0596 0.107,-6.1203 -0.715,-22.8353 -13.91,-47.45271 -34.908,-65.0951"
           id="path1365" />
        <path
           style="fill:none;stroke:url(#radialGradient1944);stroke-width:0.264583;stroke-linecap:butt;stroke-linejoin:miter;stroke-opacity:1"
           d="m -195.243,57.9189 c -3.531,-9.2959 -5.199,-19.1606 -5.118,-28.836 0.082,-9.6741 1.905,-19.15135 5.198,-27.82422 1.378,-3.62982 3.012,-7.11857 4.879,-10.43767 2.595,-4.61321 5.636,-8.88411 8.999,-12.76151 5.78,-6.6648 12.502,-12.1725 19.653,-16.4461 5.988,-3.5733 12.277,-6.3351 18.915,-8.1281 4.066,-1.1063 8.253,-1.8441 12.549,-2.2216 5.654,-0.4903 11.498,-0.3336 17.514,0.4495 6.016,0.7831 12.211,2.1975 18.5165,4.0958 5.0356,1.516 10.1336,3.3276 15.1418,5.4077 0.1621,0.0673 0.3242,0.135 0.4862,0.2029 4.8406,2.0298 9.5801,4.3083 14.1186,6.8023 9.3773,5.1529 17.8718,11.2288 24.9352,18.0865 5.3747,5.21754 9.9296,10.89183 13.5354,16.93541 5.8693,9.83869 9.2597,20.38249 13.1755,31.14309 2.91389,8.0033 6.10669,16.1493 10.65842,24.0681 9.19517,16 24.07638,30.4134 41.40528,40.7481 6.4364,3.8389 13.2046,7.1109 20.1516,9.6679 21.0196,7.737 43.3575,8.828 61.4735,3.44 3.992,-1.187 7.778,-2.692 11.308,-4.512 17.785,-9.1756 28.709,-26.1492 29.635,-45.7 0.091,-1.9393 0.085,-3.9044 -0.021,-5.8895 -1.178,-21.998 -14.707,-45.9597 -35.799,-63.36813"
           id="path1367" />
        <path
           style="fill:none;stroke:url(#radialGradient1946);stroke-width:0.264583;stroke-linecap:butt;stroke-linejoin:miter;stroke-opacity:1"
           d="m -195.568,56.1895 c -3.439,-9.3007 -4.979,-19.1522 -4.752,-28.7654 0.228,-9.6118 2.215,-18.97661 5.648,-27.4768809 1.436,-3.5575891 3.124,-6.9635491 5.038,-10.1908191 2.66,-4.4857 5.751,-8.612 9.142,-12.3314 5.829,-6.3931 12.533,-11.5902 19.582,-15.5588 5.901,-3.3172 12.045,-5.8346 18.514,-7.4045 3.964,-0.9707 8.041,-1.5811 12.227,-1.8406 5.509,-0.3341 11.212,-0.0342 17.109,0.8761 5.896,0.9102 11.996,2.4362 18.2435,4.4095 4.9896,1.5758 10.0644,3.4222 15.0628,5.5076 0.1618,0.0675 0.3236,0.1353 0.4853,0.2033 4.8318,2.0332 9.5749,4.2881 14.1226,6.7345 9.3964,5.0545 17.931,10.9301 25.045,17.5334 5.4133,5.02392 10.0141,10.47388 13.6848,16.27989 5.9748,9.45201 9.52,19.58031 13.6086,29.97451 3.04248,7.7307 6.37219,15.6346 11.03387,23.3495 9.41709,15.5883 24.40703,29.7613 41.71713,40.0796 6.4294,3.832 13.1722,7.129 20.0765,9.741 20.8904,7.901 42.9469,9.433 60.6909,4.654 3.91,-1.053 7.609,-2.416 11.049,-4.088 17.335,-8.4286 27.745,-24.4966 28.232,-43.2593 0.048,-1.8611 -10e-4,-3.7492 -0.149,-5.6588 -1.64,-21.1605 -15.504,-44.4665 -36.689,-61.64107"
           id="path1369" />
        <path
           style="fill:none;stroke:url(#radialGradient1948);stroke-width:0.264583;stroke-linecap:butt;stroke-linejoin:miter;stroke-opacity:1"
           d="m -195.893,54.4601 c -3.348,-9.3054 -4.76,-19.1439 -4.386,-28.6948 0.374,-9.5496 2.525,-18.80186 6.098,-27.12954 1.495,-3.48536 3.237,-6.80854 5.197,-9.94406 2.725,-4.3581 5.867,-8.3398 9.286,-11.9012 5.877,-6.1214 12.563,-11.008 19.509,-14.6714 5.815,-3.0613 11.813,-5.3341 18.115,-6.6809 3.862,-0.8352 7.827,-1.3182 11.904,-1.4597 5.365,-0.1778 10.925,0.2653 16.703,1.3026 5.777,1.0374 11.781,2.675 17.9715,4.7233 4.9435,1.6357 9.9953,3.5167 14.9837,5.6075 0.1616,0.0677 0.323,0.1356 0.4844,0.2037 4.8231,2.0366 9.5697,4.2679 14.1266,6.6667 9.4157,4.9562 17.9902,10.6314 25.1549,16.9803 5.4519,4.8303 10.0987,10.05592 13.8342,15.62437 6.0804,9.06533 9.7804,18.77813 14.0416,28.80593 3.17117,7.4581 6.63779,15.1198 11.40942,22.631 9.63901,15.1765 24.73758,29.1091 42.02898,39.411 6.4224,3.8263 13.1398,7.1471 20.0014,9.8131 20.7611,8.066 42.5373,10.04 59.9083,5.869 3.828,-0.919 7.441,-2.14 10.791,-3.665 16.884,-7.681 26.781,-22.843 26.828,-40.8175 0.004,-1.783 -0.087,-3.5942 -0.277,-5.4282 C 155.717,41.3833 141.519,18.733 120.24,1.79228"
           id="path1371" />
        <path
           style="fill:none;stroke:url(#radialGradient1950);stroke-width:0.264583;stroke-linecap:butt;stroke-linejoin:miter;stroke-opacity:1"
           d="m -196.218,52.7307 c -3.256,-9.3102 -4.54,-19.1355 -4.02,-28.6242 0.52,-9.4873 2.835,-18.62711 6.548,-26.78221 1.553,-3.41312 3.35,-6.65351 5.357,-9.69729 2.789,-4.2305 5.981,-8.0676 9.428,-11.471 5.926,-5.8497 12.595,-10.4257 19.437,-13.7841 5.73,-2.8053 11.582,-4.8336 17.716,-5.9573 3.759,-0.6995 7.614,-1.0552 11.582,-1.0786 5.22,-0.0216 10.638,0.5647 16.296,1.7291 5.658,1.1644 11.567,2.9138 17.6995,5.0371 4.8975,1.6955 9.9262,3.6111 14.9047,5.7072 0.1613,0.0679 0.3224,0.136 0.4835,0.2042 4.8143,2.04 9.5644,4.2477 14.1306,6.5989 9.4348,4.8578 18.0494,10.3327 25.2647,16.42715 5.4905,4.63674 10.1833,9.638014 13.9836,14.9689 6.1859,8.67865 10.0407,17.97585 14.4747,27.63735 3.29976,7.1855 6.90329,14.6051 11.78487,21.9125 9.86093,14.7647 25.06823,28.4569 42.34073,38.7424 6.4154,3.8202 13.1075,7.1662 19.9264,9.8862 20.6318,8.23 42.1277,10.645 59.1257,7.082 3.745,-0.784 7.272,-1.864 10.533,-3.24 16.434,-6.934 25.816,-21.1904 25.424,-38.3768 -0.039,-1.7048 -0.174,-3.439 -0.405,-5.1974 C 153.231,44.9691 138.698,22.9745 117.326,6.26774"
           id="path1373" />
        <path
           style="fill:none;stroke:url(#radialGradient1952);stroke-width:0.264583;stroke-linecap:butt;stroke-linejoin:miter;stroke-opacity:1"
           d="m -196.543,51.0013 c -3.165,-9.3149 -4.321,-19.1272 -3.654,-28.5536 0.666,-9.4251 3.144,-18.45236 6.998,-26.43487 1.612,-3.34089 3.462,-6.49853 5.516,-9.45043 2.854,-4.103 6.096,-7.7955 9.571,-11.0408 5.975,-5.5781 12.626,-9.8436 19.366,-12.8968 5.643,-2.5494 11.349,-4.3331 17.316,-5.2337 3.656,-0.564 7.4,-0.7923 11.259,-0.6977 5.076,0.1346 10.352,0.8642 15.891,2.1557 5.538,1.2915 11.352,3.1525 17.4265,5.3508 4.8515,1.7554 9.8571,3.7056 14.8257,5.8071 0.1609,0.0681 0.3218,0.1363 0.4826,0.2046 4.8056,2.0434 9.5592,4.2275 14.1346,6.5311 9.4539,4.7595 18.1086,10.0341 25.3745,15.87405 5.5291,4.44312 10.2678,9.22006 14.1331,14.31338 6.2914,8.29197 10.3009,17.17367 14.9076,26.46877 3.42846,6.913 7.16889,14.0904 12.160417,21.1939 C 9.24787,68.9458 24.5639,82.3976 41.8176,92.6667 c 6.4084,3.8142 13.0751,7.184 19.8512,9.9583 20.5026,8.395 41.7172,11.251 58.3432,8.297 3.663,-0.65 7.103,-1.588 10.275,-2.816 15.983,-6.187 24.852,-19.5379 24.02,-35.9361 -0.083,-1.6266 -0.26,-3.2839 -0.533,-4.9667 -3.028,-18.6482 -17.896,-39.9871 -39.362,-56.46"
           id="path1375" />
        <path
           style="fill:none;stroke:url(#radialGradient1954);stroke-width:0.264583;stroke-linecap:butt;stroke-linejoin:miter;stroke-opacity:1"
           d="m -196.868,49.2719 c -3.073,-9.3197 -4.102,-19.1189 -3.289,-28.4829 0.813,-9.3629 3.455,-18.27771 7.448,-26.08763 1.671,-3.26866 3.576,-6.34347 5.676,-9.20367 2.919,-3.9754 6.211,-7.5233 9.714,-10.6106 6.023,-5.3065 12.657,-9.2613 19.294,-12.0095 5.557,-2.2934 11.118,-3.8326 16.916,-4.51 3.554,-0.4285 7.188,-0.5294 10.937,-0.3168 4.932,0.2909 10.065,1.1637 15.485,2.5823 5.419,1.4186 11.137,3.3912 17.1545,5.6645 4.8055,1.8153 9.7879,3.8001 14.7467,5.907 0.1606,0.0682 0.3211,0.1366 0.4816,0.2051 4.7969,2.0467 9.554,4.2072 14.1387,6.4632 9.4731,4.6611 18.1677,9.7354 25.4843,15.32095 5.5677,4.24951 10.3524,8.8021 14.2825,13.65786 6.3969,7.90529 10.5612,16.37149 15.3407,25.30029 3.55705,6.6403 7.43439,13.5755 12.535865,20.4753 C 9.78264,67.5685 25.2073,80.7799 42.4423,91.0326 c 6.4014,3.8081 13.0427,7.2023 19.7761,10.0314 20.3734,8.559 41.3076,11.856 57.5606,9.511 3.581,-0.517 6.935,-1.312 10.017,-2.392 15.533,-5.44 23.887,-17.8853 22.616,-33.4954 -0.127,-1.5484 -0.346,-3.1287 -0.661,-4.736 -3.491,-17.8107 -18.693,-38.494 -40.252,-54.733"
           id="path1377" />
        <path
           style="fill:none;stroke:url(#radialGradient1956);stroke-width:0.264583;stroke-linecap:butt;stroke-linejoin:miter;stroke-opacity:1"
           d="m -197.193,47.5425 c -2.982,-9.3245 -3.882,-19.1105 -2.923,-28.4123 0.959,-9.30065 3.765,-18.10296 7.898,-25.7403 1.73,-3.19642 3.689,-6.1884 5.836,-8.9569 2.983,-3.8479 6.325,-7.2511 9.857,-10.1804 6.071,-5.0348 12.688,-8.6791 19.221,-11.1221 5.472,-2.0374 10.886,-3.3321 16.517,-3.7865 3.451,-0.2929 6.975,-0.2663 10.614,0.0643 4.788,0.447 9.779,1.4631 15.079,3.0088 5.3,1.5457 10.923,3.6299 16.8825,5.9782 4.7595,1.8752 9.7188,3.8946 14.6677,6.0069 0.1603,0.0684 0.3205,0.1369 0.4807,0.2055 4.7881,2.0501 9.5488,4.187 14.1426,6.3954 9.4923,4.5628 18.227,9.43671 25.5942,14.76785 5.6063,4.05589 10.437,8.38415 14.4319,13.00233 6.5025,7.51862 10.8215,15.56932 15.7737,24.13172 3.68574,6.3677 7.69999,13.0608 12.911414,19.7567 C 10.3174,66.1912 25.8508,79.1622 43.0669,89.3985 c 6.3945,3.802 13.0104,7.2205 19.7011,10.1036 20.2441,8.7229 40.898,12.4619 56.778,10.7259 3.499,-0.383 6.766,-1.036 9.759,-1.968 15.082,-4.693 22.922,-16.2327 21.212,-31.0546 -0.17,-1.4702 -0.433,-2.9736 -0.789,-4.5053 -3.953,-16.9734 -19.49,-37.0009 -41.143,-53.006"
           id="path1379" />
        <path
           style="fill:none;stroke:url(#radialGradient1958);stroke-width:0.264583;stroke-linecap:butt;stroke-linejoin:miter;stroke-opacity:1"
           d="m -197.517,45.8131 c -2.891,-9.3292 -3.664,-19.1022 -2.558,-28.3417 1.106,-9.23839 4.075,-17.92821 8.348,-25.39296 1.789,-3.12414 3.802,-6.03344 5.995,-8.71004 3.049,-3.7204 6.44,-6.9791 10,-9.7503 6.12,-4.7631 12.719,-8.0968 19.15,-10.2348 5.385,-1.7814 10.654,-2.8316 16.117,-3.0628 3.348,-0.1574 6.761,-0.0034 10.291,0.4452 4.644,0.6033 9.493,1.7625 14.673,3.4353 5.181,1.6728 10.708,3.8688 16.6105,6.292 4.7134,1.935 9.6497,3.9891 14.5887,6.1068 0.1599,0.0685 0.3199,0.1372 0.4798,0.2059 4.7793,2.0535 9.5435,4.1668 14.1466,6.3276 9.5114,4.4644 18.2862,9.13804 25.704,14.21475 5.6449,3.86227 10.5215,7.96619 14.5814,12.34681 6.6079,7.13194 11.0818,14.76714 16.2066,22.96314 3.81444,6.0951 7.96559,12.5461 13.286962,19.0382 C 10.8522,64.8139 26.4943,77.5446 43.6916,87.7644 c 6.3875,3.7959 12.978,7.2388 19.626,10.1762 20.1148,8.8874 40.4874,13.0674 55.9954,11.9404 3.417,-0.249 6.597,-0.761 9.501,-1.544 14.631,-3.946 21.958,-14.5802 19.808,-28.6139 -0.214,-1.392 -0.519,-2.8185 -0.917,-4.2746 -4.416,-16.1359 -20.288,-35.5077 -42.034,-51.2789"
           id="path1381" />
        <path
           style="fill:none;stroke:url(#radialGradient1960);stroke-width:0.264583;stroke-linecap:butt;stroke-linejoin:miter;stroke-opacity:1"
           d="m -197.842,44.0838 c -2.799,-9.3341 -3.444,-19.0939 -2.192,-28.2712 1.252,-9.17613 4.385,-17.75346 8.798,-25.04562 1.847,-3.05198 3.914,-5.87838 6.154,-8.46328 3.114,-3.5928 6.555,-6.7069 10.143,-9.3201 6.169,-4.4914 12.75,-7.5146 19.078,-9.3475 5.299,-1.5254 10.422,-2.331 15.718,-2.3392 3.245,-0.0218 6.548,0.2596 9.968,0.8262 4.499,0.7595 9.206,2.062 14.268,3.8619 5.061,1.7999 10.493,4.1075 16.3375,6.6057 4.6674,1.9949 9.5805,4.0836 14.5097,6.2067 0.1596,0.0687 0.3192,0.1375 0.4788,0.2063 4.7706,2.0569 9.5383,4.1466 14.1507,6.2598 9.5306,4.3661 18.3453,8.83936 25.8138,13.66165 5.6835,3.66866 10.6061,7.54823 14.7308,11.69125 6.7135,6.7453 11.3421,13.965 16.6397,21.7946 3.94303,5.8226 8.23109,12.0313 13.66241,18.3197 10.97049,12.7059 26.72129,25.1962 43.89989,35.3996 6.3805,3.7898 12.9456,7.257 19.5509,10.2488 19.9855,9.0519 40.0778,13.6729 55.2128,13.1539 3.335,-0.114 6.429,-0.484 9.243,-1.119 14.181,-3.199 20.993,-12.9276 18.404,-26.1732 -0.257,-1.3138 -0.605,-2.6633 -1.046,-4.0439 C 140.803,62.8985 124.597,44.1823 102.757,28.645"
           id="path1383" />
        <path
           style="fill:none;stroke:url(#radialGradient1962);stroke-width:0.264583;stroke-linecap:butt;stroke-linejoin:miter;stroke-opacity:1"
           d="m -198.167,42.3544 c -2.708,-9.3388 -3.225,-19.0856 -1.827,-28.2006 1.399,-9.11388 4.695,-17.57871 9.249,-24.6983 1.906,-2.9797 4.027,-5.7234 6.314,-8.2165 3.178,-3.4652 6.67,-6.4347 10.286,-8.8899 6.217,-4.2197 12.78,-6.9323 19.005,-8.4601 5.214,-1.2695 10.191,-1.8306 15.318,-1.6156 3.143,0.1137 6.335,0.5225 9.646,1.2071 4.355,0.9158 8.92,2.3615 13.862,4.2885 4.942,1.927 10.279,4.3462 16.066,6.9195 4.6209,2.0547 9.5109,4.1781 14.4302,6.3064 0.1593,0.0689 0.3186,0.1379 0.4779,0.2068 4.7618,2.0602 9.5331,4.1264 14.1547,6.192 9.5497,4.26775 18.4045,8.54069 25.9236,13.108545 5.722,3.475045 10.6907,7.130285 14.8802,11.035755 6.819,6.3586 11.6024,13.1628 17.0727,20.626 4.07172,5.55 8.4967,11.5166 14.037959,17.6011 C 11.9217,62.0593 27.7812,74.3092 44.9409,84.4962 c 6.3736,3.7838 12.9133,7.2753 19.4759,10.3214 19.8563,9.2164 39.6682,14.2784 54.4302,14.3684 3.253,0.02 6.26,-0.208 8.985,-0.695 13.73,-2.452 20.029,-11.275 17,-23.7324 -0.301,-1.2357 -0.692,-2.5082 -1.174,-3.8132 -5.34,-14.4611 -21.881,-32.5215 -43.8145,-47.8249"
           id="path1385" />
        <path
           style="fill:none;stroke:url(#radialGradient1964);stroke-width:0.264583;stroke-linecap:butt;stroke-linejoin:miter;stroke-opacity:1"
           d="m -198.492,40.625 c -2.616,-9.3436 -3.005,-19.0772 -1.461,-28.13 1.545,-9.05162 5.005,-17.40396 9.699,-24.3509 1.964,-2.9075 4.14,-5.5684 6.473,-7.9697 3.243,-3.3377 6.785,-6.1626 10.429,-8.4597 6.265,-3.9481 12.812,-6.3502 18.934,-7.5729 5.127,-1.0135 9.958,-1.33 14.918,-0.892 3.04,0.2493 6.122,0.7855 9.323,1.5882 4.211,1.0719 8.634,2.6609 13.456,4.715 4.823,2.0541 10.064,4.585 15.794,7.2332 4.5749,2.1146 9.4418,4.2726 14.3512,6.4063 0.159,0.0691 0.3179,0.1382 0.477,0.2072 4.753,2.0636 9.5278,4.1062 14.1586,6.1242 9.5689,4.1694 18.4638,8.24201 26.0335,12.55544 5.7606,3.28144 10.7752,6.71233 15.0296,10.38026 6.9246,5.9719 11.8627,12.3606 17.5058,19.4575 4.20032,5.2773 8.7622,11.0018 14.41341,16.8825 11.41439,11.8824 27.38259,23.8919 44.52349,34.0625 6.3665,3.7777 12.8809,7.2935 19.4008,10.394 19.727,9.3809 39.2576,14.8849 53.6476,15.5829 3.171,0.154 6.091,0.067 8.727,-0.271 13.279,-1.705 19.064,-9.6224 15.596,-21.2917 -0.344,-1.1575 -0.778,-2.3531 -1.302,-3.5825 C 135.832,70.0702 118.957,52.6654 96.9297,37.5959"
           id="path1387" />
        <path
           style="fill:none;stroke:url(#radialGradient1966);stroke-width:0.264583;stroke-linecap:butt;stroke-linejoin:miter;stroke-opacity:1"
           d="m -198.817,38.8956 c -2.525,-9.3484 -2.786,-19.0689 -1.095,-28.0594 1.691,-8.98936 5.315,-17.22921 10.149,-24.0036 2.023,-2.8353 4.253,-5.4134 6.632,-7.7229 3.308,-3.2101 6.9,-5.8904 10.572,-8.0295 6.314,-3.6765 12.843,-5.7679 18.862,-6.6855 5.041,-0.7575 9.727,-0.8296 14.519,-0.1684 2.937,0.3849 5.908,1.0484 9,1.9691 4.067,1.2282 8.347,2.9604 13.051,5.1415 4.703,2.1812 9.849,4.8238 15.521,7.547 4.5288,2.1745 9.3726,4.3671 14.2722,6.5062 0.1586,0.0693 0.3173,0.1385 0.476,0.2076 4.7444,2.067 9.5227,4.0859 14.1627,6.05635 9.5881,4.07111 18.523,7.943383 26.1433,12.00239 5.7992,3.08782 10.8598,6.29437 15.1791,9.72476 7.03,5.5852 12.1229,11.5584 17.9387,18.2889 4.32901,5.0047 9.0278,10.487 14.78896,16.1639 11.63634,11.4707 27.71314,23.2398 44.83534,33.394 6.3595,3.7716 12.8485,7.3118 19.3257,10.4666 19.5977,9.5454 38.848,15.4904 52.865,16.7974 3.089,0.288 5.923,0.343 8.468,0.153 12.83,-0.958 18.1,-7.97 14.193,-18.851 -0.388,-1.0793 -0.864,-2.1979 -1.43,-3.3518 C 133.347,73.656 116.136,56.907 94.016,42.0714"
           id="path1389" />
        <path
           style="fill:none;stroke:url(#radialGradient1968);stroke-width:0.264583;stroke-linecap:butt;stroke-linejoin:miter;stroke-opacity:1"
           d="m -199.142,37.1662 c -2.433,-9.3531 -2.566,-19.0606 -0.729,-27.98874 1.837,-8.927164 5.625,-17.05452 10.599,-23.65636 2.081,-2.763 4.365,-5.2583 6.792,-7.476 3.372,-3.0826 7.014,-5.6183 10.715,-7.5994 6.362,-3.4048 12.873,-5.1857 18.789,-5.7982 4.956,-0.5015 9.495,-0.329 14.119,0.5552 2.835,0.5205 5.696,1.3114 8.678,2.3501 3.923,1.3844 8.061,3.2599 12.645,5.5681 4.584,2.3083 9.635,5.0625 15.249,7.8607 4.4828,2.2344 9.3035,4.4616 14.1932,6.6061 0.1583,0.0694 0.3167,0.1388 0.4751,0.208 4.7356,2.0704 9.5174,4.06574 14.1667,5.98854 9.6072,3.97277 18.5821,7.64472 26.2531,11.4493 5.8378,2.8942 10.9443,5.87646 15.3285,9.06926 7.1356,5.1985 12.3833,10.7562 18.3718,17.1203 4.4576,4.7322 9.2933,9.9723 15.1644,15.4454 11.8582,11.0589 28.0438,22.5876 45.1471,32.7255 6.3526,3.7654 12.8162,7.3299 19.2506,10.5391 19.4685,9.7096 38.4385,16.0959 52.0835,18.0109 3.006,0.423 5.753,0.62 8.209,0.578 12.379,-0.211 17.136,-6.317 12.789,-16.4102 -0.432,-1.0012 -0.951,-2.0428 -1.558,-3.1211 C 130.861,77.2419 113.316,61.1486 91.1022,46.5468"
           id="path1391" />
        <path
           style="fill:none;stroke:url(#radialGradient1970);stroke-width:0.264583;stroke-linecap:butt;stroke-linejoin:miter;stroke-opacity:1"
           d="m -199.467,35.4368 c -2.342,-9.3579 -2.347,-19.0522 -0.363,-27.91812 1.983,-8.86493 5.934,-16.87979 11.048,-23.30898 2.141,-2.6908 4.479,-5.1033 6.952,-7.2293 3.437,-2.955 7.129,-5.3461 10.858,-7.1692 6.411,-3.1331 12.905,-4.6034 18.718,-4.9108 4.869,-0.2456 9.263,0.1714 13.719,1.2788 2.732,0.656 5.482,1.5744 8.355,2.731 3.779,1.5407 7.775,3.5593 12.239,5.9947 4.465,2.4354 9.42,5.3012 14.977,8.1744 4.4368,2.2942 9.2344,4.5561 14.1142,6.706 0.158,0.0696 0.316,0.1391 0.4742,0.2084 4.7268,2.07381 9.5121,4.04553 14.1707,5.92074 9.6264,3.874427 18.6413,7.34604 26.3629,10.8962 5.8764,2.70059 11.0289,5.45846 15.4779,8.41366 7.2411,4.8119 12.6436,9.9541 18.8048,15.9518 4.5863,4.4596 9.5589,9.4576 15.53995,14.7269 12.08015,10.6471 28.37445,21.9354 45.45895,32.0569 6.3456,3.7593 12.7838,7.3482 19.1755,10.6116 19.3393,9.8741 38.0279,16.7015 51.3009,19.2255 2.924,0.556 5.584,0.895 7.951,1.002 11.929,0.536 16.171,-4.665 11.385,-13.9695 -0.475,-0.923 -1.037,-1.8877 -1.686,-2.8904 -7.191,-11.1113 -25.07,-26.549 -47.3775,-40.9168"
           id="path1393" />
        <path
           style="fill:none;stroke:url(#radialGradient1972);stroke-width:0.264583;stroke-linecap:butt;stroke-linejoin:miter;stroke-opacity:1"
           d="m -199.792,33.7074 c -2.25,-9.3626 -2.127,-19.0439 0.002,-27.8475 2.13,-8.80269 6.245,-16.7051 11.499,-22.9617 2.199,-2.6185 4.592,-4.9483 7.111,-6.9825 3.502,-2.8274 7.244,-5.0739 11.001,-6.739 6.46,-2.8614 12.936,-4.0212 18.646,-4.0235 4.783,0.0104 9.031,0.672 13.32,2.0024 2.63,0.7916 5.269,1.8374 8.032,3.1121 3.635,1.6969 7.488,3.8587 11.834,6.4212 4.345,2.5624 9.205,5.54 14.704,8.4881 4.3908,2.3541 9.1653,4.6506 14.0352,6.80586 0.1576,0.06977 0.3154,0.13939 0.4732,0.20888 4.7181,2.07716 9.507,4.02528 14.1747,5.85289 9.6456,3.77609 18.7006,7.04737 26.4728,10.34311 5.915,2.50696 11.1135,5.04046 15.6273,7.75816 7.3467,4.4252 12.9039,9.1519 19.2378,14.7832 4.71499,4.187 9.8245,8.9428 15.9155,14.0083 12.3021,10.2354 28.705,21.2833 45.7707,31.3884 6.3387,3.7532 12.7515,7.3664 19.1005,10.6842 19.21,10.0385 37.6183,17.307 50.5183,20.44 2.842,0.69 5.415,1.171 7.693,1.426 11.478,1.283 15.207,-3.012 9.981,-11.5288 -0.519,-0.8448 -1.124,-1.7325 -1.814,-2.6597 C 125.89,84.4136 107.676,69.6317 85.2747,55.4977"
           id="path1395" />
        <path
           style="fill:none;stroke:url(#radialGradient1974);stroke-width:0.264583;stroke-linecap:butt;stroke-linejoin:miter;stroke-opacity:1"
           d="m -200.117,31.978 c -2.159,-9.3674 -1.908,-19.0355 0.368,-27.77689 2.276,-8.74044 6.555,-16.53031 11.949,-22.61441 2.258,-2.5463 4.705,-4.7932 7.271,-6.7356 3.566,-2.6999 7.358,-4.8018 11.144,-6.3089 6.507,-2.5897 12.966,-3.4389 18.573,-3.1361 4.698,0.2663 8.8,1.1724 12.921,2.726 2.527,0.9271 5.056,2.1003 7.709,3.493 3.49,1.8531 7.202,4.1582 11.428,6.8478 4.226,2.6895 8.991,5.7787 14.432,8.8019 4.3447,2.4139 9.0961,4.74504 13.9562,6.90565 0.1573,0.06994 0.3148,0.1397 0.4723,0.2093 4.7093,2.08054 9.5017,4.00506 14.1787,5.785071 9.6647,3.677759 18.7597,6.748709 26.5826,9.790019 5.9536,2.31336 11.198,4.62256 15.7768,7.10266 7.4521,4.0385 13.1641,8.3497 19.6708,13.6147 4.84358,3.9143 10.09,8.428 16.29095,13.2897 12.52395,9.8235 29.03565,20.6311 46.08255,30.7198 6.3317,3.7472 12.7191,7.3847 19.0254,10.7568 19.0807,10.2028 37.2087,17.9125 49.7357,21.6545 2.759,0.824 5.247,1.447 7.435,1.85 11.027,2.03 14.242,-1.36 8.577,-9.088 -0.562,-0.7667 -1.21,-1.5774 -1.942,-2.429 -8.116,-9.4365 -26.665,-23.5628 -49.1591,-37.4628"
           id="path1397" />
        <path
           style="fill:none;stroke:url(#radialGradient1976);stroke-width:0.264583;stroke-linecap:butt;stroke-linejoin:miter;stroke-opacity:1"
           d="m -200.442,30.2486 c -2.067,-9.3722 -1.688,-19.0272 0.734,-27.70627 2.422,-8.6782 6.865,-16.35563 12.399,-22.26703 2.316,-2.4741 4.817,-4.6383 7.43,-6.4889 3.631,-2.5723 7.473,-4.5296 11.287,-5.8787 6.556,-2.318 12.998,-2.8567 18.502,-2.2488 4.611,0.5224 8.567,1.6729 12.52,3.4497 2.425,1.0626 4.843,2.3632 7.387,3.8739 3.346,2.0094 6.916,4.4577 11.022,7.2743 4.107,2.8167 8.776,6.0175 14.16,9.1157 4.299,2.47378 9.027,4.83955 13.8772,7.00553 0.157,0.07011 0.3141,0.14002 0.4714,0.20973 4.7005,2.08392 9.4965,3.984845 14.1827,5.71725 9.6839,3.57942 18.8189,6.45004 26.6924,9.23689 5.9922,2.1198 11.2826,4.2046 15.9262,6.4472 7.5577,3.6518 13.4244,7.5474 20.1038,12.4461 4.97228,3.6418 10.3556,7.9133 16.6665,12.5711 12.7459,9.4118 29.3663,19.9791 46.3944,30.0513 6.3247,3.7411 12.6867,7.4029 18.9503,10.8294 18.9514,10.3672 36.7981,18.518 48.9531,22.869 2.677,0.958 5.078,1.722 7.177,2.274 10.577,2.777 13.277,0.293 7.173,-6.647 -0.606,-0.689 -1.296,-1.423 -2.07,-2.199 -8.578,-8.5986 -27.462,-22.0692 -50.0498,-35.7354"
           id="path1399" />
        <path
           style="fill:none;stroke:url(#radialGradient1978);stroke-width:0.264583;stroke-linecap:butt;stroke-linejoin:miter;stroke-opacity:1"
           d="m -200.767,28.5192 c -1.976,-9.3769 -1.469,-19.01885 1.1,-27.635658 2.568,-8.615962 7.175,-16.180842 12.849,-21.919742 2.375,-2.4018 4.93,-4.4832 7.589,-6.2421 3.696,-2.4447 7.589,-4.2574 11.43,-5.4484 6.605,-2.0464 13.029,-2.2745 18.43,-1.3616 4.525,0.7784 8.336,2.1735 12.121,4.1733 2.322,1.1982 4.63,2.6262 7.064,4.255 3.202,2.1655 6.629,4.7571 10.617,7.7008 3.987,2.9438 8.561,6.2563 13.887,9.42938 4.253,2.53369 8.9579,4.93408 13.7982,7.10544 0.1567,0.07028 0.3135,0.14033 0.4704,0.21015 4.6918,2.087302 9.4913,3.96463 14.1868,5.64944 9.703,3.48108 18.8781,6.15139 26.8022,8.68379 6.0308,1.9262 11.3672,3.7867 16.0756,5.7916 7.6632,3.2651 13.6848,6.7453 20.5369,11.2776 5.10087,3.3692 10.6211,7.3985 17.04195,11.8526 12.96785,9 29.69685,19.3269 46.70615,29.3827 6.3178,3.735 12.6544,7.4212 18.8753,10.902 18.8222,10.5316 36.3885,19.1235 48.1705,24.0825 2.595,1.093 4.909,1.999 6.919,2.699 10.126,3.524 12.313,1.946 5.769,-4.207 -0.65,-0.61 -1.383,-1.267 -2.198,-1.967 C 118.433,95.1712 99.2149,82.3563 76.5334,68.9241"
           id="path1401" />
        <path
           style="fill:none;stroke:url(#radialGradient1980);stroke-width:0.264583;stroke-linecap:butt;stroke-linejoin:miter;stroke-opacity:1"
           d="m -201.091,26.7898 c -1.885,-9.3817 -1.251,-19.01051 1.464,-27.565042 2.716,-8.553718 7.485,-16.006158 13.3,-21.572458 2.433,-2.3296 5.043,-4.3281 7.749,-5.9952 3.76,-2.3172 7.703,-3.9853 11.572,-5.0183 6.654,-1.7748 13.06,-1.6923 18.358,-0.4742 4.439,1.0343 8.104,2.6739 11.722,4.8969 2.219,1.3337 4.416,2.8891 6.742,4.6359 3.057,2.3218 6.342,5.0566 10.21,8.1274 3.868,3.0708 8.346,6.49498 13.615,9.7431 4.207,2.59355 8.8887,5.02858 13.7192,7.2053 0.1563,0.070455 0.3128,0.140648 0.4695,0.210579 4.6831,2.090681 9.486,3.944411 14.1908,5.581621 9.7221,3.38274 18.9372,5.8527 26.912,8.1307 6.0694,1.7325 11.4517,3.3687 16.2251,5.1361 7.7686,2.8784 13.945,5.9431 20.9698,10.109 5.22956,3.0966 10.8867,6.8838 17.41749,11.134 13.18971,8.5883 30.02751,18.6748 47.01801,28.7142 6.3107,3.7289 12.622,7.4394 18.8002,10.9746 18.6929,10.696 35.9789,19.73 47.3879,25.297 2.513,1.227 4.741,2.275 6.661,3.122 9.675,4.272 11.348,3.599 4.365,-1.765 -0.693,-0.532 -1.469,-1.112 -2.326,-1.737 C 115.947,98.7571 96.3946,86.5979 73.6197,73.3996"
           id="path1403" />
        <path
           style="fill:none;stroke:url(#radialGradient1982);stroke-width:0.264583;stroke-linecap:butt;stroke-linejoin:miter;stroke-opacity:1"
           d="m -201.416,25.0604 c -1.794,-9.3864 -1.031,-19.00216 1.83,-27.49443 2.862,-8.49147 7.795,-15.83137 13.75,-21.22507 2.492,-2.2574 5.156,-4.1732 7.908,-5.7485 3.825,-2.1896 7.818,-3.7131 11.716,-4.5881 6.702,-1.5031 13.09,-1.11 18.286,0.4131 4.353,1.2903 7.872,3.1745 11.322,5.6205 2.116,1.4693 4.203,3.1522 6.419,5.0169 2.913,2.478 6.056,5.356 9.804,8.554 3.749,3.1979 8.132,6.73371 13.343,10.05681 4.161,2.65342 8.8196,5.12308 13.6402,7.30517 0.156,0.07063 0.3122,0.14097 0.4686,0.21101 4.6743,2.09406 9.4808,3.92419 14.1947,5.5138 9.7414,3.28441 18.9965,5.55401 27.0219,7.57761 6.108,1.5389 11.5363,2.9508 16.3745,4.4806 7.8742,2.4917 14.2053,5.1409 21.4029,8.9404 5.35816,2.824 11.1522,6.3691 17.79294,10.4155 13.41166,8.1765 30.35816,18.0226 47.32986,28.0456 6.3037,3.7228 12.5896,7.4577 18.725,11.0472 18.5637,10.8603 35.5684,20.3351 46.6054,26.5115 2.431,1.361 4.572,2.55 6.403,3.546 9.225,5.019 10.384,5.252 2.961,0.676 -0.737,-0.454 -1.555,-0.957 -2.455,-1.506 -9.965,-6.087 -29.8526,-17.5905 -52.7211,-30.555"
           id="path1405" />
        <path
           style="fill:none;stroke:url(#radialGradient1984);stroke-width:0.264583;stroke-linecap:butt;stroke-linejoin:miter;stroke-opacity:1"
           d="m -201.741,23.3311 c -1.702,-9.3913 -0.812,-18.99392 2.196,-27.42391 3.008,-8.42919 8.105,-15.65669 14.2,-20.87779 2.55,-2.1851 5.268,-4.0181 8.067,-5.5016 3.89,-2.0621 7.933,-3.441 11.859,-4.158 6.75,-1.2314 13.122,-0.5278 18.214,1.3005 4.267,1.5462 7.64,3.6749 10.922,6.3441 2.014,1.6049 3.99,3.4151 6.097,5.3978 2.769,2.6343 5.769,5.6555 9.399,8.9805 3.629,3.32507 7.917,6.97254 13.07,10.37063 4.115,2.713288 8.7505,5.21757 13.5612,7.40504 0.1557,0.0708 0.3116,0.14127 0.4676,0.21143 4.6656,2.09745 9.4756,3.90397 14.1988,5.446 9.7605,3.186 19.0557,5.2553 27.1317,7.0245 6.1466,1.3453 11.6209,2.5328 16.5239,3.8251 7.9797,2.105 14.4656,4.3387 21.8359,7.7718 5.48685,2.5515 11.4178,5.8543 18.16849,9.697 13.63361,7.7647 30.68871,17.3704 47.64161,27.377 6.2968,3.7167 12.5573,7.4759 18.65,11.1198 18.4344,11.0247 35.1588,20.9408 45.8228,27.726 2.349,1.495 4.403,2.826 6.145,3.97 8.774,5.766 9.419,6.904 1.557,3.117 -0.78,-0.376 -1.642,-0.802 -2.583,-1.276 C 110.976,105.929 90.7541,95.081 67.7921,82.3505"
           id="path1407" />
        <path
           style="fill:none;stroke:url(#radialGradient1986);stroke-width:0.264583;stroke-linecap:butt;stroke-linejoin:miter;stroke-opacity:1"
           d="m -202.066,21.6017 c -1.611,-9.3961 -0.592,-18.98558 2.562,-27.3533 3.154,-8.367 8.415,-15.4819 14.649,-20.5304 2.61,-2.1129 5.382,-3.8632 8.228,-5.2549 3.954,-1.9345 8.047,-3.1688 12.001,-3.7278 6.799,-0.9597 13.153,0.0545 18.142,2.1878 4.181,1.8022 7.409,4.1755 10.523,7.0677 1.911,1.7405 3.777,3.6781 5.774,5.7789 2.625,2.7904 5.483,5.9549 8.993,9.407 3.51,3.45215 7.702,7.21126 12.798,10.684347 4.069,2.773153 8.6813,5.312073 13.4822,7.504903 0.1553,0.07097 0.3109,0.14159 0.4667,0.21186 4.6568,2.10083 9.4704,3.88379 14.2028,5.37819 9.7796,3.0877 19.1148,4.9567 27.2415,6.4714 6.1852,1.1517 11.7054,2.1149 16.6733,3.1696 8.0853,1.7183 14.7259,3.5365 22.269,6.6033 5.61544,2.2788 11.6833,5.3395 18.54394,8.9783 13.85546,7.353 31.01936,16.7183 47.95346,26.7085 6.2898,3.7107 12.5249,7.4942 18.5749,11.1923 18.3052,11.1892 34.7492,21.5465 45.0402,28.9396 2.267,1.629 4.235,3.103 5.887,4.395 8.324,6.513 8.454,8.557 0.153,5.557 -0.824,-0.297 -1.728,-0.646 -2.711,-1.044 -10.89,-4.412 -31.4471,-14.6044 -54.5026,-27.1011"
           id="path1409" />
        <path
           style="fill:none;stroke:url(#radialGradient1988);stroke-width:0.264583;stroke-linecap:butt;stroke-linejoin:miter;stroke-opacity:1"
           d="m -202.391,19.8723 c -1.519,-9.4008 -0.373,-18.977238 2.928,-27.28268 3.3,-8.30472 8.724,-15.30722 15.099,-20.18312 2.668,-2.0407 5.495,-3.7081 8.387,-5.0081 4.019,-1.8069 8.162,-2.8967 12.145,-3.2976 6.847,-0.688 13.183,0.6367 18.07,3.0752 4.095,2.0582 7.176,4.6759 10.123,7.7913 1.808,1.876 3.564,3.941 5.451,6.1598 2.48,2.9467 5.196,6.2544 8.587,9.8336 3.391,3.57922 7.488,7.44999 12.526,10.99806 4.023,2.83302 8.612,5.40657 13.4032,7.60478 0.155,0.07114 0.3103,0.1419 0.4658,0.21228 4.648,2.10418 9.4651,3.86358 14.2068,5.31038 9.7988,2.9894 19.174,4.658 27.3513,5.9183 6.2238,0.9581 11.79,1.6969 16.8228,2.514 8.1907,1.3317 14.9862,2.7344 22.7019,5.4348 5.74413,2.0062 11.9489,4.8247 18.91949,8.2598 14.07741,6.9412 31.35001,16.0661 48.26531,26.0399 6.2828,3.7046 12.4925,7.5124 18.4998,11.2649 18.1759,11.3536 34.3386,22.1521 44.2576,30.1541 2.185,1.763 4.066,3.378 5.628,4.819 7.874,7.26 7.491,10.209 -1.25,7.998 -0.867,-0.219 -1.814,-0.491 -2.839,-0.814 -11.353,-3.574 -32.2444,-13.111 -55.3934,-25.3736"
           id="path1411" />
        <path
           style="fill:none;stroke:url(#radialGradient1990);stroke-width:0.264583;stroke-linecap:butt;stroke-linejoin:miter;stroke-opacity:1"
           d="m -202.716,18.1429 c -1.428,-9.40558 -0.153,-18.968896 3.293,-27.21206 3.447,-8.24254 9.035,-15.13244 15.55,-19.83584 2.727,-1.9684 5.607,-3.5531 8.546,-4.7612 4.084,-1.6794 8.277,-2.6246 12.288,-2.8674 6.896,-0.4164 13.215,1.2189 17.998,3.9624 4.009,2.3142 6.944,5.1765 9.724,8.5149 1.705,2.0116 3.35,4.204 5.128,6.5408 2.336,3.1029 4.91,6.5539 8.182,10.26018 3.271,3.70631 7.273,7.688741 12.253,11.3118 3.977,2.89289 8.543,5.50106 13.3241,7.70462 0.1548,0.0713 0.3098,0.1422 0.4649,0.2127 4.6393,2.1076 9.4599,3.8434 14.2108,5.2426 9.818,2.891 19.2333,4.3593 27.4612,5.3652 6.2624,0.7645 11.8745,1.2789 16.9722,1.8585 8.2963,0.945 15.2465,1.9322 23.1349,4.2662 5.87283,1.7336 12.2145,4.31 19.29504,7.5412 14.29936,6.5295 31.68056,15.414 48.57706,25.3714 6.2759,3.6985 12.4602,7.5307 18.4248,11.3375 18.0466,11.518 33.929,22.7577 43.475,31.3686 2.103,1.897 3.897,3.654 5.37,5.243 7.423,8.007 6.526,11.862 -2.654,10.439 -0.911,-0.141 -1.901,-0.337 -2.967,-0.584 -11.816,-2.737 -33.0416,-11.617 -56.2842,-23.6462"
           id="path1413" />
        <path
           style="fill:none;stroke:url(#radialGradient1992);stroke-width:0.264583;stroke-linecap:butt;stroke-linejoin:miter;stroke-opacity:1"
           d="m -203.041,16.4135 c -1.336,-9.41034 0.066,-18.96055 3.659,-27.1414 3.593,-8.1803 9.345,-14.9578 16,-19.4885 2.785,-1.8962 5.72,-3.3981 8.705,-4.5145 4.149,-1.5518 8.392,-2.3524 12.431,-2.4372 6.944,-0.1447 13.246,1.8011 17.926,4.8497 3.923,2.5702 6.713,5.677 9.324,9.2386 1.603,2.1471 3.138,4.4669 4.806,6.9217 2.192,3.2592 4.624,6.85335 7.776,10.68676 3.152,3.8334 7.058,7.92749 11.981,11.62553 3.931,2.95276 8.474,5.59561 13.2451,7.80451 0.1545,0.0715 0.3091,0.1425 0.464,0.2131 4.6306,2.111 9.4547,3.8231 14.2148,5.1748 9.8371,2.7927 19.2924,4.0606 27.571,4.8121 6.301,0.5709 11.9591,0.861 17.1216,1.203 8.4018,0.5583 15.5068,1.13 23.568,3.0976 6.00142,1.4611 12.48,3.7953 19.67048,6.8227 14.52132,6.1177 32.01122,14.7619 48.88892,24.7028 6.2689,3.6924 12.4278,7.5489 18.3497,11.4101 17.9173,11.6823 33.5194,23.3634 42.6924,32.5831 2.021,2.031 3.729,3.93 5.112,5.667 6.973,8.754 5.562,13.515 -4.058,12.88 -0.955,-0.063 -1.987,-0.182 -3.095,-0.353 -12.278,-1.9 -33.8389,-10.125 -57.1749,-21.92"
           id="path1415" />
        <path
           style="fill:none;stroke:url(#radialGradient1994);stroke-width:0.264583;stroke-linecap:butt;stroke-linejoin:miter;stroke-opacity:1"
           d="m -203.366,14.6841 c -1.245,-9.4151 0.286,-18.95221 4.025,-27.0708 3.739,-8.1181 9.655,-14.783 16.45,-19.1412 2.844,-1.824 5.833,-3.243 8.865,-4.2677 4.213,-1.4242 8.507,-2.0802 12.574,-2.007 6.992,0.1269 13.276,2.3834 17.854,5.7371 3.837,2.8261 6.48,6.1775 8.924,9.9621 1.5,2.2827 2.924,4.7299 4.483,7.3028 2.048,3.4154 4.337,7.15274 7.37,11.11323 3.033,3.960505 6.844,8.16625 11.709,11.93928 3.885,3.01259 8.405,5.69009 13.1661,7.90439 0.1541,0.0717 0.3085,0.1428 0.4631,0.2135 4.6218,2.1144 9.4494,3.8029 14.2188,5.1069 9.8563,2.6944 19.3516,3.7621 27.6808,4.2591 6.3396,0.3772 12.0437,0.443 17.2711,0.5475 8.5073,0.1716 15.767,0.3278 24.0009,1.929 6.13011,1.1885 12.7456,3.2805 20.04603,6.1042 14.74317,5.7059 32.34187,14.1097 49.20077,24.0343 6.2618,3.6862 12.3954,7.5671 18.2746,11.4826 17.7881,11.8467 33.1098,23.969 41.9098,33.7976 1.939,2.165 3.56,4.205 4.854,6.091 6.522,9.501 4.597,15.167 -5.462,15.32 -0.998,0.015 -2.073,-0.026 -3.223,-0.122 -12.7408,-1.062 -34.6361,-8.631 -58.0657,-20.192"
           id="path1417" />
        <path
           style="fill:none;stroke:url(#radialGradient1996);stroke-width:0.264583;stroke-linecap:butt;stroke-linejoin:miter;stroke-opacity:1"
           d="m -203.691,12.9547 c -1.153,-9.41986 0.505,-18.94387 4.391,-27.0002 3.885,-8.0558 9.965,-14.6083 16.9,-18.7939 2.902,-1.7517 5.946,-3.088 9.024,-4.0208 4.278,-1.2967 8.622,-1.8081 12.717,-1.5769 7.041,0.3986 13.308,2.9656 17.782,6.6244 3.751,3.0821 6.249,6.678 8.525,10.6858 1.398,2.4182 2.711,4.9929 4.16,7.6837 1.904,3.57161 4.051,7.45222 6.965,11.53981 2.913,4.0876 6.628,8.405 11.436,12.25299 3.838,3.0725 8.336,5.7846 13.0871,8.0043 0.1538,0.0718 0.3078,0.1431 0.4621,0.214 4.6131,2.1177 9.4443,3.7826 14.2229,5.039 9.8754,2.5961 19.4108,3.4634 27.7906,3.706 6.3782,0.1836 12.1282,0.0251 17.4205,-0.108 8.6128,-0.2151 16.0273,-0.4744 24.434,0.7605 6.25871,0.9158 13.0111,2.7657 20.42148,5.3855 14.96512,5.2942 32.67242,13.4576 49.51252,23.3658 6.2549,3.6802 12.3631,7.5853 18.1995,11.5552 17.6589,12.0111 32.6993,24.5746 41.1273,35.0111 1.857,2.3 3.391,4.482 4.596,6.516 6.072,10.248 3.632,16.82 -6.866,17.761 -1.042,0.093 -2.16,0.129 -3.351,0.109 -13.2033,-0.225 -35.4334,-7.139 -58.9564,-18.466"
           id="path1419" />
        <path
           style="fill:none;stroke:url(#radialGradient1998);stroke-width:0.264583;stroke-linecap:butt;stroke-linejoin:miter;stroke-opacity:1"
           d="m -204.016,11.2253 c -1.062,-9.42462 0.725,-18.93553 4.756,-26.9296 4.032,-7.9935 10.275,-14.4335 17.351,-18.4465 2.961,-1.6795 6.058,-2.933 9.183,-3.7741 4.343,-1.1691 8.737,-1.5359 12.86,-1.1467 7.09,0.6703 13.339,3.5479 17.71,7.5118 3.665,3.3381 6.017,7.1785 8.126,11.4094 1.295,2.5537 2.497,5.2558 3.837,8.0646 1.76,3.72787 3.765,7.7517 6.559,11.96639 2.794,4.21469 6.414,8.64375 11.164,12.56671 3.792,3.1324 8.267,5.8791 13.0081,8.1042 0.1535,0.072 0.3072,0.1434 0.4612,0.2144 4.6043,2.1211 9.439,3.7624 14.2268,4.9712 9.8947,2.4977 19.47,3.1647 27.9005,3.1529 6.4168,-0.01 12.2128,-0.3929 17.5699,-0.7636 8.7184,-0.6017 16.2877,-1.2765 24.867,-0.408 6.3874,0.6432 13.2767,2.251 20.79703,4.667 15.18707,4.8824 33.00307,12.8054 49.82437,22.6972 6.2479,3.6741 12.3307,7.6036 18.1244,11.6278 17.5296,12.1755 32.2897,25.1802 40.3447,36.2256 1.774,2.434 3.222,4.758 4.338,6.94 5.621,10.995 2.668,18.472 -8.27,20.202 -1.085,0.171 -2.246,0.284 -3.479,0.339 -13.6659,0.613 -36.2306,-5.645 -59.8472,-16.738"
           id="path1421" />
        <path
           style="fill:none;stroke:url(#radialGradient2000);stroke-width:0.264583;stroke-linecap:butt;stroke-linejoin:miter;stroke-opacity:1"
           d="m -204.341,9.49593 c -0.97,-9.4294103 0.944,-18.92722 5.122,-26.85903 4.178,-7.9313 10.585,-14.2588 17.801,-18.0992 3.019,-1.6072 6.171,-2.778 9.343,-3.5273 4.408,-1.0415 8.851,-1.2637 13.002,-0.7165 7.139,0.942 13.37,4.1301 17.639,8.3991 3.579,3.5941 5.785,7.679 7.725,12.133 1.193,2.6893 2.285,5.5188 3.515,8.4457 1.616,3.88402 3.478,8.05109 6.153,12.39287 2.675,4.34178 6.2,8.88253 10.892,12.88053 3.746,3.1922 8.197,5.9735 12.929,8.2039 0.153,0.0722 0.3067,0.1438 0.4604,0.2149 4.5955,2.1245 9.4337,3.7422 14.2308,4.9034 9.9138,2.3994 19.5292,2.866 28.0103,2.5998 6.4553,-0.2036 12.2974,-0.8108 17.7193,-1.4191 8.8239,-0.9884 16.548,-2.0787 25.3001,-1.5766 6.51599,0.3707 13.542205,1.7362 21.17248,3.9484 15.40892,4.4707 33.33372,12.1533 50.13622,22.0287 6.2409,3.668 12.2983,7.6218 18.0493,11.7004 17.4003,12.3399 31.8801,25.7858 39.5621,37.4401 1.692,2.568 3.054,5.034 4.08,7.364 5.17,11.742 1.703,20.125 -9.674,22.642 -1.129,0.25 -2.333,0.44 -3.607,0.571 -14.1285,1.45 -37.0279,-4.153 -60.738,-15.012"
           id="path1423" />
        <path
           style="fill:none;stroke:url(#radialGradient2002);stroke-width:0.264583;stroke-linecap:butt;stroke-linejoin:miter;stroke-opacity:1"
           d="m -204.666,7.76654 c -0.879,-9.43418 1.164,-18.91884 5.488,-26.78844 4.325,-7.869 10.895,-14.084 18.251,-17.7518 3.078,-1.5351 6.284,-2.623 9.502,-3.2805 4.473,-0.914 8.966,-0.9916 13.146,-0.2864 7.186,1.2137 13.4,4.7124 17.566,9.2865 3.493,3.85 5.553,8.1795 7.326,12.8566 1.09,2.8249 2.071,5.7817 3.192,8.82658 1.472,4.0403 3.192,8.35059 5.748,12.81947 2.555,4.46887 5.984,9.12125 10.619,13.19425 3.7,3.2521 8.128,6.068 12.85,8.3038 0.153,0.0724 0.306,0.1441 0.459,0.2153 4.5872,2.1279 9.429,3.722 14.2353,4.8356 9.9329,2.301 19.5884,2.5674 28.1201,2.0467 6.4939,-0.3972 12.3819,-1.2288 17.8688,-2.0746 8.9294,-1.3751 16.8082,-2.881 25.733,-2.7452 6.64469,0.0981 13.807806,1.2215 21.54803,3.2299 15.63087,4.0589 33.66427,11.5011 50.44797,21.3601 6.234,3.6619 12.266,7.6401 17.9743,11.7729 17.2711,12.5043 31.4695,26.3916 38.7795,38.6547 1.61,2.701 2.885,5.309 3.822,7.788 4.72,12.489 0.738,21.777 -11.078,25.083 -1.173,0.328 -2.419,0.595 -3.735,0.801 -14.5911,2.288 -37.8251,-2.659 -61.6287,-13.284"
           id="path1425" />
        <path
           style="fill:none;stroke:url(#radialGradient2004);stroke-width:0.264583;stroke-linecap:butt;stroke-linejoin:miter;stroke-opacity:1"
           d="m -204.99,6.03715 c -0.788,-9.43895 1.382,-18.91055 5.853,-26.71785 4.471,-7.8068 11.205,-13.9093 18.7,-17.4045 3.137,-1.4628 6.398,-2.468 9.662,-3.0337 4.538,-0.7864 9.081,-0.7194 13.289,0.1439 7.235,1.4853 13.432,5.2945 17.494,10.1737 3.407,4.106 5.322,8.68 6.927,13.5802 0.987,2.9605 1.858,6.0447 2.869,9.20761 1.327,4.19652 2.906,8.650042 5.342,13.24601 2.436,4.59598 5.77,9.35998 10.347,13.50798 3.654,3.312 8.059,6.1625 12.771,8.4037 0.153,0.0725 0.305,0.1444 0.458,0.2157 4.5785,2.1313 9.4238,3.7018 14.2394,4.7678 9.9521,2.2027 19.6476,2.2687 28.2299,1.4936 6.5325,-0.5908 12.4665,-1.6468 18.0182,-2.7301 9.0349,-1.7618 17.0685,-3.6832 26.1661,-3.9138 6.77328,-0.1745 14.073306,0.7068 21.92347,2.5114 15.85283,3.6471 33.99493,10.8489 50.75983,20.6915 6.227,3.6558 12.2336,7.6583 17.8992,11.8455 17.1418,12.6687 31.0599,26.9972 37.9969,39.8682 1.528,2.836 2.716,5.586 3.564,8.213 4.269,13.236 -0.226,23.43 -12.482,27.524 -1.216,0.406 -2.505,0.75 -3.863,1.031 -15.0537,3.125 -38.6224,-1.165 -62.5195,-11.557"
           id="path1427" />
        <path
           style="fill:none;stroke:url(#radialGradient2006);stroke-width:0.264583;stroke-linecap:butt;stroke-linejoin:miter;stroke-opacity:1"
           d="m -205.315,4.30776 c -0.697,-9.44372 1.601,-18.90226 6.219,-26.64716 4.617,-7.7446 11.514,-13.7346 19.15,-17.0573 3.196,-1.3905 6.51,-2.3129 9.822,-2.7868 4.602,-0.6589 9.195,-0.4473 13.431,0.574 7.284,1.7569 13.463,5.8768 17.423,11.061 3.321,4.362 5.089,9.1806 6.527,14.3039 0.884,3.096 1.645,6.30763 2.546,9.58853 1.183,4.35276 2.619,8.94951 4.936,13.67257 2.317,4.7231 5.556,9.5987 10.075,13.8217 3.608,3.3718 7.99,6.257 12.692,8.5036 0.152,0.0727 0.305,0.1447 0.458,0.2161 4.5689,2.1346 9.4177,3.6816 14.2425,4.7 9.9712,2.1043 19.7067,1.97 28.3397,0.9405 6.5711,-0.7845 12.5511,-2.0647 18.1676,-3.3857 9.1405,-2.1484 17.3288,-4.4853 26.5991,-5.0822 6.90197,-0.4472 14.338907,0.1919 22.29902,1.7927 16.07468,3.2354 34.32558,10.1968 51.07158,20.023 6.2201,3.6497 12.2013,7.6766 17.8242,11.9181 17.0125,12.8331 30.6503,27.6028 37.2143,41.0827 1.446,2.97 2.548,5.862 3.306,8.637 3.818,13.983 -1.191,25.083 -13.887,29.965 -1.259,0.484 -2.591,0.904 -3.9906,1.262 -15.5157,3.962 -39.419,0.327 -63.4097,-9.831"
           id="path1429" />
        <path
           style="fill:none;stroke:url(#radialGradient2008);stroke-width:0.264583;stroke-linecap:butt;stroke-linejoin:miter;stroke-opacity:1"
           d="m -205.64,2.57837 c -0.605,-9.44849 1.821,-18.89387 6.584,-26.57657 4.764,-7.6824 11.825,-13.5599 19.601,-16.7099 3.254,-1.3184 6.623,-2.1579 9.981,-2.5401 4.667,-0.5313 9.31,-0.1751 13.575,1.0042 7.332,2.0286 13.493,6.459 17.35,11.9484 3.235,4.618 4.858,9.681 6.127,15.0274 0.782,3.2316 1.432,6.57065 2.224,9.96956 1.039,4.508983 2.333,9.24896 4.531,14.09912 2.197,4.85012 5.34,9.83752 9.802,14.13542 3.562,3.4317 7.921,6.3516 12.613,8.6035 0.152,0.0728 0.304,0.145 0.457,0.2165 4.5602,2.138 9.4125,3.6614 14.2465,4.6322 9.9904,2.006 19.766,1.6713 28.4496,0.3874 6.6097,-0.9781 12.6356,-2.4827 18.317,-4.0412 9.246,-2.5351 17.5892,-5.2875 27.0321,-6.2508 7.03067,-0.7197 14.604507,-0.3228 22.67457,1.0742 16.29663,2.8236 34.65613,9.5446 51.38343,19.3544 6.2131,3.6437 12.1689,7.6948 17.7491,11.9907 16.8832,12.9975 30.2397,28.2084 36.4317,42.2972 1.364,3.104 2.379,6.137 3.047,9.061 3.369,14.73 -2.154,26.735 -15.29,32.405 -1.3024,0.563 -2.6769,1.06 -4.1187,1.493 -15.9782,4.8 -40.2162,1.821 -64.3003,-8.103"
           id="path1431" />
        <path
           style="fill:none;stroke:url(#radialGradient2010);stroke-width:0.264583;stroke-linecap:butt;stroke-linejoin:miter;stroke-opacity:1"
           d="m -205.965,0.848974 c -0.514,-9.453254 2.04,-18.885574 6.95,-26.505974 4.91,-7.6201 12.135,-13.3851 20.051,-16.3626 3.313,-1.2461 6.736,-2.0029 10.14,-2.2933 4.732,-0.4037 9.426,0.0971 13.718,1.4344 7.381,2.3003 13.525,7.0413 17.278,12.8357 3.149,4.874 4.626,10.1816 5.728,15.7511 0.679,3.3671 1.219,6.83356 1.901,10.35049 0.895,4.665208 2.047,9.54841 4.125,14.52571 2.078,4.9772 5.126,10.0762 9.53,14.4491 3.516,3.4916 7.852,6.4461 12.534,8.7034 0.152,0.073 0.303,0.1453 0.456,0.2169 4.5515,2.1414 9.4074,3.6412 14.2506,4.5644 10.0096,1.9077 19.8252,1.3727 28.5594,-0.1657 6.6483,-1.1717 12.7202,-2.9006 18.4665,-4.6967 9.3514,-2.9218 17.8494,-6.0897 27.4651,-7.4194 7.15926,-0.9923 14.8700077,-0.8375 23.05002,0.3556 16.51858,2.4118 34.98678,8.8926 51.69528,18.6859 6.206,3.6376 12.1365,7.7131 17.6739,12.0633 16.7541,13.1618 29.8302,28.8141 35.6492,43.5117 1.282,3.238 2.21,6.413 2.789,9.484 2.918,15.478 -3.119,28.389 -16.6935,34.847 -1.3464,0.641 -2.7638,1.215 -4.2472,1.724 -16.4408,5.637 -41.0134,3.313 -65.1911,-6.377"
           id="path1433" />
        <path
           style="fill:none;stroke:url(#radialGradient2012);stroke-width:0.264583;stroke-linecap:butt;stroke-linejoin:miter;stroke-opacity:1"
           d="m -206.29,-0.880417 c -0.422,-9.457983 2.26,-18.877183 7.316,-26.435383 5.056,-7.5578 12.445,-13.2104 20.501,-16.0153 3.371,-1.1738 6.849,-1.8478 10.3,-2.0464 4.796,-0.2762 9.54,0.3692 13.86,1.8645 7.429,2.572 13.556,7.6235 17.207,13.7231 3.063,5.1299 4.394,10.682 5.328,16.4746 0.576,3.50272 1.005,7.09658 1.579,10.73151 0.75,4.82144 1.759,9.84787 3.718,14.95219 1.959,5.1044 4.912,10.315 9.258,14.763 3.47,3.5514 7.783,6.5405 12.455,8.8031 0.151,0.0733 0.303,0.1457 0.455,0.2174 4.5428,2.1448 9.4022,3.621 14.2547,4.4966 10.0287,1.8093 19.8843,1.074 28.6692,-0.7188 6.6869,-1.3653 12.8047,-3.3186 18.6159,-5.3522 9.457,-3.3085 18.1097,-6.8919 27.8981,-8.588 7.28795,-1.2649 15.135608,-1.3523 23.42557,-0.3629 16.74043,2 35.31743,8.2404 52.00703,18.0173 6.1991,3.6315 12.1042,7.7313 17.5989,12.1359 16.6248,13.3262 29.4206,29.4197 34.8666,44.7262 1.2,3.372 2.042,6.689 2.531,9.908 2.468,16.225 -4.084,30.041 -18.0975,37.288 -1.39,0.719 -2.8501,1.37 -4.3753,1.954 -16.9033,6.475 -41.8106,4.807 -66.0817,-4.649"
           id="path1435" />
        <path
           style="fill:none;stroke:url(#radialGradient2014);stroke-width:0.264583;stroke-linecap:butt;stroke-linejoin:miter;stroke-opacity:1"
           d="m -206.615,-2.60981 c -0.33,-9.46279 2.479,-18.86889 7.682,-26.36479 5.202,-7.4956 12.755,-13.0356 20.951,-15.6679 3.43,-1.1016 6.961,-1.6929 10.459,-1.7997 4.861,-0.1486 9.655,0.6414 14.004,2.2947 7.477,2.8437 13.586,8.2058 17.134,14.6104 2.977,5.3859 4.162,11.1826 4.929,17.1983 0.473,3.63823 0.792,7.35949 1.256,11.11244 0.606,4.97767 1.473,10.14733 3.313,15.37876 1.839,5.2315 4.696,10.5538 8.985,15.0767 3.424,3.6113 7.714,6.635 12.376,8.903 0.151,0.0734 0.302,0.146 0.454,0.2178 4.534,2.1482 9.397,3.6008 14.2588,4.4288 10.0478,1.711 19.9435,0.7753 28.779,-1.2719 6.7255,-1.5589 12.8893,-3.7365 18.7653,-6.0077 9.5625,-3.6952 18.37,-7.6941 28.3312,-9.7566 7.41655,-1.5375 15.401109,-1.867 23.80102,-1.0814 16.96238,1.5882 35.64798,7.5882 52.31888,17.3487 6.1921,3.6254 12.0718,7.7496 17.5238,12.2085 16.4955,13.4906 29.01,30.0253 34.084,45.9397 1.118,3.507 1.873,6.965 2.273,10.333 2.017,16.972 -5.048,31.694 -19.5015,39.729 -1.4336,0.797 -2.9365,1.525 -4.5034,2.185 -17.3658,7.312 -42.6077,6.299 -66.9724,-2.923"
           id="path1437" />
        <path
           style="fill:none;stroke:url(#radialGradient2016);stroke-width:0.264583;stroke-linecap:butt;stroke-linejoin:miter;stroke-opacity:1"
           d="m -206.94,-4.3392 c -0.239,-9.4676 2.699,-18.8605 8.047,-26.2942 5.349,-7.4333 13.065,-12.8609 21.402,-15.3206 3.488,-1.0294 7.074,-1.5378 10.618,-1.5529 4.926,-0.021 9.77,0.9135 14.147,2.725 7.526,3.1153 13.618,8.7879 17.062,15.4977 2.891,5.6418 3.931,11.683 4.529,17.9218 0.371,3.77384 0.579,7.62251 0.934,11.493469 0.462,5.133891 1.187,10.446831 2.907,15.805331 1.72,5.3585 4.482,10.7925 8.713,15.3904 3.378,3.6712 7.644,6.7295 12.297,9.0029 0.151,0.0736 0.302,0.1463 0.453,0.2183 4.525,2.1515 9.3919,3.5804 14.2628,4.3609 10.0671,1.6126 20.0028,0.4766 28.8889,-1.825 6.7641,-1.7525 12.9739,-4.1545 18.9148,-6.6633 9.668,-4.0818 18.6302,-8.4962 28.7641,-10.925 7.54524,-1.8101 15.666709,-2.3818 24.17656,-1.8001 17.18434,1.1765 35.97864,6.9361 52.63074,16.6802 6.1851,3.6193 12.0394,7.7678 17.4487,12.2811 16.3662,13.655 28.6004,30.6309 33.3014,47.1544 1.036,3.6408 1.704,7.2408 2.015,10.7568 1.566,17.719 -6.013,33.346 -20.9055,42.169 -1.4772,0.875 -3.0228,1.681 -4.6315,2.416 -17.8283,8.15 -43.4049,7.793 -67.8631,-1.195"
           id="path1439" />
        <path
           style="fill:none;stroke:url(#radialGradient2018);stroke-width:0.264583;stroke-linecap:butt;stroke-linejoin:miter;stroke-opacity:1"
           d="m -207.265,-6.06859 c -0.147,-9.47231 2.918,-18.85221 8.413,-26.22351 5.495,-7.3712 13.375,-12.6862 21.852,-14.9733 3.547,-0.9572 7.187,-1.3828 10.778,-1.3061 4.99,0.1065 9.884,1.1856 14.289,3.1551 7.575,3.387 13.649,9.3702 16.991,16.385 2.804,5.8979 3.698,12.1836 4.129,18.6455 0.268,3.90935 0.366,7.88542 0.611,11.8744 0.317,5.29012 0.9,10.7462 2.501,16.2319 1.601,5.4856 4.267,11.0312 8.441,15.7041 3.332,3.731 7.575,6.824 12.218,9.1028 0.15,0.0737 0.301,0.1466 0.452,0.2187 4.517,2.1549 9.3867,3.5602 14.2669,4.2931 10.0862,1.5143 20.0619,0.1779 28.9988,-2.3781 6.8026,-1.9462 13.0583,-4.5725 19.0641,-7.3188 9.7735,-4.4686 18.8906,-9.2984 29.1972,-12.0936 C -7.38917,23.1659 0.86921,22.352 9.48901,22.73 26.8953,23.4947 45.7983,29.0139 62.4315,38.7416 c 6.1782,3.6132 12.0071,7.7861 17.3737,12.3536 16.237,13.8195 28.1908,31.2367 32.5188,48.3687 0.954,3.7741 1.536,7.5171 1.757,11.1811 1.116,18.466 -6.977,34.999 -22.3095,44.61 -1.5208,0.953 -3.1092,1.836 -4.7596,2.646 -18.2908,8.987 -44.202,9.287 -68.7537,0.532"
           id="path1441" />
        <path
           style="fill:none;stroke:url(#radialGradient2020);stroke-width:0.264583;stroke-linecap:butt;stroke-linejoin:miter;stroke-opacity:1"
           d="m -207.59,-7.79798 c -0.056,-9.47712 3.138,-18.84392 8.779,-26.15292 5.641,-7.3089 13.685,-12.5115 22.301,-14.626 3.606,-0.8849 7.301,-1.2278 10.938,-1.0593 5.055,0.2341 9.999,1.4578 14.433,3.5853 7.623,3.6586 13.679,9.9524 16.918,17.2723 2.719,6.1539 3.467,12.6841 3.73,19.36916 0.166,4.04491 0.153,8.14838 0.288,12.25536 0.173,5.44635 0.614,11.04568 2.095,16.65838 1.482,5.6128 4.053,11.27 8.169,16.0179 3.286,3.7909 7.506,6.9185 12.139,9.2027 0.15,0.0739 0.3,0.1469 0.451,0.2191 4.508,2.1583 9.3816,3.54 14.271,4.2252 10.1054,1.416 20.1211,-0.1206 29.1086,-2.9311 6.8412,-2.1398 13.1429,-4.9904 19.2135,-7.9743 9.8791,-4.8553 19.1509,-10.1006 29.6302,-13.2622 7.80252,-2.3553 16.19781,-3.4113 24.92756,-3.2372 17.62814,0.353 36.63984,5.6318 53.25434,15.3432 6.1712,3.6071 11.9747,7.8042 17.2986,12.4261 16.1077,13.9838 27.7802,31.8423 31.7362,49.583 0.871,3.9083 1.367,7.7923 1.499,11.6053 0.665,19.213 -7.942,36.652 -23.7135,47.051 -1.5644,1.031 -3.1955,1.99 -4.8877,2.877 -18.7533,9.824 -44.9992,10.779 -69.6444,2.259"
           id="path1443" />
        <path
           style="fill:none;stroke:url(#radialGradient2022);stroke-width:0.264583;stroke-linecap:butt;stroke-linejoin:miter;stroke-opacity:1"
           d="m -207.915,-9.52737 c 0.036,-9.48183 3.357,-18.83553 9.145,-26.08233 5.788,-7.2466 13.995,-12.3367 22.751,-14.2787 3.665,-0.8127 7.413,-1.0727 11.097,-0.8124 5.12,0.3616 10.114,1.7299 14.576,4.0154 7.671,3.9303 13.71,10.5347 16.846,18.1597 2.633,6.4098 3.235,13.1845 3.33,20.09271 0.064,4.18047 -0.06,8.4113414 -0.034,12.63634 0.029,5.60258 0.328,11.34515 1.69,17.08495 1.362,5.7398 3.838,11.5088 7.896,16.3316 3.24,3.8508 7.437,7.013 12.06,9.3026 0.15,0.074 0.3,0.1472 0.45,0.2195 4.499,2.1617 9.3764,3.5198 14.2751,4.1574 10.1245,1.3177 20.1803,-0.4193 29.2184,-3.4842 6.8798,-2.3334 13.2275,-5.4084 19.3629,-8.6298 9.9846,-5.242 19.4112,-10.9028 30.0632,-14.4308 7.93122,-2.6278 16.46341,-3.926 25.3031,-3.9557 17.8501,-0.0588 36.9705,4.9796 53.5662,14.6746 6.1642,3.601 11.9423,7.8225 17.2235,12.4987 15.9784,14.1482 27.3706,32.4479 30.9536,50.7973 0.789,4.0425 1.198,8.0685 1.241,12.0295 0.215,19.96 -8.907,38.304 -25.1175,49.492 -1.608,1.109 -3.2819,2.145 -5.0158,3.107 -19.2158,10.662 -45.7963,12.273 -70.535,3.986"
           id="path1445" />
        <path
           style="fill:none;stroke:url(#radialGradient2024);stroke-width:0.264583;stroke-linecap:butt;stroke-linejoin:miter;stroke-opacity:1"
           d="m -208.24,-11.2568 c 0.127,-9.4866 3.577,-18.8272 9.511,-26.0117 5.934,-7.1844 14.304,-12.162 23.201,-13.9313 3.723,-0.7405 7.526,-0.9178 11.257,-0.5657 5.184,0.4892 10.229,2.0021 14.718,4.4456 7.72,4.202 13.742,11.1169 16.775,19.047 2.546,6.6658 3.003,13.6851 2.93,20.81637 -0.039,4.31602 -0.273,8.6743 -0.357,13.01731 -0.115,5.75882 0.041,11.64462 1.284,17.51152 1.243,5.8669 3.623,11.7475 7.624,16.6454 3.194,3.9106 7.368,7.1075 11.981,9.4024 0.149,0.0742 0.299,0.1475 0.449,0.2199 4.491,2.1651 9.3712,3.4996 14.2791,4.0896 10.1437,1.2193 20.2395,-0.718 29.3283,-4.0373 6.9184,-2.527 13.312,-5.8263 19.5124,-9.2853 10.0901,-5.6287 19.6714,-11.705 30.4962,-15.5994 8.05981,-2.9004 16.72891,-4.4408 25.6786,-4.6742 18.072,-0.4706 37.3011,4.3274 53.8779,14.006 6.1572,3.5949 11.91,7.8407 17.1484,12.5713 15.8492,14.3126 26.9611,33.0535 30.1711,52.0116 0.707,4.1767 1.029,8.3447 0.983,12.4537 -0.236,20.707 -9.871,39.957 -26.5215,51.932 -1.6515,1.188 -3.3683,2.301 -5.1439,3.339 -19.6783,11.499 -46.5935,13.765 -71.42571,5.713"
           id="path1447" />
        <path
           style="fill:none;stroke:url(#radialGradient2026);stroke-width:0.264583;stroke-linecap:butt;stroke-linejoin:miter;stroke-opacity:1"
           d="m -208.565,-12.9862 c 0.219,-9.4914 3.796,-18.8188 9.876,-25.9411 6.081,-7.1221 14.615,-11.9872 23.652,-13.584 3.782,-0.6682 7.639,-0.7627 11.416,-0.3189 5.249,0.6168 10.344,2.2743 14.861,4.8758 7.769,4.4737 13.773,11.6992 16.703,19.9344 2.461,6.9217 2.771,14.1855 2.531,21.53992 -0.142,4.45158 -0.487,8.93726 -0.68,13.39828 -0.259,5.915 -0.245,11.9441 0.878,17.9381 1.124,5.994 3.409,11.9862 7.352,16.9591 3.148,3.9705 7.299,7.202 11.902,9.5022 0.149,0.0745 0.298,0.1479 0.448,0.2204 4.482,2.1685 9.366,3.4794 14.2832,4.0218 10.1629,1.121 20.2987,-1.0167 29.4381,-4.5904 6.957,-2.7206 13.3966,-6.2443 19.6618,-9.9409 10.1956,-6.0153 19.9317,-12.5072 30.9292,-16.7678 8.1885,-3.1731 16.99451,-4.9556 26.0541,-5.3929 18.2939,-0.8823 37.6317,3.6754 54.1898,13.3375 6.1502,3.5888 11.8776,7.859 17.0733,12.6439 15.72,14.477 26.5505,33.6592 29.3885,53.2259 0.625,4.3109 0.861,8.6199 0.725,12.8779 -0.687,21.454 -10.836,41.609 -27.9255,54.373 -1.6951,1.266 -3.4546,2.456 -5.2719,3.569 -20.1409,12.337 -47.3907,15.259 -72.31647,7.44"
           id="path1449" />
        <path
           style="fill:none;stroke:url(#radialGradient2028);stroke-width:0.264583;stroke-linecap:butt;stroke-linejoin:miter;stroke-opacity:1"
           d="m -208.889,-14.7155 c 0.309,-9.4962 4.014,-18.8106 10.241,-25.8706 6.227,-7.0599 14.925,-11.8125 24.102,-13.2367 3.84,-0.5959 7.751,-0.6077 11.575,-0.072 5.314,0.7443 10.459,2.5464 15.005,5.3059 7.817,4.7454 13.803,12.2814 16.63,20.8217 2.375,7.1777 2.54,14.6861 2.132,22.26358 -0.245,4.587132 -0.7,9.20022 -1.003,13.77925 -0.403,6.07127 -0.531,12.24347 0.473,18.36467 1.004,6.1211 3.194,12.225 7.079,17.2728 3.102,4.0304 7.23,7.2965 11.823,9.6021 0.149,0.0746 0.298,0.1482 0.447,0.2208 4.473,2.1718 9.361,3.4592 14.2873,3.954 10.182,1.0226 20.3579,-1.3153 29.5479,-5.1435 6.9956,-2.9142 13.4812,-6.6622 19.8112,-10.5964 10.3012,-6.402 20.1921,-13.3094 31.3623,-17.9364 8.3171,-3.4457 17.26001,-5.4703 26.4296,-6.1114 18.5158,-1.2941 37.9623,3.0232 54.5016,12.6689 6.1432,3.5827 11.8452,7.8772 16.9982,12.7165 15.5907,14.6414 26.1409,34.2648 28.6059,54.4401 0.543,4.4452 0.692,8.8962 0.467,13.3022 -1.137,22.201 -11.8004,43.262 -29.3295,56.814 -1.7387,1.344 -3.541,2.611 -5.4,3.8 -20.6034,13.174 -48.1879,16.751 -73.20713,9.166"
           id="path1451" />
        <path
           style="fill:none;stroke:url(#radialGradient2030);stroke-width:0.264583;stroke-linecap:butt;stroke-linejoin:miter;stroke-opacity:1"
           d="m -209.214,-16.4449 c 0.401,-9.501 4.234,-18.8023 10.607,-25.8 6.373,-6.9976 15.235,-11.6377 24.552,-12.8893 3.899,-0.5238 7.864,-0.4527 11.735,0.1747 5.378,0.8719 10.573,2.8186 15.147,5.7362 7.866,5.017 13.835,12.8636 16.559,21.709 2.288,7.4337 2.307,15.1865 1.731,22.98713 -0.347,4.722694 -0.913,9.46318 -1.325,14.16023 -0.547,6.22744 -0.818,12.54294 0.067,18.79114 0.885,6.2482 2.979,12.4638 6.807,17.5866 3.056,4.0902 7.16,7.391 11.744,9.702 0.148,0.0748 0.297,0.1485 0.446,0.2212 4.465,2.1752 9.356,3.439 14.2914,3.8862 10.2011,0.9243 20.417,-1.614 29.6577,-5.6966 7.0342,-3.1079 13.5657,-7.0802 19.9606,-11.2519 10.4067,-6.7887 20.4524,-14.1116 31.7953,-19.105 8.44579,-3.7182 17.52561,-5.9851 26.8051,-6.83 18.7378,-1.7058 38.293,2.3711 54.8134,12.0004 6.1363,3.5767 11.8129,7.8955 16.9232,12.7891 15.4614,14.8057 25.7313,34.8704 27.8233,55.6544 0.461,4.5794 0.523,9.1724 0.208,13.7264 -1.587,22.948 -12.764,44.914 -30.7325,59.254 -1.7823,1.423 -3.6273,2.767 -5.5281,4.031 -21.0659,14.012 -48.985,18.245 -74.097793,10.894"
           id="path1453" />
      </g>
    </g>
  </g>
</svg>
